<svg width="110" height="18" viewBox="0 0 110 18" fill="none" xmlns="http://www.w3.org/2000/svg">
<path d="M6.846 15.118C6.12733 15.818 5.25933 16.168 4.242 16.168C3.206 16.168 2.33333 15.818 1.624 15.118C0.914667 14.4087 0.56 13.536 0.56 12.5C0.56 11.464 0.914667 10.596 1.624 9.896C2.33333 9.18667 3.206 8.832 4.242 8.832C5.26867 8.832 6.13667 9.18667 6.846 9.896C7.56467 10.596 7.924 11.464 7.924 12.5C7.924 13.5267 7.56467 14.3993 6.846 15.118ZM2.282 14.474C2.814 15.006 3.46733 15.272 4.242 15.272C5.01667 15.272 5.67 15.006 6.202 14.474C6.734 13.9233 7 13.2653 7 12.5C7 11.7253 6.734 11.072 6.202 10.54C5.67 9.99867 5.01667 9.728 4.242 9.728C3.46733 9.728 2.814 9.99867 2.282 10.54C1.75 11.072 1.484 11.7253 1.484 12.5C1.484 13.2653 1.75 13.9233 2.282 14.474ZM8.3568 9H14.2368V9.896H11.7588V16H10.8348V9.896H8.3568V9Z" fill="#758499"/>
<path d="M31.7 16H22.8V14.74L27.84 9.66C29.28 8.22 30 6.98667 30 5.96C30 5.09333 29.7267 4.40667 29.18 3.9C28.6467 3.38 27.98 3.12 27.18 3.12C25.7533 3.12 24.7067 3.78 24.04 5.1L22.86 4.4C23.2867 3.54667 23.88 2.89333 24.64 2.44C25.4 1.98667 26.2467 1.76 27.18 1.76C28.3 1.76 29.28 2.14 30.12 2.9C30.9733 3.63333 31.4 4.65333 31.4 5.96C31.4 6.73333 31.1867 7.49333 30.76 8.24C30.3333 8.97333 29.68 9.78 28.8 10.66L24.8 14.64H31.7V16ZM40.2502 8.78C40.9702 9.11333 41.5368 9.58 41.9502 10.18C42.3635 10.78 42.5702 11.4533 42.5702 12.2C42.5702 13.4667 42.1235 14.46 41.2302 15.18C40.3235 15.8867 39.2102 16.24 37.8902 16.24C36.5702 16.24 35.4568 15.8867 34.5502 15.18C33.6568 14.46 33.2102 13.4667 33.2102 12.2C33.2102 11.4533 33.4168 10.78 33.8302 10.18C34.2435 9.58 34.8102 9.11333 35.5302 8.78C34.2902 8.07333 33.6702 7.02667 33.6702 5.64C33.6702 4.38667 34.0835 3.42667 34.9102 2.76C35.7635 2.09333 36.7568 1.76 37.8902 1.76C39.0368 1.76 40.0235 2.09333 40.8502 2.76C41.6902 3.42667 42.1102 4.38667 42.1102 5.64C42.1102 7.02667 41.4902 8.07333 40.2502 8.78ZM35.0702 5.64C35.0702 6.41333 35.3368 7.02667 35.8702 7.48C36.4168 7.93333 37.0902 8.16 37.8902 8.16C38.6902 8.16 39.3568 7.93333 39.8902 7.48C40.4368 7.02667 40.7102 6.41333 40.7102 5.64C40.7102 4.82667 40.4502 4.20667 39.9302 3.78C39.4102 3.34 38.7302 3.12 37.8902 3.12C37.0502 3.12 36.3702 3.34 35.8502 3.78C35.3302 4.20667 35.0702 4.82667 35.0702 5.64ZM35.5102 14.2C36.0968 14.6533 36.8902 14.88 37.8902 14.88C38.8902 14.88 39.6835 14.6533 40.2702 14.2C40.8702 13.7333 41.1702 13.0667 41.1702 12.2C41.1702 11.3467 40.8702 10.6867 40.2702 10.22C39.6568 9.75333 38.8635 9.52 37.8902 9.52C36.9168 9.52 36.1235 9.75333 35.5102 10.22C34.9102 10.6867 34.6102 11.3467 34.6102 12.2C34.6102 13.08 34.9102 13.7467 35.5102 14.2ZM49.0578 7C50.4178 7 51.5445 7.43333 52.4378 8.3C53.3178 9.16667 53.7578 10.2733 53.7578 11.62C53.7578 12.9933 53.3178 14.1067 52.4378 14.96C51.5711 15.8133 50.4445 16.24 49.0578 16.24C47.6711 16.24 46.5445 15.8133 45.6778 14.96C44.7978 14.1067 44.3578 12.9933 44.3578 11.62C44.3578 10.5667 44.6445 9.63333 45.2178 8.82L49.7978 2H51.3778L47.9378 7.12C48.2978 7.04 48.6711 7 49.0578 7ZM46.6578 13.98C47.2845 14.58 48.0845 14.88 49.0578 14.88C50.0445 14.88 50.8378 14.58 51.4378 13.98C52.0511 13.38 52.3578 12.5933 52.3578 11.62C52.3578 10.6467 52.0511 9.86 51.4378 9.26C50.8378 8.66 50.0445 8.36 49.0578 8.36C48.0845 8.36 47.2845 8.66 46.6578 9.26C46.0578 9.86 45.7578 10.6467 45.7578 11.62C45.7578 12.5933 46.0578 13.38 46.6578 13.98Z" fill="#44444E"/>
<path d="M69.2 10.4H65.6V12.28H70.8V13.44H65.6V16H64.2V13.44H62.4V12.28H64.2V10.4H62.4V9.08H64.2V2H69.2C70.3467 2 71.3333 2.41333 72.16 3.24C72.9867 4.06667 73.4 5.05333 73.4 6.2C73.4 7.34667 72.9867 8.33333 72.16 9.16C71.3333 9.98667 70.3467 10.4 69.2 10.4ZM69.2 3.32H65.6V9.08H69.2C69.9733 9.08 70.6333 8.8 71.18 8.24C71.7267 7.65333 72 6.97333 72 6.2C72 5.41333 71.7267 4.73333 71.18 4.16C70.6333 3.6 69.9733 3.32 69.2 3.32ZM86.5969 -2.38419e-07L78.5969 18H77.5969L85.5969 -2.38419e-07H86.5969ZM100.082 6H101.602V16H100.282V8.02L96.7823 13.7H96.6223L93.1223 8.02V16H91.8023V6H93.3223L96.7023 11.48L100.082 6ZM108.123 10.2773H102.479V9.20312L104.783 6.95703C105.61 6.15625 106.137 5.57357 106.365 5.20898C106.6 4.83789 106.717 4.42773 106.717 3.97852C106.717 3.55534 106.593 3.23633 106.346 3.02148C106.105 2.80664 105.783 2.69922 105.379 2.69922C104.975 2.69922 104.611 2.77734 104.285 2.93359C103.96 3.08984 103.624 3.29818 103.279 3.55859L102.576 2.64062C103.442 1.90495 104.383 1.53711 105.398 1.53711C106.258 1.53711 106.928 1.75195 107.41 2.18164C107.898 2.60482 108.143 3.17773 108.143 3.90039C108.143 4.19987 108.1 4.47982 108.016 4.74023C107.938 4.99414 107.814 5.25456 107.645 5.52148C107.475 5.7819 107.254 6.06185 106.98 6.36133C106.714 6.66081 105.792 7.55273 104.217 9.03711H108.123V10.2773Z" fill="#44444E"/>
</svg>
