<svg width="112" height="18" viewBox="0 0 112 18" fill="none" xmlns="http://www.w3.org/2000/svg">
<path d="M6.846 15.118C6.12733 15.818 5.25933 16.168 4.242 16.168C3.206 16.168 2.33333 15.818 1.624 15.118C0.914667 14.4087 0.56 13.536 0.56 12.5C0.56 11.464 0.914667 10.596 1.624 9.896C2.33333 9.18667 3.206 8.832 4.242 8.832C5.26867 8.832 6.13667 9.18667 6.846 9.896C7.56467 10.596 7.924 11.464 7.924 12.5C7.924 13.5267 7.56467 14.3993 6.846 15.118ZM2.282 14.474C2.814 15.006 3.46733 15.272 4.242 15.272C5.01667 15.272 5.67 15.006 6.202 14.474C6.734 13.9233 7 13.2653 7 12.5C7 11.7253 6.734 11.072 6.202 10.54C5.67 9.99867 5.01667 9.728 4.242 9.728C3.46733 9.728 2.814 9.99867 2.282 10.54C1.75 11.072 1.484 11.7253 1.484 12.5C1.484 13.2653 1.75 13.9233 2.282 14.474ZM8.3568 9H14.2368V9.896H11.7588V16H10.8348V9.896H8.3568V9Z" fill="#758499"/>
<path d="M31.3 11.88H33.1V13.2H31.3V16H29.9V13.2H22.5V11.88L27.7 2H29.24L24.04 11.88H29.9V7.6H31.3V11.88ZM42.8016 3.32L39.5416 7.82C40.6482 7.95333 41.5682 8.38667 42.3016 9.12C43.0349 9.81333 43.4016 10.7533 43.4016 11.94C43.4016 13.26 42.9416 14.3133 42.0216 15.1C41.1282 15.86 40.0216 16.24 38.7016 16.24C37.6482 16.24 36.7149 16 35.9016 15.52C35.0882 15.0267 34.5216 14.34 34.2016 13.46L35.3616 12.78C35.5882 13.46 35.9882 13.98 36.5616 14.34C37.1482 14.7 37.8616 14.88 38.7016 14.88C39.6882 14.88 40.4816 14.62 41.0816 14.1C41.6949 13.5667 42.0016 12.8467 42.0016 11.94C42.0016 11.0333 41.6949 10.32 41.0816 9.8C40.4816 9.26667 39.6882 9 38.7016 9V8.98L38.6816 9H38.3016L37.7016 8.08L41.1816 3.32H34.6016V2H42.8016V3.32ZM53.0164 3.32L49.7564 7.82C50.8631 7.95333 51.7831 8.38667 52.5164 9.12C53.2497 9.81333 53.6164 10.7533 53.6164 11.94C53.6164 13.26 53.1564 14.3133 52.2364 15.1C51.3431 15.86 50.2364 16.24 48.9164 16.24C47.8631 16.24 46.9297 16 46.1164 15.52C45.3031 15.0267 44.7364 14.34 44.4164 13.46L45.5764 12.78C45.8031 13.46 46.2031 13.98 46.7764 14.34C47.3631 14.7 48.0764 14.88 48.9164 14.88C49.9031 14.88 50.6964 14.62 51.2964 14.1C51.9097 13.5667 52.2164 12.8467 52.2164 11.94C52.2164 11.0333 51.9097 10.32 51.2964 9.8C50.6964 9.26667 49.9031 9 48.9164 9V8.98L48.8964 9H48.5164L47.9164 8.08L51.3964 3.32H44.8164V2H53.0164V3.32Z" fill="#44444E"/>
<path d="M71.2 10.4H67.6V12.28H72.8V13.44H67.6V16H66.2V13.44H64.4V12.28H66.2V10.4H64.4V9.08H66.2V2H71.2C72.3467 2 73.3333 2.41333 74.16 3.24C74.9867 4.06667 75.4 5.05333 75.4 6.2C75.4 7.34667 74.9867 8.33333 74.16 9.16C73.3333 9.98667 72.3467 10.4 71.2 10.4ZM71.2 3.32H67.6V9.08H71.2C71.9733 9.08 72.6333 8.8 73.18 8.24C73.7267 7.65333 74 6.97333 74 6.2C74 5.41333 73.7267 4.73333 73.18 4.16C72.6333 3.6 71.9733 3.32 71.2 3.32ZM88.5969 -2.38419e-07L80.5969 18H79.5969L87.5969 -2.38419e-07H88.5969ZM102.082 6H103.602V16H102.282V8.02L98.7823 13.7H98.6223L95.1223 8.02V16H93.8023V6H95.3223L98.7023 11.48L102.082 6ZM110.123 10.2773H104.479V9.20312L106.783 6.95703C107.61 6.15625 108.137 5.57357 108.365 5.20898C108.6 4.83789 108.717 4.42773 108.717 3.97852C108.717 3.55534 108.593 3.23633 108.346 3.02148C108.105 2.80664 107.783 2.69922 107.379 2.69922C106.975 2.69922 106.611 2.77734 106.285 2.93359C105.96 3.08984 105.624 3.29818 105.279 3.55859L104.576 2.64062C105.442 1.90495 106.383 1.53711 107.398 1.53711C108.258 1.53711 108.928 1.75195 109.41 2.18164C109.898 2.60482 110.143 3.17773 110.143 3.90039C110.143 4.19987 110.1 4.47982 110.016 4.74023C109.938 4.99414 109.814 5.25456 109.645 5.52148C109.475 5.7819 109.254 6.06185 108.98 6.36133C108.714 6.66081 107.792 7.55273 106.217 9.03711H110.123V10.2773Z" fill="#44444E"/>
</svg>
