<svg width="109" height="18" viewBox="0 0 109 18" fill="none" xmlns="http://www.w3.org/2000/svg">
<path d="M6.846 15.118C6.12733 15.818 5.25933 16.168 4.242 16.168C3.206 16.168 2.33333 15.818 1.624 15.118C0.914667 14.4087 0.56 13.536 0.56 12.5C0.56 11.464 0.914667 10.596 1.624 9.896C2.33333 9.18667 3.206 8.832 4.242 8.832C5.26867 8.832 6.13667 9.18667 6.846 9.896C7.56467 10.596 7.924 11.464 7.924 12.5C7.924 13.5267 7.56467 14.3993 6.846 15.118ZM2.282 14.474C2.814 15.006 3.46733 15.272 4.242 15.272C5.01667 15.272 5.67 15.006 6.202 14.474C6.734 13.9233 7 13.2653 7 12.5C7 11.7253 6.734 11.072 6.202 10.54C5.67 9.99867 5.01667 9.728 4.242 9.728C3.46733 9.728 2.814 9.99867 2.282 10.54C1.75 11.072 1.484 11.7253 1.484 12.5C1.484 13.2653 1.75 13.9233 2.282 14.474ZM8.3568 9H14.2368V9.896H11.7588V16H10.8348V9.896H8.3568V9Z" fill="#758499"/>
<path d="M27.3 7C28.66 7 29.7867 7.43333 30.68 8.3C31.56 9.16667 32 10.2733 32 11.62C32 12.9933 31.56 14.1067 30.68 14.96C29.8133 15.8133 28.6867 16.24 27.3 16.24C25.9133 16.24 24.7867 15.8133 23.92 14.96C23.04 14.1067 22.6 12.9933 22.6 11.62C22.6 10.5667 22.8867 9.63333 23.46 8.82L28.04 2H29.62L26.18 7.12C26.54 7.04 26.9133 7 27.3 7ZM24.9 13.98C25.5267 14.58 26.3267 14.88 27.3 14.88C28.2867 14.88 29.08 14.58 29.68 13.98C30.2933 13.38 30.6 12.5933 30.6 11.62C30.6 10.6467 30.2933 9.86 29.68 9.26C29.08 8.66 28.2867 8.36 27.3 8.36C26.3267 8.36 25.5267 8.66 24.9 9.26C24.3 9.86 24 10.6467 24 11.62C24 12.5933 24.3 13.38 24.9 13.98ZM35.1548 7.64H37.5148C38.8348 7.64 39.9415 8.02667 40.8348 8.8C41.7548 9.56 42.2148 10.6067 42.2148 11.94C42.2148 13.26 41.7548 14.3133 40.8348 15.1C39.9415 15.86 38.8348 16.24 37.5148 16.24C36.4348 16.24 35.4815 15.98 34.6548 15.46C33.8415 14.9267 33.2948 14.1933 33.0148 13.26L34.1948 12.58C34.3948 13.3133 34.7882 13.88 35.3748 14.28C35.9615 14.68 36.6748 14.88 37.5148 14.88C38.5015 14.88 39.2948 14.62 39.8948 14.1C40.5082 13.5667 40.8148 12.8467 40.8148 11.94C40.8148 11.0333 40.5082 10.32 39.8948 9.8C39.2948 9.26667 38.5015 9 37.5148 9H33.7148L34.2148 2H41.7148V3.32H35.4548L35.1548 7.64ZM45.565 7.64H47.925C49.245 7.64 50.3517 8.02667 51.245 8.8C52.165 9.56 52.625 10.6067 52.625 11.94C52.625 13.26 52.165 14.3133 51.245 15.1C50.3517 15.86 49.245 16.24 47.925 16.24C46.845 16.24 45.8917 15.98 45.065 15.46C44.2517 14.9267 43.705 14.1933 43.425 13.26L44.605 12.58C44.805 13.3133 45.1983 13.88 45.785 14.28C46.3717 14.68 47.085 14.88 47.925 14.88C48.9117 14.88 49.705 14.62 50.305 14.1C50.9183 13.5667 51.225 12.8467 51.225 11.94C51.225 11.0333 50.9183 10.32 50.305 9.8C49.705 9.26667 48.9117 9 47.925 9H44.125L44.625 2H52.125V3.32H45.865L45.565 7.64Z" fill="#44444E"/>
<path d="M68.2 10.4H64.6V12.28H69.8V13.44H64.6V16H63.2V13.44H61.4V12.28H63.2V10.4H61.4V9.08H63.2V2H68.2C69.3467 2 70.3333 2.41333 71.16 3.24C71.9867 4.06667 72.4 5.05333 72.4 6.2C72.4 7.34667 71.9867 8.33333 71.16 9.16C70.3333 9.98667 69.3467 10.4 68.2 10.4ZM68.2 3.32H64.6V9.08H68.2C68.9733 9.08 69.6333 8.8 70.18 8.24C70.7267 7.65333 71 6.97333 71 6.2C71 5.41333 70.7267 4.73333 70.18 4.16C69.6333 3.6 68.9733 3.32 68.2 3.32ZM85.5969 -2.38419e-07L77.5969 18H76.5969L84.5969 -2.38419e-07H85.5969ZM99.0823 6H100.602V16H99.2823V8.02L95.7823 13.7H95.6223L92.1223 8.02V16H90.8023V6H92.3223L95.7023 11.48L99.0823 6ZM107.123 10.2773H101.479V9.20312L103.783 6.95703C104.61 6.15625 105.137 5.57357 105.365 5.20898C105.6 4.83789 105.717 4.42773 105.717 3.97852C105.717 3.55534 105.593 3.23633 105.346 3.02148C105.105 2.80664 104.783 2.69922 104.379 2.69922C103.975 2.69922 103.611 2.77734 103.285 2.93359C102.96 3.08984 102.624 3.29818 102.279 3.55859L101.576 2.64062C102.442 1.90495 103.383 1.53711 104.398 1.53711C105.258 1.53711 105.928 1.75195 106.41 2.18164C106.898 2.60482 107.143 3.17773 107.143 3.90039C107.143 4.19987 107.1 4.47982 107.016 4.74023C106.938 4.99414 106.814 5.25456 106.645 5.52148C106.475 5.7819 106.254 6.06185 105.98 6.36133C105.714 6.66081 104.792 7.55273 103.217 9.03711H107.123V10.2773Z" fill="#44444E"/>
</svg>
