<svg width="60" height="60" viewBox="0 0 60 60" fill="none" xmlns="http://www.w3.org/2000/svg">
<rect width="60" height="60" rx="14" fill="url(#paint0_radial_105_420)"/>
<g clip-path="url(#clip0_105_420)">
<path d="M30.279 19.6695C30.0999 19.5977 29.9001 19.5977 29.721 19.6695L20.769 23.25L30 26.9415L39.231 23.25L30.279 19.6695ZM40.5 24.3585L30.75 28.2585V40.1415L40.5 36.2415V24.36V24.3585ZM29.25 40.143V28.257L19.5 24.3585V36.243L29.25 40.143ZM29.1645 18.276C29.7008 18.0615 30.2992 18.0615 30.8355 18.276L41.529 22.554C41.668 22.6097 41.7872 22.7058 41.8711 22.8298C41.9551 22.9539 42 23.1002 42 23.25V36.243C41.9998 36.5427 41.9098 36.8355 41.7417 37.0836C41.5735 37.3317 41.3348 37.5238 41.0565 37.635L30.279 41.946C30.0999 42.0178 29.9001 42.0178 29.721 41.946L18.945 37.635C18.6664 37.524 18.4274 37.3321 18.259 37.084C18.0905 36.8358 18.0003 36.5429 18 36.243V23.25C18 23.1002 18.0449 22.9539 18.1289 22.8298C18.2128 22.7058 18.332 22.6097 18.471 22.554L29.1645 18.276Z" fill="white"/>
</g>
<defs>
<radialGradient id="paint0_radial_105_420" cx="0" cy="0" r="1" gradientUnits="userSpaceOnUse" gradientTransform="translate(30 5.05078e-06) rotate(90) scale(82 63.6207)">
<stop stop-color="#FFC400"/>
<stop offset="1" stop-color="#FF9900"/>
</radialGradient>
<clipPath id="clip0_105_420">
<rect width="24" height="24" fill="white" transform="translate(18 18)"/>
</clipPath>
</defs>
</svg>
