<svg width="60" height="60" viewBox="0 0 60 60" fill="none" xmlns="http://www.w3.org/2000/svg">
<rect width="60" height="60" rx="14" fill="url(#paint0_radial_105_436)"/>
<g clip-path="url(#clip0_105_436)">
<path d="M21 20.25C21 20.0511 21.079 19.8603 21.2197 19.7197C21.3603 19.579 21.5511 19.5 21.75 19.5H38.25C38.4489 19.5 38.6397 19.579 38.7803 19.7197C38.921 19.8603 39 20.0511 39 20.25C39 20.4489 38.921 20.6397 38.7803 20.7803C38.6397 20.921 38.4489 21 38.25 21H36.75V22.5C36.7503 23.7736 36.3903 25.0212 35.7116 26.0988C35.0329 27.1765 34.0632 28.0401 32.9145 28.59C32.4795 28.7985 32.25 29.1555 32.25 29.475V30.525C32.25 30.8445 32.481 31.2015 32.9145 31.41C34.0632 31.9599 35.0329 32.8235 35.7116 33.9012C36.3903 34.9788 36.7503 36.2265 36.75 37.5V39H38.25C38.4489 39 38.6397 39.079 38.7803 39.2197C38.921 39.3603 39 39.5511 39 39.75C39 39.9489 38.921 40.1397 38.7803 40.2803C38.6397 40.421 38.4489 40.5 38.25 40.5H21.75C21.5511 40.5 21.3603 40.421 21.2197 40.2803C21.079 40.1397 21 39.9489 21 39.75C21 39.5511 21.079 39.3603 21.2197 39.2197C21.3603 39.079 21.5511 39 21.75 39H23.25V37.5C23.2497 36.2265 23.6097 34.9788 24.2884 33.9012C24.9671 32.8235 25.9368 31.9599 27.0855 31.41C27.5205 31.2015 27.75 30.8445 27.75 30.525V29.475C27.75 29.1555 27.519 28.7985 27.0855 28.59C25.9368 28.0401 24.9671 27.1765 24.2884 26.0988C23.6097 25.0212 23.2497 23.7736 23.25 22.5V21H21.75C21.5511 21 21.3603 20.921 21.2197 20.7803C21.079 20.6397 21 20.4489 21 20.25ZM24.75 21V22.5C24.7497 23.4906 25.0297 24.4611 25.5577 25.2993C26.0856 26.1376 26.8399 26.8093 27.7335 27.237C28.533 27.621 29.25 28.4235 29.25 29.4735V30.5265C29.25 31.5765 28.533 32.379 27.7335 32.763C26.8399 33.1907 26.0856 33.8624 25.5577 34.7007C25.0297 35.5389 24.7497 36.5094 24.75 37.5V39H35.25V37.5C35.2503 36.5094 34.9703 35.5389 34.4423 34.7007C33.9144 33.8624 33.1601 33.1907 32.2665 32.763C31.467 32.379 30.75 31.578 30.75 30.5265V29.4735C30.75 28.4235 31.467 27.621 32.2665 27.237C33.1601 26.8093 33.9144 26.1376 34.4423 25.2993C34.9703 24.4611 35.2503 23.4906 35.25 22.5V21H24.75Z" fill="white"/>
</g>
<defs>
<radialGradient id="paint0_radial_105_436" cx="0" cy="0" r="1" gradientUnits="userSpaceOnUse" gradientTransform="translate(30 5.05078e-06) rotate(90) scale(82 63.6207)">
<stop stop-color="#FFC400"/>
<stop offset="1" stop-color="#FF9900"/>
</radialGradient>
<clipPath id="clip0_105_436">
<rect width="18" height="22" fill="white" transform="translate(21 19)"/>
</clipPath>
</defs>
</svg>
