<svg width="60" height="60" viewBox="0 0 60 60" fill="none" xmlns="http://www.w3.org/2000/svg">
<rect width="60" height="60" rx="14" fill="url(#paint0_radial_105_421)"/>
<g clip-path="url(#clip0_105_421)">
<path d="M18 22.25C18 21.6533 18.2371 21.081 18.659 20.659C19.081 20.2371 19.6533 20 20.25 20H33.75C34.3467 20 34.919 20.2371 35.341 20.659C35.7629 21.081 36 21.6533 36 22.25V24.5H37.53C37.8671 24.5003 38.1998 24.5763 38.5036 24.7225C38.8074 24.8687 39.0744 25.0813 39.285 25.3445L41.5065 28.1195C41.8261 28.5188 42.0002 29.015 42 29.5265V32.75C42 33.3467 41.7629 33.919 41.341 34.341C40.919 34.7629 40.3467 35 39.75 35H39C39 35.7956 38.6839 36.5587 38.1213 37.1213C37.5587 37.6839 36.7956 38 36 38C35.2044 38 34.4413 37.6839 33.8787 37.1213C33.3161 36.5587 33 35.7956 33 35H25.5C25.5009 35.3999 25.4218 35.7959 25.2674 36.1648C25.113 36.5336 24.8864 36.8679 24.601 37.148C24.3155 37.428 23.977 37.6481 23.6052 37.7955C23.2335 37.9428 22.836 38.0143 22.4362 38.0058C22.0365 37.9973 21.6424 37.909 21.2772 37.746C20.9121 37.583 20.5832 37.3486 20.3099 37.0567C20.0366 36.7648 19.8245 36.4212 19.6859 36.0461C19.5473 35.671 19.4851 35.272 19.503 34.8725C19.0636 34.7178 18.683 34.4306 18.4138 34.0504C18.1445 33.6702 18 33.2159 18 32.75V22.25ZM19.941 33.434C20.2122 32.99 20.5943 32.6242 21.0496 32.3725C21.505 32.1209 22.0181 31.9921 22.5383 31.9987C23.0585 32.0054 23.5681 32.1473 24.0169 32.4105C24.4657 32.6737 24.8383 33.0492 25.098 33.5H33.402C33.6659 33.0444 34.0444 32.6659 34.5 32.402V22.25C34.5 22.0511 34.421 21.8603 34.2803 21.7197C34.1397 21.579 33.9489 21.5 33.75 21.5H20.25C20.0511 21.5 19.8603 21.579 19.7197 21.7197C19.579 21.8603 19.5 22.0511 19.5 22.25V32.75C19.4999 32.8944 19.5414 33.0357 19.6197 33.157C19.6979 33.2783 19.8095 33.3745 19.941 33.434ZM36 32C36.5266 32 37.0439 32.1386 37.5 32.4019C37.956 32.6652 38.3347 33.044 38.598 33.5H39.75C39.9489 33.5 40.1397 33.421 40.2803 33.2803C40.421 33.1397 40.5 32.9489 40.5 32.75V29.525C40.4997 29.3548 40.4415 29.1898 40.335 29.057L38.115 26.282C38.0449 26.1942 37.9559 26.1232 37.8546 26.0744C37.7533 26.0256 37.6424 26.0002 37.53 26H36V32ZM22.5 33.5C22.1022 33.5 21.7206 33.658 21.4393 33.9393C21.158 34.2206 21 34.6022 21 35C21 35.3978 21.158 35.7794 21.4393 36.0607C21.7206 36.342 22.1022 36.5 22.5 36.5C22.8978 36.5 23.2794 36.342 23.5607 36.0607C23.842 35.7794 24 35.3978 24 35C24 34.6022 23.842 34.2206 23.5607 33.9393C23.2794 33.658 22.8978 33.5 22.5 33.5ZM36 33.5C35.6022 33.5 35.2206 33.658 34.9393 33.9393C34.658 34.2206 34.5 34.6022 34.5 35C34.5 35.3978 34.658 35.7794 34.9393 36.0607C35.2206 36.342 35.6022 36.5 36 36.5C36.3978 36.5 36.7794 36.342 37.0607 36.0607C37.342 35.7794 37.5 35.3978 37.5 35C37.5 34.6022 37.342 34.2206 37.0607 33.9393C36.7794 33.658 36.3978 33.5 36 33.5Z" fill="white"/>
</g>
<defs>
<radialGradient id="paint0_radial_105_421" cx="0" cy="0" r="1" gradientUnits="userSpaceOnUse" gradientTransform="translate(30 5.05078e-06) rotate(90) scale(82 63.6207)">
<stop stop-color="#FFC400"/>
<stop offset="1" stop-color="#FF9900"/>
</radialGradient>
<clipPath id="clip0_105_421">
<rect width="24" height="19" fill="white" transform="translate(18 20)"/>
</clipPath>
</defs>
</svg>
