<svg width="60" height="60" viewBox="0 0 60 60" fill="none" xmlns="http://www.w3.org/2000/svg">
<rect width="60" height="60" rx="14" fill="url(#paint0_radial_105_428)"/>
<g clip-path="url(#clip0_105_428)">
<path d="M39 22.5C39.3978 22.5 39.7794 22.658 40.0607 22.9393C40.342 23.2206 40.5 23.6022 40.5 24V36C40.5 36.3978 40.342 36.7794 40.0607 37.0607C39.7794 37.342 39.3978 37.5 39 37.5H21C20.6022 37.5 20.2206 37.342 19.9393 37.0607C19.658 36.7794 19.5 36.3978 19.5 36V24C19.5 23.6022 19.658 23.2206 19.9393 22.9393C20.2206 22.658 20.6022 22.5 21 22.5H39ZM21 21C20.2043 21 19.4413 21.3161 18.8787 21.8787C18.3161 22.4413 18 23.2043 18 24V36C18 36.7956 18.3161 37.5587 18.8787 38.1213C19.4413 38.6839 20.2043 39 21 39H39C39.7956 39 40.5587 38.6839 41.1213 38.1213C41.6839 37.5587 42 36.7956 42 36V24C42 23.2043 41.6839 22.4413 41.1213 21.8787C40.5587 21.3161 39.7956 21 39 21H21Z" fill="white"/>
<path d="M21 26.25C21 26.0511 21.079 25.8603 21.2197 25.7197C21.3603 25.579 21.5511 25.5 21.75 25.5H24.75C24.9489 25.5 25.1397 25.579 25.2803 25.7197C25.421 25.8603 25.5 26.0511 25.5 26.25V27.75C25.5 27.9489 25.421 28.1397 25.2803 28.2803C25.1397 28.421 24.9489 28.5 24.75 28.5H21.75C21.5511 28.5 21.3603 28.421 21.2197 28.2803C21.079 28.1397 21 27.9489 21 27.75V26.25ZM21 30.75C21 30.5511 21.079 30.3603 21.2197 30.2197C21.3603 30.079 21.5511 30 21.75 30H29.25C29.4489 30 29.6397 30.079 29.7803 30.2197C29.921 30.3603 30 30.5511 30 30.75C30 30.9489 29.921 31.1397 29.7803 31.2803C29.6397 31.421 29.4489 31.5 29.25 31.5H21.75C21.5511 31.5 21.3603 31.421 21.2197 31.2803C21.079 31.1397 21 30.9489 21 30.75ZM21 33.75C21 33.5511 21.079 33.3603 21.2197 33.2197C21.3603 33.079 21.5511 33 21.75 33H23.25C23.4489 33 23.6397 33.079 23.7803 33.2197C23.921 33.3603 24 33.5511 24 33.75C24 33.9489 23.921 34.1397 23.7803 34.2803C23.6397 34.421 23.4489 34.5 23.25 34.5H21.75C21.5511 34.5 21.3603 34.421 21.2197 34.2803C21.079 34.1397 21 33.9489 21 33.75ZM25.5 33.75C25.5 33.5511 25.579 33.3603 25.7197 33.2197C25.8603 33.079 26.0511 33 26.25 33H27.75C27.9489 33 28.1397 33.079 28.2803 33.2197C28.421 33.3603 28.5 33.5511 28.5 33.75C28.5 33.9489 28.421 34.1397 28.2803 34.2803C28.1397 34.421 27.9489 34.5 27.75 34.5H26.25C26.0511 34.5 25.8603 34.421 25.7197 34.2803C25.579 34.1397 25.5 33.9489 25.5 33.75ZM30 33.75C30 33.5511 30.079 33.3603 30.2197 33.2197C30.3603 33.079 30.5511 33 30.75 33H32.25C32.4489 33 32.6397 33.079 32.7803 33.2197C32.921 33.3603 33 33.5511 33 33.75C33 33.9489 32.921 34.1397 32.7803 34.2803C32.6397 34.421 32.4489 34.5 32.25 34.5H30.75C30.5511 34.5 30.3603 34.421 30.2197 34.2803C30.079 34.1397 30 33.9489 30 33.75ZM34.5 33.75C34.5 33.5511 34.579 33.3603 34.7197 33.2197C34.8603 33.079 35.0511 33 35.25 33H36.75C36.9489 33 37.1397 33.079 37.2803 33.2197C37.421 33.3603 37.5 33.5511 37.5 33.75C37.5 33.9489 37.421 34.1397 37.2803 34.2803C37.1397 34.421 36.9489 34.5 36.75 34.5H35.25C35.0511 34.5 34.8603 34.421 34.7197 34.2803C34.579 34.1397 34.5 33.9489 34.5 33.75Z" fill="white"/>
</g>
<defs>
<radialGradient id="paint0_radial_105_428" cx="0" cy="0" r="1" gradientUnits="userSpaceOnUse" gradientTransform="translate(30 5.05078e-06) rotate(90) scale(82 63.6207)">
<stop stop-color="#FFC400"/>
<stop offset="1" stop-color="#FF9900"/>
</radialGradient>
<clipPath id="clip0_105_428">
<rect width="24" height="18" fill="white" transform="translate(18 21)"/>
</clipPath>
</defs>
</svg>
