<svg width="60" height="60" viewBox="0 0 60 60" fill="none" xmlns="http://www.w3.org/2000/svg">
<rect x="0.5" y="0.5" width="59" height="59" rx="13.5" fill="url(#paint0_radial_105_343)"/>
<rect x="0.5" y="0.5" width="59" height="59" rx="13.5" stroke="url(#paint1_radial_105_343)"/>
<g clip-path="url(#clip0_105_343)">
<path d="M39 19.5C39.3978 19.5 39.7794 19.658 40.0607 19.9393C40.342 20.2206 40.5 20.6022 40.5 21V39C40.5 39.3978 40.342 39.7794 40.0607 40.0607C39.7794 40.342 39.3978 40.5 39 40.5H21C20.6022 40.5 20.2206 40.342 19.9393 40.0607C19.658 39.7794 19.5 39.3978 19.5 39V21C19.5 20.6022 19.658 20.2206 19.9393 19.9393C20.2206 19.658 20.6022 19.5 21 19.5H39ZM21 18C20.2043 18 19.4413 18.3161 18.8787 18.8787C18.3161 19.4413 18 20.2043 18 21V39C18 39.7956 18.3161 40.5587 18.8787 41.1213C19.4413 41.6839 20.2043 42 21 42H39C39.7956 42 40.5587 41.6839 41.1213 41.1213C41.6839 40.5587 42 39.7956 42 39V21C42 20.2043 41.6839 19.4413 41.1213 18.8787C40.5587 18.3161 39.7956 18 39 18H21Z" fill="white"/>
<path d="M34.455 25.455C34.6649 25.2469 34.9483 25.1298 35.2439 25.129C35.5395 25.1282 35.8235 25.2437 36.0346 25.4506C36.2457 25.6576 36.3668 25.9393 36.3718 26.2348C36.3769 26.5303 36.2654 26.816 36.0615 27.03L30.0735 34.515C29.9706 34.6258 29.8464 34.7148 29.7083 34.7766C29.5702 34.8383 29.4211 34.8716 29.2699 34.8744C29.1186 34.8772 28.9684 34.8494 28.8281 34.7928C28.6879 34.7363 28.5604 34.652 28.4535 34.545L24.486 30.576C24.3755 30.473 24.2868 30.3488 24.2253 30.2108C24.1638 30.0728 24.1308 29.9238 24.1281 29.7728C24.1254 29.6217 24.1532 29.4717 24.2098 29.3316C24.2664 29.1915 24.3506 29.0643 24.4574 28.9574C24.5643 28.8506 24.6915 28.7664 24.8316 28.7098C24.9717 28.6532 25.1217 28.6254 25.2728 28.6281C25.4238 28.6308 25.5728 28.6638 25.7108 28.7253C25.8488 28.7868 25.973 28.8755 26.076 28.986L29.217 32.1255L34.4265 25.488C34.4358 25.4764 34.4443 25.4654 34.455 25.455Z" fill="white"/>
</g>
<defs>
<radialGradient id="paint0_radial_105_343" cx="0" cy="0" r="1" gradientUnits="userSpaceOnUse" gradientTransform="translate(30 5.05078e-06) rotate(90) scale(82 63.6207)">
<stop stop-color="#FFC400"/>
<stop offset="1" stop-color="#FF9900"/>
</radialGradient>
<radialGradient id="paint1_radial_105_343" cx="0" cy="0" r="1" gradientUnits="userSpaceOnUse" gradientTransform="translate(30 5.05078e-06) rotate(90) scale(82 63.6207)">
<stop stop-color="#FFC400"/>
<stop offset="1" stop-color="#FF9900"/>
</radialGradient>
<clipPath id="clip0_105_343">
<rect width="24" height="24" fill="white" transform="translate(18 18)"/>
</clipPath>
</defs>
</svg>
