<svg width="1003" height="60" viewBox="0 0 1003 60" fill="none" xmlns="http://www.w3.org/2000/svg">
<g filter="url(#filter0_d_123_547)">
<rect x="15" y="9" width="973" height="30" rx="8" fill="white"/>
</g>
<rect x="16" y="10" width="211" height="28" rx="8" fill="url(#paint0_linear_123_547)"/>
<path opacity="0.6" d="M396.2 17.8H400.264C401.288 17.8 402.147 18.1467 402.84 18.84C403.533 19.5333 403.88 20.3867 403.88 21.4C403.88 22.4133 403.533 23.2667 402.84 23.96C402.147 24.6533 401.288 25 400.264 25H397.688V29H396.2V17.8ZM397.688 23.608H400.264C400.893 23.608 401.405 23.4 401.8 22.984C402.205 22.5467 402.408 22.0187 402.408 21.4C402.408 20.76 402.205 20.232 401.8 19.816C401.395 19.4 400.883 19.192 400.264 19.192H397.688V23.608ZM412.148 22.376V21H413.54V29H412.148V27.624C411.465 28.68 410.457 29.208 409.124 29.208C407.993 29.208 407.039 28.8027 406.26 27.992C405.471 27.1707 405.076 26.1733 405.076 25C405.076 23.8373 405.471 22.8453 406.26 22.024C407.049 21.2027 408.004 20.792 409.124 20.792C410.457 20.792 411.465 21.32 412.148 22.376ZM409.3 27.864C410.111 27.864 410.788 27.592 411.332 27.048C411.876 26.4827 412.148 25.8 412.148 25C412.148 24.1893 411.876 23.512 411.332 22.968C410.788 22.4133 410.111 22.136 409.3 22.136C408.5 22.136 407.828 22.4133 407.284 22.968C406.74 23.512 406.468 24.1893 406.468 25C406.468 25.8 406.74 26.4827 407.284 27.048C407.828 27.592 408.5 27.864 409.3 27.864ZM420.049 29.208C418.844 29.208 417.841 28.808 417.041 28.008C416.241 27.1973 415.841 26.1947 415.841 25C415.841 23.8053 416.241 22.808 417.041 22.008C417.841 21.1973 418.844 20.792 420.049 20.792C420.838 20.792 421.548 20.984 422.177 21.368C422.806 21.7413 423.276 22.248 423.585 22.888L422.417 23.56C422.214 23.1333 421.9 22.792 421.473 22.536C421.057 22.28 420.582 22.152 420.049 22.152C419.249 22.152 418.577 22.424 418.033 22.968C417.5 23.5227 417.233 24.2 417.233 25C417.233 25.7893 417.5 26.4613 418.033 27.016C418.577 27.56 419.249 27.832 420.049 27.832C420.582 27.832 421.062 27.7093 421.489 27.464C421.916 27.208 422.241 26.8667 422.465 26.44L423.649 27.128C423.297 27.768 422.801 28.2747 422.161 28.648C421.521 29.0213 420.817 29.208 420.049 29.208ZM430.547 24.824V21H431.939V29H430.547V26.12C429.897 26.3973 429.177 26.536 428.387 26.536C427.353 26.536 426.558 26.2907 426.003 25.8C425.449 25.3093 425.171 24.5947 425.171 23.656V21H426.563V23.576C426.563 24.1627 426.718 24.5893 427.027 24.856C427.347 25.112 427.833 25.24 428.483 25.24C429.219 25.24 429.907 25.1013 430.547 24.824ZM442.374 25.64H435.67C435.809 26.344 436.134 26.8987 436.646 27.304C437.158 27.6987 437.798 27.896 438.566 27.896C439.622 27.896 440.39 27.5067 440.87 26.728L442.054 27.4C441.265 28.6053 440.091 29.208 438.534 29.208C437.275 29.208 436.241 28.8133 435.43 28.024C434.641 27.2133 434.246 26.2053 434.246 25C434.246 23.784 434.635 22.7813 435.414 21.992C436.193 21.192 437.201 20.792 438.438 20.792C439.611 20.792 440.566 21.208 441.302 22.04C442.049 22.8507 442.422 23.8427 442.422 25.016C442.422 25.2187 442.406 25.4267 442.374 25.64ZM438.438 22.104C437.702 22.104 437.083 22.312 436.582 22.728C436.091 23.144 435.787 23.7093 435.67 24.424H441.014C440.897 23.688 440.603 23.1173 440.134 22.712C439.665 22.3067 439.099 22.104 438.438 22.104ZM443.454 21H450.302V22.344H447.582V29H446.19V22.344H443.454V21ZM456.802 21H463.73V29H462.338V22.328H458.194V29H456.802V21ZM470.905 20.792C472.025 20.792 472.979 21.2027 473.769 22.024C474.558 22.8453 474.953 23.8373 474.953 25C474.953 26.1733 474.558 27.1707 473.769 27.992C472.99 28.8027 472.035 29.208 470.905 29.208C469.582 29.208 468.574 28.68 467.881 27.624V32.2H466.489V21H467.881V22.376C468.574 21.32 469.582 20.792 470.905 20.792ZM470.729 27.864C471.529 27.864 472.201 27.592 472.745 27.048C473.289 26.4827 473.561 25.8 473.561 25C473.561 24.1893 473.289 23.512 472.745 22.968C472.201 22.4133 471.529 22.136 470.729 22.136C469.918 22.136 469.241 22.4133 468.697 22.968C468.153 23.512 467.881 24.1893 467.881 25C467.881 25.8 468.153 26.4827 468.697 27.048C469.241 27.592 469.918 27.864 470.729 27.864ZM484.006 27.992C483.195 28.8027 482.198 29.208 481.014 29.208C479.83 29.208 478.832 28.8027 478.022 27.992C477.211 27.1813 476.806 26.184 476.806 25C476.806 23.816 477.211 22.8187 478.022 22.008C478.832 21.1973 479.83 20.792 481.014 20.792C482.198 20.792 483.195 21.1973 484.006 22.008C484.827 22.8293 485.238 23.8267 485.238 25C485.238 26.1733 484.827 27.1707 484.006 27.992ZM481.014 27.848C481.814 27.848 482.486 27.576 483.03 27.032C483.574 26.488 483.846 25.8107 483.846 25C483.846 24.1893 483.574 23.512 483.03 22.968C482.486 22.424 481.814 22.152 481.014 22.152C480.224 22.152 479.558 22.424 479.014 22.968C478.47 23.512 478.198 24.1893 478.198 25C478.198 25.8107 478.47 26.488 479.014 27.032C479.558 27.576 480.224 27.848 481.014 27.848ZM488.895 26.616L493.327 21H494.447V29H493.071V23.384L488.639 29H487.519V21H488.895V26.616ZM501.525 24.904C502.411 25.2773 502.853 25.912 502.853 26.808C502.853 27.5013 502.581 28.0773 502.037 28.536C501.493 28.984 500.741 29.208 499.781 29.208C498.181 29.208 497.109 28.568 496.565 27.288L497.733 26.6C498.032 27.4747 498.72 27.912 499.797 27.912C500.32 27.912 500.731 27.8 501.029 27.576C501.328 27.352 501.477 27.0533 501.477 26.68C501.477 26.36 501.355 26.0987 501.109 25.896C500.875 25.6933 500.555 25.592 500.149 25.592H498.981V24.328H499.845C500.251 24.328 500.565 24.232 500.789 24.04C501.013 23.8373 501.125 23.5653 501.125 23.224C501.125 22.872 500.992 22.5947 500.725 22.392C500.459 22.1787 500.101 22.072 499.653 22.072C498.757 22.072 498.149 22.4507 497.829 23.208L496.693 22.552C497.259 21.3787 498.245 20.792 499.653 20.792C500.507 20.792 501.189 21.016 501.701 21.464C502.224 21.9013 502.485 22.4507 502.485 23.112C502.485 23.9227 502.165 24.52 501.525 24.904ZM510.33 24.888C511.151 25.2293 511.562 25.848 511.562 26.744C511.562 27.4267 511.338 27.976 510.89 28.392C510.442 28.7973 509.812 29 509.002 29H505.002V21H508.682C509.471 21 510.084 21.1973 510.522 21.592C510.97 21.9867 511.194 22.5147 511.194 23.176C511.194 23.944 510.906 24.5147 510.33 24.888ZM508.618 22.248H506.362V24.344H508.618C509.428 24.344 509.834 23.9867 509.834 23.272C509.834 22.5893 509.428 22.248 508.618 22.248ZM506.362 27.736H508.922C509.327 27.736 509.636 27.64 509.85 27.448C510.074 27.256 510.186 26.984 510.186 26.632C510.186 26.3013 510.074 26.0453 509.85 25.864C509.636 25.672 509.327 25.576 508.922 25.576H506.362V27.736ZM521.384 25.64H514.68C514.819 26.344 515.144 26.8987 515.656 27.304C516.168 27.6987 516.808 27.896 517.576 27.896C518.632 27.896 519.4 27.5067 519.88 26.728L521.064 27.4C520.275 28.6053 519.101 29.208 517.544 29.208C516.285 29.208 515.251 28.8133 514.44 28.024C513.651 27.2133 513.256 26.2053 513.256 25C513.256 23.784 513.645 22.7813 514.424 21.992C515.203 21.192 516.211 20.792 517.448 20.792C518.621 20.792 519.576 21.208 520.312 22.04C521.059 22.8507 521.432 23.8427 521.432 25.016C521.432 25.2187 521.416 25.4267 521.384 25.64ZM517.448 22.104C516.712 22.104 516.093 22.312 515.592 22.728C515.101 23.144 514.797 23.7093 514.68 24.424H520.024C519.907 23.688 519.613 23.1173 519.144 22.712C518.675 22.3067 518.109 22.104 517.448 22.104ZM530.24 21V27.672H531.344V31.144H529.968V29H523.968V31.144H522.592V27.672H523.568C524.08 26.968 524.336 25.9813 524.336 24.712V21H530.24ZM525.152 27.672H528.864V22.296H525.712V24.712C525.712 25.8853 525.525 26.872 525.152 27.672ZM540.852 25.64H534.148C534.286 26.344 534.612 26.8987 535.124 27.304C535.636 27.6987 536.276 27.896 537.044 27.896C538.1 27.896 538.868 27.5067 539.348 26.728L540.532 27.4C539.742 28.6053 538.569 29.208 537.012 29.208C535.753 29.208 534.718 28.8133 533.908 28.024C533.118 27.2133 532.724 26.2053 532.724 25C532.724 23.784 533.113 22.7813 533.892 21.992C534.67 21.192 535.678 20.792 536.916 20.792C538.089 20.792 539.044 21.208 539.78 22.04C540.526 22.8507 540.9 23.8427 540.9 25.016C540.9 25.2187 540.884 25.4267 540.852 25.64ZM536.916 22.104C536.18 22.104 535.561 22.312 535.06 22.728C534.569 23.144 534.265 23.7093 534.148 24.424H539.492C539.374 23.688 539.081 23.1173 538.612 22.712C538.142 22.3067 537.577 22.104 536.916 22.104ZM548.676 24.328V21H550.068V29H548.676V25.656H544.532V29H543.14V21H544.532V24.328H548.676ZM563.003 24.328V21H564.395V29H563.003V25.656H558.859V29H557.467V21H558.859V24.328H563.003ZM573.778 22.376V21H575.17V29H573.778V27.624C573.095 28.68 572.087 29.208 570.754 29.208C569.623 29.208 568.668 28.8027 567.89 27.992C567.1 27.1707 566.706 26.1733 566.706 25C566.706 23.8373 567.1 22.8453 567.89 22.024C568.679 21.2027 569.634 20.792 570.754 20.792C572.087 20.792 573.095 21.32 573.778 22.376ZM570.93 27.864C571.74 27.864 572.418 27.592 572.962 27.048C573.506 26.4827 573.778 25.8 573.778 25C573.778 24.1893 573.506 23.512 572.962 22.968C572.418 22.4133 571.74 22.136 570.93 22.136C570.13 22.136 569.458 22.4133 568.914 22.968C568.37 23.512 568.098 24.1893 568.098 25C568.098 25.8 568.37 26.4827 568.914 27.048C569.458 27.592 570.13 27.864 570.93 27.864ZM581.727 18.824L584.671 17.8H585.951V29H584.479V19.4L582.095 20.104L581.727 18.824ZM590.534 22.168H592.166C593.222 22.168 594.112 22.4827 594.838 23.112C595.574 23.7413 595.942 24.6 595.942 25.688C595.942 26.7867 595.568 27.6453 594.822 28.264C594.064 28.8933 593.158 29.208 592.102 29.208C591.227 29.208 590.454 29 589.782 28.584C589.12 28.1573 588.662 27.5653 588.406 26.808L589.67 26.088C589.819 26.6213 590.107 27.032 590.534 27.32C590.96 27.608 591.483 27.752 592.102 27.752C592.816 27.752 593.387 27.5707 593.814 27.208C594.251 26.8347 594.47 26.328 594.47 25.688C594.47 25.048 594.251 24.5413 593.814 24.168C593.387 23.7947 592.827 23.608 592.134 23.608H588.966L589.382 17.8H595.51V19.192H590.726L590.534 22.168ZM600.269 22.552C599.543 22.552 598.941 22.312 598.461 21.832C597.981 21.352 597.741 20.7653 597.741 20.072C597.741 19.3893 597.981 18.808 598.461 18.328C598.951 17.8373 599.554 17.592 600.269 17.592C600.994 17.592 601.597 17.832 602.077 18.312C602.557 18.792 602.797 19.3787 602.797 20.072C602.797 20.7653 602.557 21.352 602.077 21.832C601.607 22.312 601.005 22.552 600.269 22.552ZM598.989 20.072C598.989 20.4453 599.106 20.76 599.341 21.016C599.586 21.2613 599.895 21.384 600.269 21.384C600.642 21.384 600.946 21.256 601.181 21C601.426 20.744 601.549 20.4347 601.549 20.072C601.549 19.7093 601.426 19.4053 601.181 19.16C600.946 18.904 600.642 18.776 600.269 18.776C599.895 18.776 599.586 18.904 599.341 19.16C599.106 19.4053 598.989 19.7093 598.989 20.072ZM599.261 27.864L598.493 27.416L605.933 19.096L606.717 19.528L599.261 27.864ZM607.629 26.712C607.629 27.4053 607.389 27.992 606.909 28.472C606.429 28.952 605.826 29.192 605.101 29.192C604.375 29.192 603.773 28.952 603.293 28.472C602.813 27.992 602.573 27.4053 602.573 26.712C602.573 26.0187 602.813 25.432 603.293 24.952C603.773 24.472 604.375 24.232 605.101 24.232C605.826 24.232 606.429 24.472 606.909 24.952C607.389 25.432 607.629 26.0187 607.629 26.712ZM604.173 27.64C604.418 27.8853 604.727 28.008 605.101 28.008C605.463 28.008 605.767 27.8853 606.013 27.64C606.258 27.384 606.381 27.0747 606.381 26.712C606.381 26.3493 606.258 26.0453 606.013 25.8C605.778 25.544 605.474 25.416 605.101 25.416C604.727 25.416 604.418 25.544 604.173 25.8C603.938 26.0453 603.821 26.3493 603.821 26.712C603.821 27.0747 603.938 27.384 604.173 27.64Z" fill="#44444E"/>
<defs>
<filter id="filter0_d_123_547" x="0" y="0" width="1003" height="60" filterUnits="userSpaceOnUse" color-interpolation-filters="sRGB">
<feFlood flood-opacity="0" result="BackgroundImageFix"/>
<feColorMatrix in="SourceAlpha" type="matrix" values="0 0 0 0 0 0 0 0 0 0 0 0 0 0 0 0 0 0 127 0" result="hardAlpha"/>
<feOffset dy="6"/>
<feGaussianBlur stdDeviation="7.5"/>
<feComposite in2="hardAlpha" operator="out"/>
<feColorMatrix type="matrix" values="0 0 0 0 0.113056 0 0 0 0 0.184067 0 0 0 0 0.366667 0 0 0 0.05 0"/>
<feBlend mode="normal" in2="BackgroundImageFix" result="effect1_dropShadow_123_547"/>
<feBlend mode="normal" in="SourceGraphic" in2="effect1_dropShadow_123_547" result="shape"/>
</filter>
<linearGradient id="paint0_linear_123_547" x1="227" y1="24" x2="16" y2="24.0001" gradientUnits="userSpaceOnUse">
<stop stop-color="#FFEEB5"/>
<stop offset="1" stop-color="#FF9900"/>
</linearGradient>
</defs>
</svg>
