<svg width="48" height="40" viewBox="0 0 48 40" fill="none" xmlns="http://www.w3.org/2000/svg">
<path d="M46.5948 10.8307C39.8582 9.06513 32.6026 5.37414 25.6125 0.157185C25.5055 0.0773413 25.3792 0.0257839 25.246 0.00746465C25.1127 -0.0108546 24.9769 0.00467976 24.8515 0.052576C17.7024 2.78555 10.4936 3.73266 4.00669 2.79005C3.85593 2.77044 3.70259 2.79386 3.5651 2.8575C3.4276 2.92113 3.3118 3.02229 3.2316 3.1488C3.1514 3.27531 3.11022 3.4218 3.113 3.57067C3.11579 3.71954 3.16241 3.86446 3.24728 3.98802C4.73771 6.0876 6.28042 8.10748 7.87541 10.0477C6.06478 10.071 4.2551 9.95405 2.46329 9.69804C2.31242 9.67798 2.15885 9.70107 2.02109 9.76453C1.88333 9.82799 1.76725 9.9291 1.68686 10.0557C1.60647 10.1823 1.56519 10.3289 1.56801 10.4779C1.57082 10.627 1.6176 10.772 1.70272 10.8956C2.92717 12.6199 4.19699 14.2765 5.49016 15.8962C3.95119 15.8818 2.41495 15.7658 0.891918 15.5491C0.741262 15.5299 0.588139 15.5536 0.450907 15.6174C0.313676 15.6812 0.19816 15.7825 0.118208 15.9089C0.0382565 16.0354 -0.00273713 16.1818 0.000141867 16.3305C0.00302086 16.4792 0.0496503 16.624 0.13444 16.7474C6.04888 25.2101 13.2742 32.7188 21.5502 39.0034C21.6572 39.0834 21.7835 39.1351 21.9169 39.1534C22.0503 39.1717 22.1862 39.1561 22.3116 39.108C30.4229 35.8905 37.751 31.0366 43.819 24.8623C43.913 24.7659 43.9799 24.6473 44.0133 24.5181C44.0467 24.3888 44.0454 24.2533 44.0096 24.1247C43.9737 23.9961 43.9046 23.8788 43.8088 23.7841C43.7129 23.6893 43.5938 23.6205 43.4628 23.5841C42.6833 23.3783 41.9232 23.1488 41.1755 22.9094C42.6318 21.6807 44.0437 20.3837 45.4114 19.0184C45.5071 18.9225 45.5754 18.8037 45.6097 18.6739C45.644 18.5441 45.6429 18.4078 45.6067 18.2785C45.5704 18.1492 45.5002 18.0315 45.4031 17.937C45.306 17.8425 45.1852 17.7745 45.053 17.7399C44.0062 17.4661 42.9209 17.1195 41.8245 16.7406C43.614 15.2841 45.3256 13.7383 46.9525 12.1093C47.0467 12.0128 47.1137 11.8941 47.1472 11.7647C47.1806 11.6353 47.1792 11.4997 47.1432 11.3709C47.1072 11.2422 47.0377 11.1248 46.9416 11.0302C46.8455 10.9355 46.7261 10.8668 46.5948 10.8307ZM41.7624 24.7067C36.1459 30.1944 29.4822 34.5476 22.1504 37.5186C14.6111 31.7438 7.97084 24.9251 2.43839 17.2772C3.85701 17.4036 5.2819 17.4495 6.70593 17.4146C11.5224 23.282 17.0348 28.5676 23.1269 33.1598C23.2339 33.2398 23.3601 33.2914 23.4934 33.3098C23.6267 33.3282 23.7625 33.3127 23.8879 33.2648C29.6366 31.0201 34.9946 27.9155 39.7707 24.0619C40.4222 24.2861 41.0813 24.5064 41.7624 24.7067ZM43.3552 18.8632C37.7366 24.3557 31.0667 28.7095 23.7275 31.6754C16.185 25.9007 9.54244 19.0805 4.00937 11.4299C5.71639 11.5845 7.43218 11.6253 9.14485 11.5519C13.7399 17.0065 18.9482 21.9367 24.6711 26.2493C24.7781 26.3291 24.9043 26.3806 25.0375 26.3989C25.1707 26.4172 25.3064 26.4017 25.4317 26.3539C30.8136 24.2559 35.8533 21.3988 40.3907 17.8731C41.3912 18.2404 42.3841 18.5764 43.3552 18.8632ZM25.2709 24.7644C17.7315 18.9869 11.0894 12.1678 5.5524 4.52079C12.1785 5.02905 18.8354 4.04292 25.0112 1.63822C31.6115 6.51138 38.45 10.0565 44.8955 11.9541C39.2764 17.444 32.608 21.797 25.2709 24.7644Z" fill="white"/>
<path d="M28.9812 11.9897C28.9929 11.8549 28.968 11.7194 28.909 11.597C28.8501 11.4746 28.7591 11.3696 28.6453 11.2927C26.1206 9.57894 23.6936 7.73107 21.3753 5.75737C21.2762 5.67364 21.1573 5.61541 21.0295 5.58791C20.9017 5.56042 20.7688 5.56453 20.643 5.59989C17.391 6.53754 14.0365 7.09287 10.6503 7.25415C10.5043 7.26245 10.3636 7.31025 10.2437 7.39224C10.1238 7.47424 10.0296 7.58719 9.97142 7.71854C9.91326 7.84988 9.89348 7.99445 9.91429 8.13615C9.9351 8.27785 9.99568 8.41111 10.0893 8.5211C12.3572 11.114 14.7602 13.5908 17.2885 15.9416C17.3814 16.0278 17.4944 16.0904 17.6177 16.1241C17.741 16.1578 17.8708 16.1614 17.9959 16.1347C21.6275 15.343 25.1598 14.1648 28.5297 12.6211C28.6551 12.5641 28.7629 12.4757 28.8422 12.3648C28.9214 12.2539 28.9694 12.1245 28.9812 11.9897ZM18.0655 14.5457C16.0993 12.7051 14.1721 10.7408 12.3181 8.68831C15.1439 8.44829 17.94 7.94649 20.669 7.18965C22.6157 8.82704 24.6118 10.3651 26.6217 11.776C23.8625 12.9543 20.9984 13.8815 18.0655 14.5457H18.0655Z" fill="white"/>
<path d="M19.8255 8.43523C19.5246 8.97403 19.2255 9.49415 18.925 10.0265C17.7008 9.80866 16.4839 9.54742 15.2842 9.22374C15.1848 9.19664 15.0809 9.189 14.9785 9.20126C14.8761 9.21353 14.7772 9.24545 14.6874 9.29521C14.5976 9.34496 14.5188 9.41157 14.4553 9.49121C14.3919 9.57086 14.3451 9.66198 14.3177 9.75935C14.2903 9.85672 14.2828 9.95843 14.2956 10.0586C14.3084 10.1589 14.3413 10.2556 14.3924 10.3434C14.4434 10.4311 14.5117 10.5082 14.5932 10.57C14.6748 10.6319 14.768 10.6775 14.8675 10.704C15.9422 10.9941 17.0316 11.23 18.126 11.4382C17.9138 11.811 17.7003 12.1949 17.4886 12.5645C17.4231 12.6815 17.3896 12.8131 17.3915 12.9465C17.3934 13.0799 17.4306 13.2106 17.4994 13.3257C17.5682 13.4409 17.6663 13.5367 17.7842 13.6037C17.902 13.6707 18.0356 13.7066 18.1719 13.7081C19.0848 13.6218 19.2628 12.3445 19.7594 11.7209C21.0535 11.9156 22.3534 12.0699 23.6561 12.1449C23.8599 12.1451 24.0558 12.0675 24.2022 11.9287C24.3486 11.7899 24.4341 11.6007 24.4405 11.4013C24.4469 11.2018 24.3738 11.0078 24.2366 10.8602C24.0994 10.7126 23.9089 10.6231 23.7055 10.6107C22.6592 10.5451 21.6147 10.4269 20.5731 10.2833C20.8815 9.63566 21.8159 8.68265 20.8902 8.13001C20.7077 8.03241 20.493 8.00973 20.2934 8.06696C20.0938 8.12419 19.9255 8.25664 19.8255 8.43523ZM24.1448 7.06406C24.2195 7.25406 24.3682 7.40728 24.5582 7.49009C24.7482 7.5729 24.9639 7.57853 25.1582 7.50574C25.9781 7.19753 26.8138 6.85933 27.6418 6.50089C27.7363 6.46025 27.8216 6.40176 27.893 6.32877C27.9643 6.25578 28.0203 6.16973 28.0576 6.07554C28.0949 5.98135 28.1129 5.88088 28.1105 5.77987C28.1081 5.67887 28.0853 5.57933 28.0436 5.48694C28.0018 5.39456 27.9418 5.31115 27.8671 5.24149C27.7923 5.17184 27.7043 5.11731 27.608 5.08102C27.5117 5.04474 27.409 5.02742 27.3058 5.03005C27.2027 5.03267 27.1011 5.05521 27.0068 5.09635C26.2029 5.44467 25.3918 5.77275 24.5959 6.07195C24.4017 6.14495 24.2451 6.29048 24.1605 6.47654C24.0759 6.66259 24.0703 6.87392 24.1448 7.06406ZM26.7843 8.9969C27.4388 10.1096 28.8175 8.78099 29.6773 8.53061C29.8635 8.44037 30.0054 8.28155 30.0721 8.08899C30.1388 7.89643 30.1248 7.68584 30.0331 7.50338C29.9415 7.32092 29.7797 7.18149 29.5832 7.11565C29.3867 7.04982 29.1715 7.06295 28.9849 7.15217C28.2672 7.66522 26.3587 7.81767 26.7843 8.9969ZM29.4173 10.767C29.9881 11.7118 31.01 10.76 31.7048 10.4648C31.7954 10.4168 31.8754 10.3518 31.9402 10.2735C32.0051 10.1951 32.0536 10.1051 32.0829 10.0084C32.1122 9.91175 32.1218 9.81038 32.111 9.7101C32.1003 9.60982 32.0695 9.51259 32.0204 9.42396C31.4457 8.50096 30.4472 9.46094 29.7581 9.73365C29.6664 9.77959 29.5849 9.84276 29.5181 9.91955C29.4514 9.99635 29.4007 10.0853 29.3691 10.1812C29.3374 10.2772 29.3254 10.3783 29.3337 10.4788C29.3419 10.5793 29.3703 10.6773 29.4173 10.767ZM31.4191 13.8948C31.3221 13.7147 31.1559 13.5796 30.9572 13.5194C30.7585 13.4591 30.5435 13.4786 30.3594 13.5735C27.4742 15.0702 24.452 16.2989 21.3326 17.2434C21.2338 17.2728 21.142 17.3209 21.0623 17.385C20.9826 17.4492 20.9166 17.5281 20.8681 17.6172C20.8196 17.7064 20.7895 17.804 20.7796 17.9046C20.7697 18.0051 20.7802 18.1066 20.8104 18.2032C20.8407 18.2997 20.8901 18.3895 20.9558 18.4674C21.0215 18.5452 21.1023 18.6096 21.1935 18.6569C21.2847 18.7041 21.3845 18.7333 21.4872 18.7427C21.59 18.7521 21.6936 18.7416 21.7921 18.7117C25.0055 17.7389 28.1186 16.4736 31.0909 14.9323C31.2749 14.8373 31.4129 14.6746 31.4744 14.4801C31.536 14.2855 31.5161 14.075 31.4191 13.8948ZM31.6432 16.4437C29.3245 17.7195 26.9131 18.8267 24.4286 19.7564C24.2382 19.8316 24.0855 19.9769 24.0034 20.1611C23.9212 20.3453 23.916 20.5537 23.989 20.7415C24.062 20.9294 24.2073 21.0817 24.3938 21.1659C24.5802 21.25 24.7929 21.2593 24.9862 21.1916C27.5427 20.2352 30.0239 19.0962 32.4099 17.7837C32.591 17.684 32.7243 17.518 32.7805 17.3221C32.8368 17.1262 32.8113 16.9165 32.7097 16.739C32.6082 16.5615 32.4388 16.4307 32.2388 16.3754C32.0389 16.32 31.8246 16.3446 31.6432 16.4437V16.4437Z" fill="white"/>
</svg>
