<svg width="102" height="84" viewBox="0 0 102 84" fill="none" xmlns="http://www.w3.org/2000/svg">
<path d="M50.996 83.1236L19.1442 65.876L19.7185 57.8102H3.51339L1 40.7986H20.9266L21.6903 30.0022L29.5578 25.7431L30.3593 18.7276L37.3896 12.6425L40.8314 15.6102L41.6011 9.13231L51.4959 1L61.3878 9.13231L62.1962 15.8681L65.8433 12.7179L72.8796 18.805L73.7475 26.4543L80.3027 30.0032L81.0724 40.7996H101L98.4777 57.8121H82.2736L82.8459 65.877L50.996 83.1236Z" fill="white"/>
<path d="M50.996 83.1236L19.1442 65.876L19.7185 57.8102H3.51339L1 40.7986H20.9266L21.6903 30.0022L29.5578 25.7431L30.3593 18.7276L37.3896 12.6425L40.8314 15.6102L41.6011 9.13231L51.4959 1L61.3878 9.13231L62.1962 15.8681L65.8433 12.7179L72.8796 18.805L73.7475 26.4543L80.3027 30.0032L81.0724 40.7996H101L98.4777 57.8121H82.2736L82.8459 65.877L50.996 83.1236Z" fill="white"/>
<path d="M50.996 83.1236L19.1442 65.876L19.7185 57.8102H3.51339L1 40.7986H20.9266L21.6903 30.0022L29.5578 25.7431L30.3593 18.7276L37.3896 12.6425L40.8314 15.6102L41.6011 9.13232L51.4959 1L61.3878 9.13232L62.1962 15.8681L65.8433 12.7179L72.8796 18.805L73.7475 26.4543L80.3027 30.0032L81.0724 40.7996H101L98.4777 57.8121H82.2736L82.8459 65.877L50.996 83.1236Z" stroke="#151616" stroke-width="1.5001"/>
<path d="M50.996 83.1236L19.1442 65.876L19.7185 57.8102H3.51339L1 40.7986H20.9266L21.6903 30.0022L29.5578 25.7431L30.3593 18.7276L37.3896 12.6425L40.8314 15.6102L41.6011 9.13231L51.4959 1L61.3878 9.13231L62.1962 15.8681L65.8433 12.7179L72.8796 18.805L73.7475 26.4543L80.3027 30.0032L81.0724 40.7996H101L98.4777 57.8121H82.2736L82.8459 65.877L50.996 83.1236Z" fill="white"/>
<path d="M50.996 83.1236L19.1442 65.876L19.7185 57.8102H3.51339L1 40.7986H20.9266L21.6903 30.0022L29.5578 25.7431L30.3593 18.7276L37.3896 12.6425L40.8314 15.6102L41.6011 9.13232L51.4959 1L61.3878 9.13232L62.1962 15.8681L65.8433 12.7179L72.8796 18.805L73.7475 26.4543L80.3027 30.0032L81.0724 40.7996H101L98.4777 57.8121H82.2736L82.8459 65.877L50.996 83.1236Z" stroke="#151616" stroke-width="1.5001"/>
<path d="M63.3586 66.9641H38.6879V68.5313H63.3586V66.9641Z" fill="#FBCF2D"/>
<path d="M50.996 83.1236L19.1442 65.876L19.7185 57.8102H3.51339L1 40.7986H20.9266L21.6903 30.0022L29.5578 25.7431L30.3593 18.7276L37.3896 12.6425L40.8314 15.6102L41.6011 9.13231L51.4959 1L61.3878 9.13231L62.1962 15.8681L65.8433 12.7179L72.8796 18.805L73.7475 26.4543L80.3027 30.0032L81.0724 40.7996H101L98.4777 57.8121H82.2736L82.8459 65.877L50.996 83.1236Z" fill="white"/>
<path d="M50.996 83.1236L19.1442 65.876L19.7185 57.8102H3.51339L1 40.7986H20.9266L21.6903 30.0022L29.5578 25.7431L30.3593 18.7276L37.3896 12.6425L40.8314 15.6102L41.6011 9.13232L51.4959 1L61.3878 9.13232L62.1962 15.8681L65.8433 12.7179L72.8796 18.805L73.7475 26.4543L80.3027 30.0032L81.0724 40.7996H101L98.4777 57.8121H82.2736L82.8459 65.877L50.996 83.1236Z" stroke="#151616" stroke-width="1.5001"/>
<path d="M63.3586 66.9641H38.6879V68.5313H63.3586V66.9641Z" fill="#FBCF2D"/>
<path d="M38.067 28.4618L31.9502 31.7151L32.8954 21.1518L37.4551 17.5741L43.2089 21.8242L43.5878 25.7134L38.067 28.4618ZM36.6477 28.1375L33.0908 30.0319L33.8833 21.6735L36.8371 18.8645L36.6477 28.1375Z" fill="#151616"/>
<path d="M50.996 83.1236L19.1442 65.876L19.7185 57.8102H3.51339L1 40.7986H20.9266L21.6903 30.0022L29.5578 25.7431L30.3593 18.7276L37.3896 12.6425L40.8314 15.6102L41.6011 9.13231L51.4959 1L61.3878 9.13231L62.1962 15.8681L65.8433 12.7179L72.8796 18.805L73.7475 26.4543L80.3027 30.0032L81.0724 40.7996H101L98.4777 57.8121H82.2736L82.8459 65.877L50.996 83.1236Z" fill="white"/>
<path d="M50.996 83.1236L19.1442 65.876L19.7185 57.8102H3.51339L1 40.7986H20.9266L21.6903 30.0022L29.5578 25.7431L30.3593 18.7276L37.3896 12.6425L40.8314 15.6102L41.6011 9.13232L51.4959 1L61.3878 9.13232L62.1962 15.8681L65.8433 12.7179L72.8796 18.805L73.7475 26.4543L80.3027 30.0032L81.0724 40.7996H101L98.4777 57.8121H82.2736L82.8459 65.877L50.996 83.1236Z" stroke="#151616" stroke-width="1.5001"/>
<path d="M63.3586 66.9641H38.6879V68.5313H63.3586V66.9641Z" fill="#FBCF2D"/>
<path d="M38.067 28.4618L31.9502 31.7151L32.8954 21.1518L37.4551 17.5741L43.2089 21.8242L43.5878 25.7134L38.067 28.4618ZM36.6477 28.1375L33.0908 30.0319L33.8833 21.6735L36.8371 18.8645L36.6477 28.1375Z" fill="#151616"/>
<path d="M65.6131 29.0133L60.2134 26.854L60.7718 20.4654L65.3255 16.8857L71.0783 21.1379L72.0682 31.241L65.6131 29.0133ZM64.5191 27.4422L61.362 25.1629L61.7547 20.9792L64.7085 18.1762L64.5191 27.4422Z" fill="#151616"/>
<path d="M50.996 83.1236L19.1442 65.876L19.7185 57.8102H3.51339L1 40.7986H20.9266L21.6903 30.0022L29.5578 25.7431L30.3593 18.7276L37.3896 12.6425L40.8314 15.6102L41.6011 9.13231L51.4959 1L61.3878 9.13231L62.1962 15.8681L65.8433 12.7179L72.8796 18.805L73.7475 26.4543L80.3027 30.0032L81.0724 40.7996H101L98.4777 57.8121H82.2736L82.8459 65.877L50.996 83.1236Z" fill="white"/>
<path d="M50.996 83.1236L19.1442 65.876L19.7185 57.8102H3.51339L1 40.7986H20.9266L21.6903 30.0022L29.5578 25.7431L30.3593 18.7276L37.3896 12.6425L40.8314 15.6102L41.6011 9.13232L51.4959 1L61.3878 9.13232L62.1962 15.8681L65.8433 12.7179L72.8796 18.805L73.7475 26.4543L80.3027 30.0032L81.0724 40.7996H101L98.4777 57.8121H82.2736L82.8459 65.877L50.996 83.1236Z" stroke="#151616" stroke-width="1.5001"/>
<path d="M63.3586 66.9641H38.6879V68.5313H63.3586V66.9641Z" fill="#FBCF2D"/>
<path d="M38.067 28.4618L31.9502 31.7151L32.8954 21.1518L37.4551 17.5741L43.2089 21.8242L43.5878 25.7134L38.067 28.4618ZM36.6477 28.1375L33.0908 30.0319L33.8833 21.6735L36.8371 18.8645L36.6477 28.1375Z" fill="#151616"/>
<path d="M65.6131 29.0133L60.2134 26.854L60.7718 20.4654L65.3255 16.8857L71.0783 21.1379L72.0682 31.241L65.6131 29.0133ZM64.5191 27.4422L61.362 25.1629L61.7547 20.9792L64.7085 18.1762L64.5191 27.4422Z" fill="#151616"/>
<path d="M51.5068 22.949L43.2783 25.8175L44.6302 10.8076L51.1012 5.71832L59.2712 11.7588L60.6836 26.121L51.5068 22.949ZM49.9536 20.7233L44.907 23.4172L46.0268 11.5406L50.2224 7.56022L49.9536 20.7233Z" fill="#151616"/>
<path d="M50.996 83.1236L19.1442 65.876L19.7185 57.8102H3.51339L1 40.7986H20.9266L21.6903 30.0022L29.5578 25.7431L30.3593 18.7276L37.3896 12.6425L40.8314 15.6102L41.6011 9.13231L51.4959 1L61.3878 9.13231L62.1962 15.8681L65.8433 12.7179L72.8796 18.805L73.7475 26.4543L80.3027 30.0032L81.0724 40.7996H101L98.4777 57.8121H82.2736L82.8459 65.877L50.996 83.1236Z" fill="white"/>
<path d="M50.996 83.1236L19.1442 65.876L19.7185 57.8102H3.51339L1 40.7986H20.9266L21.6903 30.0022L29.5578 25.7431L30.3593 18.7276L37.3896 12.6425L40.8314 15.6102L41.6011 9.13232L51.4959 1L61.3878 9.13232L62.1962 15.8681L65.8433 12.7179L72.8796 18.805L73.7475 26.4543L80.3027 30.0032L81.0724 40.7996H101L98.4777 57.8121H82.2736L82.8459 65.877L50.996 83.1236Z" stroke="#151616" stroke-width="1.5001"/>
<path d="M63.3586 66.9641H38.6879V68.5313H63.3586V66.9641Z" fill="#FBCF2D"/>
<path d="M38.067 28.4618L31.9502 31.7151L32.8954 21.1518L37.4551 17.5741L43.2089 21.8242L43.5878 25.7134L38.067 28.4618ZM36.6477 28.1375L33.0908 30.0319L33.8833 21.6735L36.8371 18.8645L36.6477 28.1375Z" fill="#151616"/>
<path d="M65.6131 29.0133L60.2134 26.854L60.7718 20.4654L65.3255 16.8857L71.0783 21.1379L72.0682 31.241L65.6131 29.0133ZM64.5191 27.4422L61.362 25.1629L61.7547 20.9792L64.7085 18.1762L64.5191 27.4422Z" fill="#151616"/>
<path d="M51.5068 22.949L43.2783 25.8175L44.6302 10.8076L51.1012 5.71832L59.2712 11.7588L60.6836 26.121L51.5068 22.949ZM49.9536 20.7233L44.907 23.4172L46.0268 11.5406L50.2224 7.56022L49.9536 20.7233Z" fill="#151616"/>
<path d="M52.3539 20.9484L76.2004 32.0633L77.1506 42.9818H71.9939L75.0082 41.9026L74.2593 33.3993L51.487 22.7824L29.1502 33.197L28.2357 41.9026L31.1597 42.9818H26.0695L27.2339 31.8451L51.488 20.5487L52.3539 20.9484Z" fill="#151616"/>
<path d="M50.996 83.1236L19.1442 65.876L19.7185 57.8102H3.51339L1 40.7986H20.9266L21.6903 30.0022L29.5578 25.7431L30.3593 18.7276L37.3896 12.6425L40.8314 15.6102L41.6011 9.13231L51.4959 1L61.3878 9.13231L62.1962 15.8681L65.8433 12.7179L72.8796 18.805L73.7475 26.4543L80.3027 30.0032L81.0724 40.7996H101L98.4777 57.8121H82.2736L82.8459 65.877L50.996 83.1236Z" fill="white"/>
<path d="M50.996 83.1236L19.1442 65.876L19.7185 57.8102H3.51339L1 40.7986H20.9266L21.6903 30.0022L29.5578 25.7431L30.3593 18.7276L37.3896 12.6425L40.8314 15.6102L41.6011 9.13232L51.4959 1L61.3878 9.13232L62.1962 15.8681L65.8433 12.7179L72.8796 18.805L73.7475 26.4543L80.3027 30.0032L81.0724 40.7996H101L98.4777 57.8121H82.2736L82.8459 65.877L50.996 83.1236Z" stroke="#151616" stroke-width="1.5001"/>
<path d="M63.3586 66.9641H38.6879V68.5313H63.3586V66.9641Z" fill="#FBCF2D"/>
<path d="M38.067 28.4618L31.9502 31.7151L32.8954 21.1518L37.4551 17.5741L43.2089 21.8242L43.5878 25.7134L38.067 28.4618ZM36.6477 28.1375L33.0908 30.0319L33.8833 21.6735L36.8371 18.8645L36.6477 28.1375Z" fill="#151616"/>
<path d="M65.6131 29.0133L60.2134 26.854L60.7718 20.4654L65.3255 16.8857L71.0783 21.1379L72.0682 31.241L65.6131 29.0133ZM64.5191 27.4422L61.362 25.1629L61.7547 20.9792L64.7085 18.1762L64.5191 27.4422Z" fill="#151616"/>
<path d="M51.5068 22.949L43.2783 25.8175L44.6302 10.8076L51.1012 5.71832L59.2712 11.7588L60.6836 26.121L51.5068 22.949ZM49.9536 20.7233L44.907 23.4172L46.0268 11.5406L50.2224 7.56022L49.9536 20.7233Z" fill="#151616"/>
<path d="M52.3539 20.9484L76.2004 32.0633L77.1506 42.9818H71.9939L75.0082 41.9026L74.2593 33.3993L51.487 22.7824L29.1502 33.197L28.2357 41.9026L31.1597 42.9818H26.0695L27.2339 31.8451L51.488 20.5487L52.3539 20.9484Z" fill="#151616"/>
<path d="M50.4575 22.1932C50.4575 21.9601 50.9197 21.7637 51.4861 21.7637C52.0535 21.7637 52.5127 21.9591 52.5127 22.1932V36.5277C52.5127 36.8143 52.0971 36.9333 51.6448 36.9413C51.0864 36.9562 50.4565 36.7905 50.4565 36.5277L50.4575 22.1932Z" fill="#151616"/>
<path d="M50.996 83.1236L19.1442 65.876L19.7185 57.8102H3.51339L1 40.7986H20.9266L21.6903 30.0022L29.5578 25.7431L30.3593 18.7276L37.3896 12.6425L40.8314 15.6102L41.6011 9.13231L51.4959 1L61.3878 9.13231L62.1962 15.8681L65.8433 12.7179L72.8796 18.805L73.7475 26.4543L80.3027 30.0032L81.0724 40.7996H101L98.4777 57.8121H82.2736L82.8459 65.877L50.996 83.1236Z" fill="white"/>
<path d="M50.996 83.1236L19.1442 65.876L19.7185 57.8102H3.51339L1 40.7986H20.9266L21.6903 30.0022L29.5578 25.7431L30.3593 18.7276L37.3896 12.6425L40.8314 15.6102L41.6011 9.13232L51.4959 1L61.3878 9.13232L62.1962 15.8681L65.8433 12.7179L72.8796 18.805L73.7475 26.4543L80.3027 30.0032L81.0724 40.7996H101L98.4777 57.8121H82.2736L82.8459 65.877L50.996 83.1236Z" stroke="#151616" stroke-width="1.5001"/>
<path d="M63.3586 66.9641H38.6879V68.5313H63.3586V66.9641Z" fill="#FBCF2D"/>
<path d="M38.067 28.4618L31.9502 31.7151L32.8954 21.1518L37.4551 17.5741L43.2089 21.8242L43.5878 25.7134L38.067 28.4618ZM36.6477 28.1375L33.0908 30.0319L33.8833 21.6735L36.8371 18.8645L36.6477 28.1375Z" fill="#151616"/>
<path d="M65.6131 29.0133L60.2134 26.854L60.7718 20.4654L65.3255 16.8857L71.0783 21.1379L72.0682 31.241L65.6131 29.0133ZM64.5191 27.4422L61.362 25.1629L61.7547 20.9792L64.7085 18.1762L64.5191 27.4422Z" fill="#151616"/>
<path d="M51.5068 22.949L43.2783 25.8175L44.6302 10.8076L51.1012 5.71832L59.2712 11.7588L60.6836 26.121L51.5068 22.949ZM49.9536 20.7233L44.907 23.4172L46.0268 11.5406L50.2224 7.56022L49.9536 20.7233Z" fill="#151616"/>
<path d="M52.3539 20.9484L76.2004 32.0633L77.1506 42.9818H71.9939L75.0082 41.9026L74.2593 33.3993L51.487 22.7824L29.1502 33.197L28.2357 41.9026L31.1597 42.9818H26.0695L27.2339 31.8451L51.488 20.5487L52.3539 20.9484Z" fill="#151616"/>
<path d="M50.4575 22.1932C50.4575 21.9601 50.9197 21.7637 51.4861 21.7637C52.0535 21.7637 52.5127 21.9591 52.5127 22.1932V36.5277C52.5127 36.8143 52.0971 36.9333 51.6448 36.9413C51.0864 36.9562 50.4565 36.7905 50.4565 36.5277L50.4575 22.1932Z" fill="#151616"/>
<path d="M51.6824 35.4773L55.3285 37.7348L51.6824 36.9046V35.4773Z" fill="#151616"/>
<path d="M50.996 83.1236L19.1442 65.876L19.7185 57.8102H3.51339L1 40.7986H20.9266L21.6903 30.0022L29.5578 25.7431L30.3593 18.7276L37.3896 12.6425L40.8314 15.6102L41.6011 9.13231L51.4959 1L61.3878 9.13231L62.1962 15.8681L65.8433 12.7179L72.8796 18.805L73.7475 26.4543L80.3027 30.0032L81.0724 40.7996H101L98.4777 57.8121H82.2736L82.8459 65.877L50.996 83.1236Z" fill="white"/>
<path d="M50.996 83.1236L19.1442 65.876L19.7185 57.8102H3.51339L1 40.7986H20.9266L21.6903 30.0022L29.5578 25.7431L30.3593 18.7276L37.3896 12.6425L40.8314 15.6102L41.6011 9.13232L51.4959 1L61.3878 9.13232L62.1962 15.8681L65.8433 12.7179L72.8796 18.805L73.7475 26.4543L80.3027 30.0032L81.0724 40.7996H101L98.4777 57.8121H82.2736L82.8459 65.877L50.996 83.1236Z" stroke="#151616" stroke-width="1.5001"/>
<path d="M63.3586 66.9641H38.6879V68.5313H63.3586V66.9641Z" fill="#FBCF2D"/>
<path d="M38.067 28.4618L31.9502 31.7151L32.8954 21.1518L37.4551 17.5741L43.2089 21.8242L43.5878 25.7134L38.067 28.4618ZM36.6477 28.1375L33.0908 30.0319L33.8833 21.6735L36.8371 18.8645L36.6477 28.1375Z" fill="#151616"/>
<path d="M65.6131 29.0133L60.2134 26.854L60.7718 20.4654L65.3255 16.8857L71.0783 21.1379L72.0682 31.241L65.6131 29.0133ZM64.5191 27.4422L61.362 25.1629L61.7547 20.9792L64.7085 18.1762L64.5191 27.4422Z" fill="#151616"/>
<path d="M51.5068 22.949L43.2783 25.8175L44.6302 10.8076L51.1012 5.71832L59.2712 11.7588L60.6836 26.121L51.5068 22.949ZM49.9536 20.7233L44.907 23.4172L46.0268 11.5406L50.2224 7.56022L49.9536 20.7233Z" fill="#151616"/>
<path d="M52.3539 20.9484L76.2004 32.0633L77.1506 42.9818H71.9939L75.0082 41.9026L74.2593 33.3993L51.487 22.7824L29.1502 33.197L28.2357 41.9026L31.1597 42.9818H26.0695L27.2339 31.8451L51.488 20.5487L52.3539 20.9484Z" fill="#151616"/>
<path d="M50.4575 22.1932C50.4575 21.9601 50.9197 21.7637 51.4861 21.7637C52.0535 21.7637 52.5127 21.9591 52.5127 22.1932V36.5277C52.5127 36.8143 52.0971 36.9333 51.6448 36.9413C51.0864 36.9562 50.4565 36.7905 50.4565 36.5277L50.4575 22.1932Z" fill="#151616"/>
<path d="M51.6824 35.4773L55.3285 37.7348L51.6824 36.9046V35.4773Z" fill="#151616"/>
<path d="M30.5081 34.9328L33.6493 34.6015V38.4827L30.5081 38.807V34.9328ZM44.658 33.4529L47.7983 33.1286V37.0018L44.658 37.3321V33.4529ZM39.9397 33.9439L43.081 33.6196V37.4928L39.9397 37.8241V33.9439ZM35.2214 34.4329L38.3706 34.1105V37.9838L35.2214 38.3151V34.4329Z" fill="#FCBD00"/>
<path d="M50.996 83.1236L19.1442 65.876L19.7185 57.8102H3.51339L1 40.7986H20.9266L21.6903 30.0022L29.5578 25.7431L30.3593 18.7276L37.3896 12.6425L40.8314 15.6102L41.6011 9.13231L51.4959 1L61.3878 9.13231L62.1962 15.8681L65.8433 12.7179L72.8796 18.805L73.7475 26.4543L80.3027 30.0032L81.0724 40.7996H101L98.4777 57.8121H82.2736L82.8459 65.877L50.996 83.1236Z" fill="white"/>
<path d="M50.996 83.1236L19.1442 65.876L19.7185 57.8102H3.51339L1 40.7986H20.9266L21.6903 30.0022L29.5578 25.7431L30.3593 18.7276L37.3896 12.6425L40.8314 15.6102L41.6011 9.13232L51.4959 1L61.3878 9.13232L62.1962 15.8681L65.8433 12.7179L72.8796 18.805L73.7475 26.4543L80.3027 30.0032L81.0724 40.7996H101L98.4777 57.8121H82.2736L82.8459 65.877L50.996 83.1236Z" stroke="#151616" stroke-width="1.5001"/>
<path d="M63.3586 66.9641H38.6879V68.5313H63.3586V66.9641Z" fill="#FBCF2D"/>
<path d="M38.067 28.4618L31.9502 31.7151L32.8954 21.1518L37.4551 17.5741L43.2089 21.8242L43.5878 25.7134L38.067 28.4618ZM36.6477 28.1375L33.0908 30.0319L33.8833 21.6735L36.8371 18.8645L36.6477 28.1375Z" fill="#151616"/>
<path d="M65.6131 29.0133L60.2134 26.854L60.7718 20.4654L65.3255 16.8857L71.0783 21.1379L72.0682 31.241L65.6131 29.0133ZM64.5191 27.4422L61.362 25.1629L61.7547 20.9792L64.7085 18.1762L64.5191 27.4422Z" fill="#151616"/>
<path d="M51.5068 22.949L43.2783 25.8175L44.6302 10.8076L51.1012 5.71832L59.2712 11.7588L60.6836 26.121L51.5068 22.949ZM49.9536 20.7233L44.907 23.4172L46.0268 11.5406L50.2224 7.56022L49.9536 20.7233Z" fill="#151616"/>
<path d="M52.3539 20.9484L76.2004 32.0633L77.1506 42.9818H71.9939L75.0082 41.9026L74.2593 33.3993L51.487 22.7824L29.1502 33.197L28.2357 41.9026L31.1597 42.9818H26.0695L27.2339 31.8451L51.488 20.5487L52.3539 20.9484Z" fill="#151616"/>
<path d="M50.4575 22.1932C50.4575 21.9601 50.9197 21.7637 51.4861 21.7637C52.0535 21.7637 52.5127 21.9591 52.5127 22.1932V36.5277C52.5127 36.8143 52.0971 36.9333 51.6448 36.9413C51.0864 36.9562 50.4565 36.7905 50.4565 36.5277L50.4575 22.1932Z" fill="#151616"/>
<path d="M51.6824 35.4773L55.3285 37.7348L51.6824 36.9046V35.4773Z" fill="#151616"/>
<path d="M30.5081 34.9328L33.6493 34.6015V38.4827L30.5081 38.807V34.9328ZM44.658 33.4529L47.7983 33.1286V37.0018L44.658 37.3321V33.4529ZM39.9397 33.9439L43.081 33.6196V37.4928L39.9397 37.8241V33.9439ZM35.2214 34.4329L38.3706 34.1105V37.9838L35.2214 38.3151V34.4329Z" fill="#FCBD00"/>
<path d="M51.5971 35.4773L47.96 37.7348L51.5971 36.9046V35.4773Z" fill="#151616"/>
<path d="M50.996 83.1236L19.1442 65.876L19.7185 57.8102H3.51339L1 40.7986H20.9266L21.6903 30.0022L29.5578 25.7431L30.3593 18.7276L37.3896 12.6425L40.8314 15.6102L41.6011 9.13231L51.4959 1L61.3878 9.13231L62.1962 15.8681L65.8433 12.7179L72.8796 18.805L73.7475 26.4543L80.3027 30.0032L81.0724 40.7996H101L98.4777 57.8121H82.2736L82.8459 65.877L50.996 83.1236Z" fill="white"/>
<path d="M50.996 83.1236L19.1442 65.876L19.7185 57.8102H3.51339L1 40.7986H20.9266L21.6903 30.0022L29.5578 25.7431L30.3593 18.7276L37.3896 12.6425L40.8314 15.6102L41.6011 9.13232L51.4959 1L61.3878 9.13232L62.1962 15.8681L65.8433 12.7179L72.8796 18.805L73.7475 26.4543L80.3027 30.0032L81.0724 40.7996H101L98.4777 57.8121H82.2736L82.8459 65.877L50.996 83.1236Z" stroke="#151616" stroke-width="1.5001"/>
<path d="M63.3586 66.9641H38.6879V68.5313H63.3586V66.9641Z" fill="#FBCF2D"/>
<path d="M38.067 28.4618L31.9502 31.7151L32.8954 21.1518L37.4551 17.5741L43.2089 21.8242L43.5878 25.7134L38.067 28.4618ZM36.6477 28.1375L33.0908 30.0319L33.8833 21.6735L36.8371 18.8645L36.6477 28.1375Z" fill="#151616"/>
<path d="M65.6131 29.0133L60.2134 26.854L60.7718 20.4654L65.3255 16.8857L71.0783 21.1379L72.0682 31.241L65.6131 29.0133ZM64.5191 27.4422L61.362 25.1629L61.7547 20.9792L64.7085 18.1762L64.5191 27.4422Z" fill="#151616"/>
<path d="M51.5068 22.949L43.2783 25.8175L44.6302 10.8076L51.1012 5.71832L59.2712 11.7588L60.6836 26.121L51.5068 22.949ZM49.9536 20.7233L44.907 23.4172L46.0268 11.5406L50.2224 7.56022L49.9536 20.7233Z" fill="#151616"/>
<path d="M52.3539 20.9484L76.2004 32.0633L77.1506 42.9818H71.9939L75.0082 41.9026L74.2593 33.3993L51.487 22.7824L29.1502 33.197L28.2357 41.9026L31.1597 42.9818H26.0695L27.2339 31.8451L51.488 20.5487L52.3539 20.9484Z" fill="#151616"/>
<path d="M50.4575 22.1932C50.4575 21.9601 50.9197 21.7637 51.4861 21.7637C52.0535 21.7637 52.5127 21.9591 52.5127 22.1932V36.5277C52.5127 36.8143 52.0971 36.9333 51.6448 36.9413C51.0864 36.9562 50.4565 36.7905 50.4565 36.5277L50.4575 22.1932Z" fill="#151616"/>
<path d="M51.6824 35.4773L55.3285 37.7348L51.6824 36.9046V35.4773Z" fill="#151616"/>
<path d="M30.5081 34.9328L33.6493 34.6015V38.4827L30.5081 38.807V34.9328ZM44.658 33.4529L47.7983 33.1286V37.0018L44.658 37.3321V33.4529ZM39.9397 33.9439L43.081 33.6196V37.4928L39.9397 37.8241V33.9439ZM35.2214 34.4329L38.3706 34.1105V37.9838L35.2214 38.3151V34.4329Z" fill="#FCBD00"/>
<path d="M51.5971 35.4773L47.96 37.7348L51.5971 36.9046V35.4773Z" fill="#151616"/>
<path d="M44.5925 34.29L45.633 33.9647V29.2613L47.8161 28.4221V27.9619C46.7667 28.3854 45.7163 28.807 44.6659 29.2295L44.5925 34.29Z" fill="#313130"/>
<path d="M50.996 83.1236L19.1442 65.876L19.7185 57.8102H3.51339L1 40.7986H20.9266L21.6903 30.0022L29.5578 25.7431L30.3593 18.7276L37.3896 12.6425L40.8314 15.6102L41.6011 9.13231L51.4959 1L61.3878 9.13231L62.1962 15.8681L65.8433 12.7179L72.8796 18.805L73.7475 26.4543L80.3027 30.0032L81.0724 40.7996H101L98.4777 57.8121H82.2736L82.8459 65.877L50.996 83.1236Z" fill="white"/>
<path d="M50.996 83.1236L19.1442 65.876L19.7185 57.8102H3.51339L1 40.7986H20.9266L21.6903 30.0022L29.5578 25.7431L30.3593 18.7276L37.3896 12.6425L40.8314 15.6102L41.6011 9.13232L51.4959 1L61.3878 9.13232L62.1962 15.8681L65.8433 12.7179L72.8796 18.805L73.7475 26.4543L80.3027 30.0032L81.0724 40.7996H101L98.4777 57.8121H82.2736L82.8459 65.877L50.996 83.1236Z" stroke="#151616" stroke-width="1.5001"/>
<path d="M63.3586 66.9641H38.6879V68.5313H63.3586V66.9641Z" fill="#FBCF2D"/>
<path d="M38.067 28.4618L31.9502 31.7151L32.8954 21.1518L37.4551 17.5741L43.2089 21.8242L43.5878 25.7134L38.067 28.4618ZM36.6477 28.1375L33.0908 30.0319L33.8833 21.6735L36.8371 18.8645L36.6477 28.1375Z" fill="#151616"/>
<path d="M65.6131 29.0133L60.2134 26.854L60.7718 20.4654L65.3255 16.8857L71.0783 21.1379L72.0682 31.241L65.6131 29.0133ZM64.5191 27.4422L61.362 25.1629L61.7547 20.9792L64.7085 18.1762L64.5191 27.4422Z" fill="#151616"/>
<path d="M51.5068 22.949L43.2783 25.8175L44.6302 10.8076L51.1012 5.71832L59.2712 11.7588L60.6836 26.121L51.5068 22.949ZM49.9536 20.7233L44.907 23.4172L46.0268 11.5406L50.2224 7.56022L49.9536 20.7233Z" fill="#151616"/>
<path d="M52.3539 20.9484L76.2004 32.0633L77.1506 42.9818H71.9939L75.0082 41.9026L74.2593 33.3993L51.487 22.7824L29.1502 33.197L28.2357 41.9026L31.1597 42.9818H26.0695L27.2339 31.8451L51.488 20.5487L52.3539 20.9484Z" fill="#151616"/>
<path d="M50.4575 22.1932C50.4575 21.9601 50.9197 21.7637 51.4861 21.7637C52.0535 21.7637 52.5127 21.9591 52.5127 22.1932V36.5277C52.5127 36.8143 52.0971 36.9333 51.6448 36.9413C51.0864 36.9562 50.4565 36.7905 50.4565 36.5277L50.4575 22.1932Z" fill="#151616"/>
<path d="M51.6824 35.4773L55.3285 37.7348L51.6824 36.9046V35.4773Z" fill="#151616"/>
<path d="M30.5081 34.9328L33.6493 34.6015V38.4827L30.5081 38.807V34.9328ZM44.658 33.4529L47.7983 33.1286V37.0018L44.658 37.3321V33.4529ZM39.9397 33.9439L43.081 33.6196V37.4928L39.9397 37.8241V33.9439ZM35.2214 34.4329L38.3706 34.1105V37.9838L35.2214 38.3151V34.4329Z" fill="#FCBD00"/>
<path d="M51.5971 35.4773L47.96 37.7348L51.5971 36.9046V35.4773Z" fill="#151616"/>
<path d="M44.5925 34.29L45.633 33.9647V29.2613L47.8161 28.4221V27.9619C46.7667 28.3854 45.7163 28.807 44.6659 29.2295L44.5925 34.29Z" fill="#313130"/>
<path d="M39.7969 35.8473L40.6568 35.5825L40.7719 31.2034L43.0819 30.3127L43.0889 29.8901C42.1069 30.274 40.9217 30.7421 39.9476 31.1339L39.7969 35.8473Z" fill="#313130"/>
<path d="M50.996 83.1236L19.1442 65.876L19.7185 57.8102H3.51339L1 40.7986H20.9266L21.6903 30.0022L29.5578 25.7431L30.3593 18.7276L37.3896 12.6425L40.8314 15.6102L41.6011 9.13231L51.4959 1L61.3878 9.13231L62.1962 15.8681L65.8433 12.7179L72.8796 18.805L73.7475 26.4543L80.3027 30.0032L81.0724 40.7996H101L98.4777 57.8121H82.2736L82.8459 65.877L50.996 83.1236Z" fill="white"/>
<path d="M50.996 83.1236L19.1442 65.876L19.7185 57.8102H3.51339L1 40.7986H20.9266L21.6903 30.0022L29.5578 25.7431L30.3593 18.7276L37.3896 12.6425L40.8314 15.6102L41.6011 9.13232L51.4959 1L61.3878 9.13232L62.1962 15.8681L65.8433 12.7179L72.8796 18.805L73.7475 26.4543L80.3027 30.0032L81.0724 40.7996H101L98.4777 57.8121H82.2736L82.8459 65.877L50.996 83.1236Z" stroke="#151616" stroke-width="1.5001"/>
<path d="M63.3586 66.9641H38.6879V68.5313H63.3586V66.9641Z" fill="#FBCF2D"/>
<path d="M38.067 28.4618L31.9502 31.7151L32.8954 21.1518L37.4551 17.5741L43.2089 21.8242L43.5878 25.7134L38.067 28.4618ZM36.6477 28.1375L33.0908 30.0319L33.8833 21.6735L36.8371 18.8645L36.6477 28.1375Z" fill="#151616"/>
<path d="M65.6131 29.0133L60.2134 26.854L60.7718 20.4654L65.3255 16.8857L71.0783 21.1379L72.0682 31.241L65.6131 29.0133ZM64.5191 27.4422L61.362 25.1629L61.7547 20.9792L64.7085 18.1762L64.5191 27.4422Z" fill="#151616"/>
<path d="M51.5068 22.949L43.2783 25.8175L44.6302 10.8076L51.1012 5.71832L59.2712 11.7588L60.6836 26.121L51.5068 22.949ZM49.9536 20.7233L44.907 23.4172L46.0268 11.5406L50.2224 7.56022L49.9536 20.7233Z" fill="#151616"/>
<path d="M52.3539 20.9484L76.2004 32.0633L77.1506 42.9818H71.9939L75.0082 41.9026L74.2593 33.3993L51.487 22.7824L29.1502 33.197L28.2357 41.9026L31.1597 42.9818H26.0695L27.2339 31.8451L51.488 20.5487L52.3539 20.9484Z" fill="#151616"/>
<path d="M50.4575 22.1932C50.4575 21.9601 50.9197 21.7637 51.4861 21.7637C52.0535 21.7637 52.5127 21.9591 52.5127 22.1932V36.5277C52.5127 36.8143 52.0971 36.9333 51.6448 36.9413C51.0864 36.9562 50.4565 36.7905 50.4565 36.5277L50.4575 22.1932Z" fill="#151616"/>
<path d="M51.6824 35.4773L55.3285 37.7348L51.6824 36.9046V35.4773Z" fill="#151616"/>
<path d="M30.5081 34.9328L33.6493 34.6015V38.4827L30.5081 38.807V34.9328ZM44.658 33.4529L47.7983 33.1286V37.0018L44.658 37.3321V33.4529ZM39.9397 33.9439L43.081 33.6196V37.4928L39.9397 37.8241V33.9439ZM35.2214 34.4329L38.3706 34.1105V37.9838L35.2214 38.3151V34.4329Z" fill="#FCBD00"/>
<path d="M51.5971 35.4773L47.96 37.7348L51.5971 36.9046V35.4773Z" fill="#151616"/>
<path d="M44.5925 34.29L45.633 33.9647V29.2613L47.8161 28.4221V27.9619C46.7667 28.3854 45.7163 28.807 44.6659 29.2295L44.5925 34.29Z" fill="#313130"/>
<path d="M39.7969 35.8473L40.6568 35.5825L40.7719 31.2034L43.0819 30.3127L43.0889 29.8901C42.1069 30.274 40.9217 30.7421 39.9476 31.1339L39.7969 35.8473Z" fill="#313130"/>
<path d="M35.0012 37.3945L35.7878 37.1525L35.9762 33.0978L38.3706 32.1545L38.3755 31.7617C37.4799 32.1158 36.12 32.6742 35.2284 33.0303L35.0012 37.3945Z" fill="#313130"/>
<path d="M50.996 83.1236L19.1442 65.876L19.7185 57.8102H3.51339L1 40.7986H20.9266L21.6903 30.0022L29.5578 25.7431L30.3593 18.7276L37.3896 12.6425L40.8314 15.6102L41.6011 9.13231L51.4959 1L61.3878 9.13231L62.1962 15.8681L65.8433 12.7179L72.8796 18.805L73.7475 26.4543L80.3027 30.0032L81.0724 40.7996H101L98.4777 57.8121H82.2736L82.8459 65.877L50.996 83.1236Z" fill="white"/>
<path d="M50.996 83.1236L19.1442 65.876L19.7185 57.8102H3.51339L1 40.7986H20.9266L21.6903 30.0022L29.5578 25.7431L30.3593 18.7276L37.3896 12.6425L40.8314 15.6102L41.6011 9.13232L51.4959 1L61.3878 9.13232L62.1962 15.8681L65.8433 12.7179L72.8796 18.805L73.7475 26.4543L80.3027 30.0032L81.0724 40.7996H101L98.4777 57.8121H82.2736L82.8459 65.877L50.996 83.1236Z" stroke="#151616" stroke-width="1.5001"/>
<path d="M63.3586 66.9641H38.6879V68.5313H63.3586V66.9641Z" fill="#FBCF2D"/>
<path d="M38.067 28.4618L31.9502 31.7151L32.8954 21.1518L37.4551 17.5741L43.2089 21.8242L43.5878 25.7134L38.067 28.4618ZM36.6477 28.1375L33.0908 30.0319L33.8833 21.6735L36.8371 18.8645L36.6477 28.1375Z" fill="#151616"/>
<path d="M65.6131 29.0133L60.2134 26.854L60.7718 20.4654L65.3255 16.8857L71.0783 21.1379L72.0682 31.241L65.6131 29.0133ZM64.5191 27.4422L61.362 25.1629L61.7547 20.9792L64.7085 18.1762L64.5191 27.4422Z" fill="#151616"/>
<path d="M51.5068 22.949L43.2783 25.8175L44.6302 10.8076L51.1012 5.71832L59.2712 11.7588L60.6836 26.121L51.5068 22.949ZM49.9536 20.7233L44.907 23.4172L46.0268 11.5406L50.2224 7.56022L49.9536 20.7233Z" fill="#151616"/>
<path d="M52.3539 20.9484L76.2004 32.0633L77.1506 42.9818H71.9939L75.0082 41.9026L74.2593 33.3993L51.487 22.7824L29.1502 33.197L28.2357 41.9026L31.1597 42.9818H26.0695L27.2339 31.8451L51.488 20.5487L52.3539 20.9484Z" fill="#151616"/>
<path d="M50.4575 22.1932C50.4575 21.9601 50.9197 21.7637 51.4861 21.7637C52.0535 21.7637 52.5127 21.9591 52.5127 22.1932V36.5277C52.5127 36.8143 52.0971 36.9333 51.6448 36.9413C51.0864 36.9562 50.4565 36.7905 50.4565 36.5277L50.4575 22.1932Z" fill="#151616"/>
<path d="M51.6824 35.4773L55.3285 37.7348L51.6824 36.9046V35.4773Z" fill="#151616"/>
<path d="M30.5081 34.9328L33.6493 34.6015V38.4827L30.5081 38.807V34.9328ZM44.658 33.4529L47.7983 33.1286V37.0018L44.658 37.3321V33.4529ZM39.9397 33.9439L43.081 33.6196V37.4928L39.9397 37.8241V33.9439ZM35.2214 34.4329L38.3706 34.1105V37.9838L35.2214 38.3151V34.4329Z" fill="#FCBD00"/>
<path d="M51.5971 35.4773L47.96 37.7348L51.5971 36.9046V35.4773Z" fill="#151616"/>
<path d="M44.5925 34.29L45.633 33.9647V29.2613L47.8161 28.4221V27.9619C46.7667 28.3854 45.7163 28.807 44.6659 29.2295L44.5925 34.29Z" fill="#313130"/>
<path d="M39.7969 35.8473L40.6568 35.5825L40.7719 31.2034L43.0819 30.3127L43.0889 29.8901C42.1069 30.274 40.9217 30.7421 39.9476 31.1339L39.7969 35.8473Z" fill="#313130"/>
<path d="M35.0012 37.3945L35.7878 37.1525L35.9762 33.0978L38.3706 32.1545L38.3755 31.7617C37.4799 32.1158 36.12 32.6742 35.2284 33.0303L35.0012 37.3945Z" fill="#313130"/>
<path d="M30.2065 38.9429L30.9921 38.7009L31.2559 34.9992L33.6503 34.049L33.6582 33.6642C32.7675 34.0203 31.3998 34.5787 30.5091 34.9328L30.2065 38.9429Z" fill="#313130"/>
<path d="M50.996 83.1236L19.1442 65.876L19.7185 57.8102H3.51339L1 40.7986H20.9266L21.6903 30.0022L29.5578 25.7431L30.3593 18.7276L37.3896 12.6425L40.8314 15.6102L41.6011 9.13231L51.4959 1L61.3878 9.13231L62.1962 15.8681L65.8433 12.7179L72.8796 18.805L73.7475 26.4543L80.3027 30.0032L81.0724 40.7996H101L98.4777 57.8121H82.2736L82.8459 65.877L50.996 83.1236Z" fill="white"/>
<path d="M50.996 83.1236L19.1442 65.876L19.7185 57.8102H3.51339L1 40.7986H20.9266L21.6903 30.0022L29.5578 25.7431L30.3593 18.7276L37.3896 12.6425L40.8314 15.6102L41.6011 9.13232L51.4959 1L61.3878 9.13232L62.1962 15.8681L65.8433 12.7179L72.8796 18.805L73.7475 26.4543L80.3027 30.0032L81.0724 40.7996H101L98.4777 57.8121H82.2736L82.8459 65.877L50.996 83.1236Z" stroke="#151616" stroke-width="1.5001"/>
<path d="M63.3586 66.9641H38.6879V68.5313H63.3586V66.9641Z" fill="#FBCF2D"/>
<path d="M38.067 28.4618L31.9502 31.7151L32.8954 21.1518L37.4551 17.5741L43.2089 21.8242L43.5878 25.7134L38.067 28.4618ZM36.6477 28.1375L33.0908 30.0319L33.8833 21.6735L36.8371 18.8645L36.6477 28.1375Z" fill="#151616"/>
<path d="M65.6131 29.0133L60.2134 26.854L60.7718 20.4654L65.3255 16.8857L71.0783 21.1379L72.0682 31.241L65.6131 29.0133ZM64.5191 27.4422L61.362 25.1629L61.7547 20.9792L64.7085 18.1762L64.5191 27.4422Z" fill="#151616"/>
<path d="M51.5068 22.949L43.2783 25.8175L44.6302 10.8076L51.1012 5.71832L59.2712 11.7588L60.6836 26.121L51.5068 22.949ZM49.9536 20.7233L44.907 23.4172L46.0268 11.5406L50.2224 7.56022L49.9536 20.7233Z" fill="#151616"/>
<path d="M52.3539 20.9484L76.2004 32.0633L77.1506 42.9818H71.9939L75.0082 41.9026L74.2593 33.3993L51.487 22.7824L29.1502 33.197L28.2357 41.9026L31.1597 42.9818H26.0695L27.2339 31.8451L51.488 20.5487L52.3539 20.9484Z" fill="#151616"/>
<path d="M50.4575 22.1932C50.4575 21.9601 50.9197 21.7637 51.4861 21.7637C52.0535 21.7637 52.5127 21.9591 52.5127 22.1932V36.5277C52.5127 36.8143 52.0971 36.9333 51.6448 36.9413C51.0864 36.9562 50.4565 36.7905 50.4565 36.5277L50.4575 22.1932Z" fill="#151616"/>
<path d="M51.6824 35.4773L55.3285 37.7348L51.6824 36.9046V35.4773Z" fill="#151616"/>
<path d="M30.5081 34.9328L33.6493 34.6015V38.4827L30.5081 38.807V34.9328ZM44.658 33.4529L47.7983 33.1286V37.0018L44.658 37.3321V33.4529ZM39.9397 33.9439L43.081 33.6196V37.4928L39.9397 37.8241V33.9439ZM35.2214 34.4329L38.3706 34.1105V37.9838L35.2214 38.3151V34.4329Z" fill="#FCBD00"/>
<path d="M51.5971 35.4773L47.96 37.7348L51.5971 36.9046V35.4773Z" fill="#151616"/>
<path d="M44.5925 34.29L45.633 33.9647V29.2613L47.8161 28.4221V27.9619C46.7667 28.3854 45.7163 28.807 44.6659 29.2295L44.5925 34.29Z" fill="#313130"/>
<path d="M39.7969 35.8473L40.6568 35.5825L40.7719 31.2034L43.0819 30.3127L43.0889 29.8901C42.1069 30.274 40.9217 30.7421 39.9476 31.1339L39.7969 35.8473Z" fill="#313130"/>
<path d="M35.0012 37.3945L35.7878 37.1525L35.9762 33.0978L38.3706 32.1545L38.3755 31.7617C37.4799 32.1158 36.12 32.6742 35.2284 33.0303L35.0012 37.3945Z" fill="#313130"/>
<path d="M30.2065 38.9429L30.9921 38.7009L31.2559 34.9992L33.6503 34.049L33.6582 33.6642C32.7675 34.0203 31.3998 34.5787 30.5091 34.9328L30.2065 38.9429Z" fill="#313130"/>
<path d="M71.979 34.9328C70.9286 34.5113 69.8802 34.0887 68.8298 33.6642C68.8764 34.3734 68.9121 35.0846 68.9597 35.7878C68.9954 36.497 69.043 37.2071 69.0797 37.9163C70.145 38.2556 71.2182 38.6047 72.2825 38.9439C72.2289 38.2803 72.1773 37.6069 72.1297 36.9423C72.0772 36.2698 72.0325 35.5964 71.979 34.9328ZM57.8201 29.2306C56.7697 28.808 55.7203 28.3865 54.6709 27.963C54.6788 28.8467 54.6788 29.7305 54.6858 30.6142C54.6858 31.497 54.6947 32.3718 54.6947 33.2556C55.7669 33.6037 56.8292 33.9489 57.8955 34.2901C57.8806 33.4529 57.8726 32.6069 57.8588 31.7618C57.8439 30.9237 57.828 30.0786 57.8201 29.2306ZM62.5394 31.133C61.491 30.7124 60.4426 30.2889 59.3922 29.8654C59.414 30.6896 59.4289 31.5138 59.4448 32.3361C59.4616 33.1653 59.4755 33.9895 59.4963 34.8128C60.5616 35.152 61.6259 35.4982 62.6921 35.8463C62.6604 35.0617 62.6386 34.2742 62.6158 33.4896C62.5939 32.7061 62.5632 31.9205 62.5394 31.133Z" fill="#FCBD00"/>
<path d="M50.996 83.1236L19.1442 65.876L19.7185 57.8102H3.51339L1 40.7986H20.9266L21.6903 30.0022L29.5578 25.7431L30.3593 18.7276L37.3896 12.6425L40.8314 15.6102L41.6011 9.13231L51.4959 1L61.3878 9.13231L62.1962 15.8681L65.8433 12.7179L72.8796 18.805L73.7475 26.4543L80.3027 30.0032L81.0724 40.7996H101L98.4777 57.8121H82.2736L82.8459 65.877L50.996 83.1236Z" fill="white"/>
<path d="M50.996 83.1236L19.1442 65.876L19.7185 57.8102H3.51339L1 40.7986H20.9266L21.6903 30.0022L29.5578 25.7431L30.3593 18.7276L37.3896 12.6425L40.8314 15.6102L41.6011 9.13232L51.4959 1L61.3878 9.13232L62.1962 15.8681L65.8433 12.7179L72.8796 18.805L73.7475 26.4543L80.3027 30.0032L81.0724 40.7996H101L98.4777 57.8121H82.2736L82.8459 65.877L50.996 83.1236Z" stroke="#151616" stroke-width="1.5001"/>
<path d="M63.3586 66.9641H38.6879V68.5313H63.3586V66.9641Z" fill="#FBCF2D"/>
<path d="M38.067 28.4618L31.9502 31.7151L32.8954 21.1518L37.4551 17.5741L43.2089 21.8242L43.5878 25.7134L38.067 28.4618ZM36.6477 28.1375L33.0908 30.0319L33.8833 21.6735L36.8371 18.8645L36.6477 28.1375Z" fill="#151616"/>
<path d="M65.6131 29.0133L60.2134 26.854L60.7718 20.4654L65.3255 16.8857L71.0783 21.1379L72.0682 31.241L65.6131 29.0133ZM64.5191 27.4422L61.362 25.1629L61.7547 20.9792L64.7085 18.1762L64.5191 27.4422Z" fill="#151616"/>
<path d="M51.5068 22.949L43.2783 25.8175L44.6302 10.8076L51.1012 5.71832L59.2712 11.7588L60.6836 26.121L51.5068 22.949ZM49.9536 20.7233L44.907 23.4172L46.0268 11.5406L50.2224 7.56022L49.9536 20.7233Z" fill="#151616"/>
<path d="M52.3539 20.9484L76.2004 32.0633L77.1506 42.9818H71.9939L75.0082 41.9026L74.2593 33.3993L51.487 22.7824L29.1502 33.197L28.2357 41.9026L31.1597 42.9818H26.0695L27.2339 31.8451L51.488 20.5487L52.3539 20.9484Z" fill="#151616"/>
<path d="M50.4575 22.1932C50.4575 21.9601 50.9197 21.7637 51.4861 21.7637C52.0535 21.7637 52.5127 21.9591 52.5127 22.1932V36.5277C52.5127 36.8143 52.0971 36.9333 51.6448 36.9413C51.0864 36.9562 50.4565 36.7905 50.4565 36.5277L50.4575 22.1932Z" fill="#151616"/>
<path d="M51.6824 35.4773L55.3285 37.7348L51.6824 36.9046V35.4773Z" fill="#151616"/>
<path d="M30.5081 34.9328L33.6493 34.6015V38.4827L30.5081 38.807V34.9328ZM44.658 33.4529L47.7983 33.1286V37.0018L44.658 37.3321V33.4529ZM39.9397 33.9439L43.081 33.6196V37.4928L39.9397 37.8241V33.9439ZM35.2214 34.4329L38.3706 34.1105V37.9838L35.2214 38.3151V34.4329Z" fill="#FCBD00"/>
<path d="M51.5971 35.4773L47.96 37.7348L51.5971 36.9046V35.4773Z" fill="#151616"/>
<path d="M44.5925 34.29L45.633 33.9647V29.2613L47.8161 28.4221V27.9619C46.7667 28.3854 45.7163 28.807 44.6659 29.2295L44.5925 34.29Z" fill="#313130"/>
<path d="M39.7969 35.8473L40.6568 35.5825L40.7719 31.2034L43.0819 30.3127L43.0889 29.8901C42.1069 30.274 40.9217 30.7421 39.9476 31.1339L39.7969 35.8473Z" fill="#313130"/>
<path d="M35.0012 37.3945L35.7878 37.1525L35.9762 33.0978L38.3706 32.1545L38.3755 31.7617C37.4799 32.1158 36.12 32.6742 35.2284 33.0303L35.0012 37.3945Z" fill="#313130"/>
<path d="M30.2065 38.9429L30.9921 38.7009L31.2559 34.9992L33.6503 34.049L33.6582 33.6642C32.7675 34.0203 31.3998 34.5787 30.5091 34.9328L30.2065 38.9429Z" fill="#313130"/>
<path d="M71.979 34.9328C70.9286 34.5113 69.8802 34.0887 68.8298 33.6642C68.8764 34.3734 68.9121 35.0846 68.9597 35.7878C68.9954 36.497 69.043 37.2071 69.0797 37.9163C70.145 38.2556 71.2182 38.6047 72.2825 38.9439C72.2289 38.2803 72.1773 37.6069 72.1297 36.9423C72.0772 36.2698 72.0325 35.5964 71.979 34.9328ZM57.8201 29.2306C56.7697 28.808 55.7203 28.3865 54.6709 27.963C54.6788 28.8467 54.6788 29.7305 54.6858 30.6142C54.6858 31.497 54.6947 32.3718 54.6947 33.2556C55.7669 33.6037 56.8292 33.9489 57.8955 34.2901C57.8806 33.4529 57.8726 32.6069 57.8588 31.7618C57.8439 30.9237 57.828 30.0786 57.8201 29.2306ZM62.5394 31.133C61.491 30.7124 60.4426 30.2889 59.3922 29.8654C59.414 30.6896 59.4289 31.5138 59.4448 32.3361C59.4616 33.1653 59.4755 33.9895 59.4963 34.8128C60.5616 35.152 61.6259 35.4982 62.6921 35.8463C62.6604 35.0617 62.6386 34.2742 62.6158 33.4896C62.5939 32.7061 62.5632 31.9205 62.5394 31.133Z" fill="#FCBD00"/>
<path d="M57.8956 34.29L56.8541 33.9647V29.2613L54.672 28.4221V27.9619C55.7214 28.3854 56.7708 28.807 57.8212 29.2295L57.8956 34.29Z" fill="#313130"/>
<path d="M50.996 83.1236L19.1442 65.876L19.7185 57.8102H3.51339L1 40.7986H20.9266L21.6903 30.0022L29.5578 25.7431L30.3593 18.7276L37.3896 12.6425L40.8314 15.6102L41.6011 9.13231L51.4959 1L61.3878 9.13231L62.1962 15.8681L65.8433 12.7179L72.8796 18.805L73.7475 26.4543L80.3027 30.0032L81.0724 40.7996H101L98.4777 57.8121H82.2736L82.8459 65.877L50.996 83.1236Z" fill="white"/>
<path d="M50.996 83.1236L19.1442 65.876L19.7185 57.8102H3.51339L1 40.7986H20.9266L21.6903 30.0022L29.5578 25.7431L30.3593 18.7276L37.3896 12.6425L40.8314 15.6102L41.6011 9.13232L51.4959 1L61.3878 9.13232L62.1962 15.8681L65.8433 12.7179L72.8796 18.805L73.7475 26.4543L80.3027 30.0032L81.0724 40.7996H101L98.4777 57.8121H82.2736L82.8459 65.877L50.996 83.1236Z" stroke="#151616" stroke-width="1.5001"/>
<path d="M63.3586 66.9641H38.6879V68.5313H63.3586V66.9641Z" fill="#FBCF2D"/>
<path d="M38.067 28.4618L31.9502 31.7151L32.8954 21.1518L37.4551 17.5741L43.2089 21.8242L43.5878 25.7134L38.067 28.4618ZM36.6477 28.1375L33.0908 30.0319L33.8833 21.6735L36.8371 18.8645L36.6477 28.1375Z" fill="#151616"/>
<path d="M65.6131 29.0133L60.2134 26.854L60.7718 20.4654L65.3255 16.8857L71.0783 21.1379L72.0682 31.241L65.6131 29.0133ZM64.5191 27.4422L61.362 25.1629L61.7547 20.9792L64.7085 18.1762L64.5191 27.4422Z" fill="#151616"/>
<path d="M51.5068 22.949L43.2783 25.8175L44.6302 10.8076L51.1012 5.71832L59.2712 11.7588L60.6836 26.121L51.5068 22.949ZM49.9536 20.7233L44.907 23.4172L46.0268 11.5406L50.2224 7.56022L49.9536 20.7233Z" fill="#151616"/>
<path d="M52.3539 20.9484L76.2004 32.0633L77.1506 42.9818H71.9939L75.0082 41.9026L74.2593 33.3993L51.487 22.7824L29.1502 33.197L28.2357 41.9026L31.1597 42.9818H26.0695L27.2339 31.8451L51.488 20.5487L52.3539 20.9484Z" fill="#151616"/>
<path d="M50.4575 22.1932C50.4575 21.9601 50.9197 21.7637 51.4861 21.7637C52.0535 21.7637 52.5127 21.9591 52.5127 22.1932V36.5277C52.5127 36.8143 52.0971 36.9333 51.6448 36.9413C51.0864 36.9562 50.4565 36.7905 50.4565 36.5277L50.4575 22.1932Z" fill="#151616"/>
<path d="M51.6824 35.4773L55.3285 37.7348L51.6824 36.9046V35.4773Z" fill="#151616"/>
<path d="M30.5081 34.9328L33.6493 34.6015V38.4827L30.5081 38.807V34.9328ZM44.658 33.4529L47.7983 33.1286V37.0018L44.658 37.3321V33.4529ZM39.9397 33.9439L43.081 33.6196V37.4928L39.9397 37.8241V33.9439ZM35.2214 34.4329L38.3706 34.1105V37.9838L35.2214 38.3151V34.4329Z" fill="#FCBD00"/>
<path d="M51.5971 35.4773L47.96 37.7348L51.5971 36.9046V35.4773Z" fill="#151616"/>
<path d="M44.5925 34.29L45.633 33.9647V29.2613L47.8161 28.4221V27.9619C46.7667 28.3854 45.7163 28.807 44.6659 29.2295L44.5925 34.29Z" fill="#313130"/>
<path d="M39.7969 35.8473L40.6568 35.5825L40.7719 31.2034L43.0819 30.3127L43.0889 29.8901C42.1069 30.274 40.9217 30.7421 39.9476 31.1339L39.7969 35.8473Z" fill="#313130"/>
<path d="M35.0012 37.3945L35.7878 37.1525L35.9762 33.0978L38.3706 32.1545L38.3755 31.7617C37.4799 32.1158 36.12 32.6742 35.2284 33.0303L35.0012 37.3945Z" fill="#313130"/>
<path d="M30.2065 38.9429L30.9921 38.7009L31.2559 34.9992L33.6503 34.049L33.6582 33.6642C32.7675 34.0203 31.3998 34.5787 30.5091 34.9328L30.2065 38.9429Z" fill="#313130"/>
<path d="M71.979 34.9328C70.9286 34.5113 69.8802 34.0887 68.8298 33.6642C68.8764 34.3734 68.9121 35.0846 68.9597 35.7878C68.9954 36.497 69.043 37.2071 69.0797 37.9163C70.145 38.2556 71.2182 38.6047 72.2825 38.9439C72.2289 38.2803 72.1773 37.6069 72.1297 36.9423C72.0772 36.2698 72.0325 35.5964 71.979 34.9328ZM57.8201 29.2306C56.7697 28.808 55.7203 28.3865 54.6709 27.963C54.6788 28.8467 54.6788 29.7305 54.6858 30.6142C54.6858 31.497 54.6947 32.3718 54.6947 33.2556C55.7669 33.6037 56.8292 33.9489 57.8955 34.2901C57.8806 33.4529 57.8726 32.6069 57.8588 31.7618C57.8439 30.9237 57.828 30.0786 57.8201 29.2306ZM62.5394 31.133C61.491 30.7124 60.4426 30.2889 59.3922 29.8654C59.414 30.6896 59.4289 31.5138 59.4448 32.3361C59.4616 33.1653 59.4755 33.9895 59.4963 34.8128C60.5616 35.152 61.6259 35.4982 62.6921 35.8463C62.6604 35.0617 62.6386 34.2742 62.6158 33.4896C62.5939 32.7061 62.5632 31.9205 62.5394 31.133Z" fill="#FCBD00"/>
<path d="M57.8956 34.29L56.8541 33.9647V29.2613L54.672 28.4221V27.9619C55.7214 28.3854 56.7708 28.807 57.8212 29.2295L57.8956 34.29Z" fill="#313130"/>
<path d="M62.6921 35.8472L61.8301 35.5824L61.7171 31.2033L59.3971 30.3126V29.8891C60.38 30.273 61.5594 30.7411 62.5383 31.1329L62.6921 35.8472Z" fill="#313130"/>
<path d="M50.996 83.1236L19.1442 65.876L19.7185 57.8102H3.51339L1 40.7986H20.9266L21.6903 30.0022L29.5578 25.7431L30.3593 18.7276L37.3896 12.6425L40.8314 15.6102L41.6011 9.13231L51.4959 1L61.3878 9.13231L62.1962 15.8681L65.8433 12.7179L72.8796 18.805L73.7475 26.4543L80.3027 30.0032L81.0724 40.7996H101L98.4777 57.8121H82.2736L82.8459 65.877L50.996 83.1236Z" fill="white"/>
<path d="M50.996 83.1236L19.1442 65.876L19.7185 57.8102H3.51339L1 40.7986H20.9266L21.6903 30.0022L29.5578 25.7431L30.3593 18.7276L37.3896 12.6425L40.8314 15.6102L41.6011 9.13232L51.4959 1L61.3878 9.13232L62.1962 15.8681L65.8433 12.7179L72.8796 18.805L73.7475 26.4543L80.3027 30.0032L81.0724 40.7996H101L98.4777 57.8121H82.2736L82.8459 65.877L50.996 83.1236Z" stroke="#151616" stroke-width="1.5001"/>
<path d="M63.3586 66.9641H38.6879V68.5313H63.3586V66.9641Z" fill="#FBCF2D"/>
<path d="M38.067 28.4618L31.9502 31.7151L32.8954 21.1518L37.4551 17.5741L43.2089 21.8242L43.5878 25.7134L38.067 28.4618ZM36.6477 28.1375L33.0908 30.0319L33.8833 21.6735L36.8371 18.8645L36.6477 28.1375Z" fill="#151616"/>
<path d="M65.6131 29.0133L60.2134 26.854L60.7718 20.4654L65.3255 16.8857L71.0783 21.1379L72.0682 31.241L65.6131 29.0133ZM64.5191 27.4422L61.362 25.1629L61.7547 20.9792L64.7085 18.1762L64.5191 27.4422Z" fill="#151616"/>
<path d="M51.5068 22.949L43.2783 25.8175L44.6302 10.8076L51.1012 5.71832L59.2712 11.7588L60.6836 26.121L51.5068 22.949ZM49.9536 20.7233L44.907 23.4172L46.0268 11.5406L50.2224 7.56022L49.9536 20.7233Z" fill="#151616"/>
<path d="M52.3539 20.9484L76.2004 32.0633L77.1506 42.9818H71.9939L75.0082 41.9026L74.2593 33.3993L51.487 22.7824L29.1502 33.197L28.2357 41.9026L31.1597 42.9818H26.0695L27.2339 31.8451L51.488 20.5487L52.3539 20.9484Z" fill="#151616"/>
<path d="M50.4575 22.1932C50.4575 21.9601 50.9197 21.7637 51.4861 21.7637C52.0535 21.7637 52.5127 21.9591 52.5127 22.1932V36.5277C52.5127 36.8143 52.0971 36.9333 51.6448 36.9413C51.0864 36.9562 50.4565 36.7905 50.4565 36.5277L50.4575 22.1932Z" fill="#151616"/>
<path d="M51.6824 35.4773L55.3285 37.7348L51.6824 36.9046V35.4773Z" fill="#151616"/>
<path d="M30.5081 34.9328L33.6493 34.6015V38.4827L30.5081 38.807V34.9328ZM44.658 33.4529L47.7983 33.1286V37.0018L44.658 37.3321V33.4529ZM39.9397 33.9439L43.081 33.6196V37.4928L39.9397 37.8241V33.9439ZM35.2214 34.4329L38.3706 34.1105V37.9838L35.2214 38.3151V34.4329Z" fill="#FCBD00"/>
<path d="M51.5971 35.4773L47.96 37.7348L51.5971 36.9046V35.4773Z" fill="#151616"/>
<path d="M44.5925 34.29L45.633 33.9647V29.2613L47.8161 28.4221V27.9619C46.7667 28.3854 45.7163 28.807 44.6659 29.2295L44.5925 34.29Z" fill="#313130"/>
<path d="M39.7969 35.8473L40.6568 35.5825L40.7719 31.2034L43.0819 30.3127L43.0889 29.8901C42.1069 30.274 40.9217 30.7421 39.9476 31.1339L39.7969 35.8473Z" fill="#313130"/>
<path d="M35.0012 37.3945L35.7878 37.1525L35.9762 33.0978L38.3706 32.1545L38.3755 31.7617C37.4799 32.1158 36.12 32.6742 35.2284 33.0303L35.0012 37.3945Z" fill="#313130"/>
<path d="M30.2065 38.9429L30.9921 38.7009L31.2559 34.9992L33.6503 34.049L33.6582 33.6642C32.7675 34.0203 31.3998 34.5787 30.5091 34.9328L30.2065 38.9429Z" fill="#313130"/>
<path d="M71.979 34.9328C70.9286 34.5113 69.8802 34.0887 68.8298 33.6642C68.8764 34.3734 68.9121 35.0846 68.9597 35.7878C68.9954 36.497 69.043 37.2071 69.0797 37.9163C70.145 38.2556 71.2182 38.6047 72.2825 38.9439C72.2289 38.2803 72.1773 37.6069 72.1297 36.9423C72.0772 36.2698 72.0325 35.5964 71.979 34.9328ZM57.8201 29.2306C56.7697 28.808 55.7203 28.3865 54.6709 27.963C54.6788 28.8467 54.6788 29.7305 54.6858 30.6142C54.6858 31.497 54.6947 32.3718 54.6947 33.2556C55.7669 33.6037 56.8292 33.9489 57.8955 34.2901C57.8806 33.4529 57.8726 32.6069 57.8588 31.7618C57.8439 30.9237 57.828 30.0786 57.8201 29.2306ZM62.5394 31.133C61.491 30.7124 60.4426 30.2889 59.3922 29.8654C59.414 30.6896 59.4289 31.5138 59.4448 32.3361C59.4616 33.1653 59.4755 33.9895 59.4963 34.8128C60.5616 35.152 61.6259 35.4982 62.6921 35.8463C62.6604 35.0617 62.6386 34.2742 62.6158 33.4896C62.5939 32.7061 62.5632 31.9205 62.5394 31.133Z" fill="#FCBD00"/>
<path d="M57.8956 34.29L56.8541 33.9647V29.2613L54.672 28.4221V27.9619C55.7214 28.3854 56.7708 28.807 57.8212 29.2295L57.8956 34.29Z" fill="#313130"/>
<path d="M62.6921 35.8472L61.8301 35.5824L61.7171 31.2033L59.3971 30.3126V29.8891C60.38 30.273 61.5594 30.7411 62.5383 31.1329L62.6921 35.8472Z" fill="#313130"/>
<path d="M67.4869 37.3945L66.7014 37.1525L66.5129 33.0978L64.1195 32.1545L64.1106 31.7617C65.0112 32.1158 66.3691 32.6742 67.2608 33.0303L67.4869 37.3945Z" fill="#313130"/>
<path d="M50.996 83.1236L19.1442 65.876L19.7185 57.8102H3.51339L1 40.7986H20.9266L21.6903 30.0022L29.5578 25.7431L30.3593 18.7276L37.3896 12.6425L40.8314 15.6102L41.6011 9.13231L51.4959 1L61.3878 9.13231L62.1962 15.8681L65.8433 12.7179L72.8796 18.805L73.7475 26.4543L80.3027 30.0032L81.0724 40.7996H101L98.4777 57.8121H82.2736L82.8459 65.877L50.996 83.1236Z" fill="white"/>
<path d="M50.996 83.1236L19.1442 65.876L19.7185 57.8102H3.51339L1 40.7986H20.9266L21.6903 30.0022L29.5578 25.7431L30.3593 18.7276L37.3896 12.6425L40.8314 15.6102L41.6011 9.13232L51.4959 1L61.3878 9.13232L62.1962 15.8681L65.8433 12.7179L72.8796 18.805L73.7475 26.4543L80.3027 30.0032L81.0724 40.7996H101L98.4777 57.8121H82.2736L82.8459 65.877L50.996 83.1236Z" stroke="#151616" stroke-width="1.5001"/>
<path d="M63.3586 66.9641H38.6879V68.5313H63.3586V66.9641Z" fill="#FBCF2D"/>
<path d="M38.067 28.4618L31.9502 31.7151L32.8954 21.1518L37.4551 17.5741L43.2089 21.8242L43.5878 25.7134L38.067 28.4618ZM36.6477 28.1375L33.0908 30.0319L33.8833 21.6735L36.8371 18.8645L36.6477 28.1375Z" fill="#151616"/>
<path d="M65.6131 29.0133L60.2134 26.854L60.7718 20.4654L65.3255 16.8857L71.0783 21.1379L72.0682 31.241L65.6131 29.0133ZM64.5191 27.4422L61.362 25.1629L61.7547 20.9792L64.7085 18.1762L64.5191 27.4422Z" fill="#151616"/>
<path d="M51.5068 22.949L43.2783 25.8175L44.6302 10.8076L51.1012 5.71832L59.2712 11.7588L60.6836 26.121L51.5068 22.949ZM49.9536 20.7233L44.907 23.4172L46.0268 11.5406L50.2224 7.56022L49.9536 20.7233Z" fill="#151616"/>
<path d="M52.3539 20.9484L76.2004 32.0633L77.1506 42.9818H71.9939L75.0082 41.9026L74.2593 33.3993L51.487 22.7824L29.1502 33.197L28.2357 41.9026L31.1597 42.9818H26.0695L27.2339 31.8451L51.488 20.5487L52.3539 20.9484Z" fill="#151616"/>
<path d="M50.4575 22.1932C50.4575 21.9601 50.9197 21.7637 51.4861 21.7637C52.0535 21.7637 52.5127 21.9591 52.5127 22.1932V36.5277C52.5127 36.8143 52.0971 36.9333 51.6448 36.9413C51.0864 36.9562 50.4565 36.7905 50.4565 36.5277L50.4575 22.1932Z" fill="#151616"/>
<path d="M51.6824 35.4773L55.3285 37.7348L51.6824 36.9046V35.4773Z" fill="#151616"/>
<path d="M30.5081 34.9328L33.6493 34.6015V38.4827L30.5081 38.807V34.9328ZM44.658 33.4529L47.7983 33.1286V37.0018L44.658 37.3321V33.4529ZM39.9397 33.9439L43.081 33.6196V37.4928L39.9397 37.8241V33.9439ZM35.2214 34.4329L38.3706 34.1105V37.9838L35.2214 38.3151V34.4329Z" fill="#FCBD00"/>
<path d="M51.5971 35.4773L47.96 37.7348L51.5971 36.9046V35.4773Z" fill="#151616"/>
<path d="M44.5925 34.29L45.633 33.9647V29.2613L47.8161 28.4221V27.9619C46.7667 28.3854 45.7163 28.807 44.6659 29.2295L44.5925 34.29Z" fill="#313130"/>
<path d="M39.7969 35.8473L40.6568 35.5825L40.7719 31.2034L43.0819 30.3127L43.0889 29.8901C42.1069 30.274 40.9217 30.7421 39.9476 31.1339L39.7969 35.8473Z" fill="#313130"/>
<path d="M35.0012 37.3945L35.7878 37.1525L35.9762 33.0978L38.3706 32.1545L38.3755 31.7617C37.4799 32.1158 36.12 32.6742 35.2284 33.0303L35.0012 37.3945Z" fill="#313130"/>
<path d="M30.2065 38.9429L30.9921 38.7009L31.2559 34.9992L33.6503 34.049L33.6582 33.6642C32.7675 34.0203 31.3998 34.5787 30.5091 34.9328L30.2065 38.9429Z" fill="#313130"/>
<path d="M71.979 34.9328C70.9286 34.5113 69.8802 34.0887 68.8298 33.6642C68.8764 34.3734 68.9121 35.0846 68.9597 35.7878C68.9954 36.497 69.043 37.2071 69.0797 37.9163C70.145 38.2556 71.2182 38.6047 72.2825 38.9439C72.2289 38.2803 72.1773 37.6069 72.1297 36.9423C72.0772 36.2698 72.0325 35.5964 71.979 34.9328ZM57.8201 29.2306C56.7697 28.808 55.7203 28.3865 54.6709 27.963C54.6788 28.8467 54.6788 29.7305 54.6858 30.6142C54.6858 31.497 54.6947 32.3718 54.6947 33.2556C55.7669 33.6037 56.8292 33.9489 57.8955 34.2901C57.8806 33.4529 57.8726 32.6069 57.8588 31.7618C57.8439 30.9237 57.828 30.0786 57.8201 29.2306ZM62.5394 31.133C61.491 30.7124 60.4426 30.2889 59.3922 29.8654C59.414 30.6896 59.4289 31.5138 59.4448 32.3361C59.4616 33.1653 59.4755 33.9895 59.4963 34.8128C60.5616 35.152 61.6259 35.4982 62.6921 35.8463C62.6604 35.0617 62.6386 34.2742 62.6158 33.4896C62.5939 32.7061 62.5632 31.9205 62.5394 31.133Z" fill="#FCBD00"/>
<path d="M57.8956 34.29L56.8541 33.9647V29.2613L54.672 28.4221V27.9619C55.7214 28.3854 56.7708 28.807 57.8212 29.2295L57.8956 34.29Z" fill="#313130"/>
<path d="M62.6921 35.8472L61.8301 35.5824L61.7171 31.2033L59.3971 30.3126V29.8891C60.38 30.273 61.5594 30.7411 62.5383 31.1329L62.6921 35.8472Z" fill="#313130"/>
<path d="M67.4869 37.3945L66.7014 37.1525L66.5129 33.0978L64.1195 32.1545L64.1106 31.7617C65.0112 32.1158 66.3691 32.6742 67.2608 33.0303L67.4869 37.3945Z" fill="#313130"/>
<path d="M72.2815 38.9429L71.496 38.7009L71.2321 34.9992L68.8289 34.049V33.6642C69.7196 34.0203 71.0873 34.5787 71.978 34.9328L72.2815 38.9429Z" fill="#313130"/>
<path d="M50.996 83.1236L19.1442 65.876L19.7185 57.8102H3.51339L1 40.7986H20.9266L21.6903 30.0022L29.5578 25.7431L30.3593 18.7276L37.3896 12.6425L40.8314 15.6102L41.6011 9.13231L51.4959 1L61.3878 9.13231L62.1962 15.8681L65.8433 12.7179L72.8796 18.805L73.7475 26.4543L80.3027 30.0032L81.0724 40.7996H101L98.4777 57.8121H82.2736L82.8459 65.877L50.996 83.1236Z" fill="white"/>
<path d="M50.996 83.1236L19.1442 65.876L19.7185 57.8102H3.51339L1 40.7986H20.9266L21.6903 30.0022L29.5578 25.7431L30.3593 18.7276L37.3896 12.6425L40.8314 15.6102L41.6011 9.13232L51.4959 1L61.3878 9.13232L62.1962 15.8681L65.8433 12.7179L72.8796 18.805L73.7475 26.4543L80.3027 30.0032L81.0724 40.7996H101L98.4777 57.8121H82.2736L82.8459 65.877L50.996 83.1236Z" stroke="#151616" stroke-width="1.5001"/>
<path d="M63.3586 66.9641H38.6879V68.5313H63.3586V66.9641Z" fill="#FBCF2D"/>
<path d="M38.067 28.4618L31.9502 31.7151L32.8954 21.1518L37.4551 17.5741L43.2089 21.8242L43.5878 25.7134L38.067 28.4618ZM36.6477 28.1375L33.0908 30.0319L33.8833 21.6735L36.8371 18.8645L36.6477 28.1375Z" fill="#151616"/>
<path d="M65.6131 29.0133L60.2134 26.854L60.7718 20.4654L65.3255 16.8857L71.0783 21.1379L72.0682 31.241L65.6131 29.0133ZM64.5191 27.4422L61.362 25.1629L61.7547 20.9792L64.7085 18.1762L64.5191 27.4422Z" fill="#151616"/>
<path d="M51.5068 22.949L43.2783 25.8175L44.6302 10.8076L51.1012 5.71832L59.2712 11.7588L60.6836 26.121L51.5068 22.949ZM49.9536 20.7233L44.907 23.4172L46.0268 11.5406L50.2224 7.56022L49.9536 20.7233Z" fill="#151616"/>
<path d="M52.3539 20.9484L76.2004 32.0633L77.1506 42.9818H71.9939L75.0082 41.9026L74.2593 33.3993L51.487 22.7824L29.1502 33.197L28.2357 41.9026L31.1597 42.9818H26.0695L27.2339 31.8451L51.488 20.5487L52.3539 20.9484Z" fill="#151616"/>
<path d="M50.4575 22.1932C50.4575 21.9601 50.9197 21.7637 51.4861 21.7637C52.0535 21.7637 52.5127 21.9591 52.5127 22.1932V36.5277C52.5127 36.8143 52.0971 36.9333 51.6448 36.9413C51.0864 36.9562 50.4565 36.7905 50.4565 36.5277L50.4575 22.1932Z" fill="#151616"/>
<path d="M51.6824 35.4773L55.3285 37.7348L51.6824 36.9046V35.4773Z" fill="#151616"/>
<path d="M30.5081 34.9328L33.6493 34.6015V38.4827L30.5081 38.807V34.9328ZM44.658 33.4529L47.7983 33.1286V37.0018L44.658 37.3321V33.4529ZM39.9397 33.9439L43.081 33.6196V37.4928L39.9397 37.8241V33.9439ZM35.2214 34.4329L38.3706 34.1105V37.9838L35.2214 38.3151V34.4329Z" fill="#FCBD00"/>
<path d="M51.5971 35.4773L47.96 37.7348L51.5971 36.9046V35.4773Z" fill="#151616"/>
<path d="M44.5925 34.29L45.633 33.9647V29.2613L47.8161 28.4221V27.9619C46.7667 28.3854 45.7163 28.807 44.6659 29.2295L44.5925 34.29Z" fill="#313130"/>
<path d="M39.7969 35.8473L40.6568 35.5825L40.7719 31.2034L43.0819 30.3127L43.0889 29.8901C42.1069 30.274 40.9217 30.7421 39.9476 31.1339L39.7969 35.8473Z" fill="#313130"/>
<path d="M35.0012 37.3945L35.7878 37.1525L35.9762 33.0978L38.3706 32.1545L38.3755 31.7617C37.4799 32.1158 36.12 32.6742 35.2284 33.0303L35.0012 37.3945Z" fill="#313130"/>
<path d="M30.2065 38.9429L30.9921 38.7009L31.2559 34.9992L33.6503 34.049L33.6582 33.6642C32.7675 34.0203 31.3998 34.5787 30.5091 34.9328L30.2065 38.9429Z" fill="#313130"/>
<path d="M71.979 34.9328C70.9286 34.5113 69.8802 34.0887 68.8298 33.6642C68.8764 34.3734 68.9121 35.0846 68.9597 35.7878C68.9954 36.497 69.043 37.2071 69.0797 37.9163C70.145 38.2556 71.2182 38.6047 72.2825 38.9439C72.2289 38.2803 72.1773 37.6069 72.1297 36.9423C72.0772 36.2698 72.0325 35.5964 71.979 34.9328ZM57.8201 29.2306C56.7697 28.808 55.7203 28.3865 54.6709 27.963C54.6788 28.8467 54.6788 29.7305 54.6858 30.6142C54.6858 31.497 54.6947 32.3718 54.6947 33.2556C55.7669 33.6037 56.8292 33.9489 57.8955 34.2901C57.8806 33.4529 57.8726 32.6069 57.8588 31.7618C57.8439 30.9237 57.828 30.0786 57.8201 29.2306ZM62.5394 31.133C61.491 30.7124 60.4426 30.2889 59.3922 29.8654C59.414 30.6896 59.4289 31.5138 59.4448 32.3361C59.4616 33.1653 59.4755 33.9895 59.4963 34.8128C60.5616 35.152 61.6259 35.4982 62.6921 35.8463C62.6604 35.0617 62.6386 34.2742 62.6158 33.4896C62.5939 32.7061 62.5632 31.9205 62.5394 31.133Z" fill="#FCBD00"/>
<path d="M57.8956 34.29L56.8541 33.9647V29.2613L54.672 28.4221V27.9619C55.7214 28.3854 56.7708 28.807 57.8212 29.2295L57.8956 34.29Z" fill="#313130"/>
<path d="M62.6921 35.8472L61.8301 35.5824L61.7171 31.2033L59.3971 30.3126V29.8891C60.38 30.273 61.5594 30.7411 62.5383 31.1329L62.6921 35.8472Z" fill="#313130"/>
<path d="M67.4869 37.3945L66.7014 37.1525L66.5129 33.0978L64.1195 32.1545L64.1106 31.7617C65.0112 32.1158 66.3691 32.6742 67.2608 33.0303L67.4869 37.3945Z" fill="#313130"/>
<path d="M72.2815 38.9429L71.496 38.7009L71.2321 34.9992L68.8289 34.049V33.6642C69.7196 34.0203 71.0873 34.5787 71.978 34.9328L72.2815 38.9429Z" fill="#313130"/>
<path d="M43.6472 75.4366L50.9731 79.3337L58.3417 75.4138L51.0178 71.5187L43.6472 75.4366Z" fill="#151616"/>
<path d="M50.996 83.1236L19.1442 65.876L19.7185 57.8102H3.51339L1 40.7986H20.9266L21.6903 30.0022L29.5578 25.7431L30.3593 18.7276L37.3896 12.6425L40.8314 15.6102L41.6011 9.13231L51.4959 1L61.3878 9.13231L62.1962 15.8681L65.8433 12.7179L72.8796 18.805L73.7475 26.4543L80.3027 30.0032L81.0724 40.7996H101L98.4777 57.8121H82.2736L82.8459 65.877L50.996 83.1236Z" fill="white"/>
<path d="M50.996 83.1236L19.1442 65.876L19.7185 57.8102H3.51339L1 40.7986H20.9266L21.6903 30.0022L29.5578 25.7431L30.3593 18.7276L37.3896 12.6425L40.8314 15.6102L41.6011 9.13232L51.4959 1L61.3878 9.13232L62.1962 15.8681L65.8433 12.7179L72.8796 18.805L73.7475 26.4543L80.3027 30.0032L81.0724 40.7996H101L98.4777 57.8121H82.2736L82.8459 65.877L50.996 83.1236Z" stroke="#151616" stroke-width="1.5001"/>
<path d="M63.3586 66.9641H38.6879V68.5313H63.3586V66.9641Z" fill="#FBCF2D"/>
<path d="M38.067 28.4618L31.9502 31.7151L32.8954 21.1518L37.4551 17.5741L43.2089 21.8242L43.5878 25.7134L38.067 28.4618ZM36.6477 28.1375L33.0908 30.0319L33.8833 21.6735L36.8371 18.8645L36.6477 28.1375Z" fill="#151616"/>
<path d="M65.6131 29.0133L60.2134 26.854L60.7718 20.4654L65.3255 16.8857L71.0783 21.1379L72.0682 31.241L65.6131 29.0133ZM64.5191 27.4422L61.362 25.1629L61.7547 20.9792L64.7085 18.1762L64.5191 27.4422Z" fill="#151616"/>
<path d="M51.5068 22.949L43.2783 25.8175L44.6302 10.8076L51.1012 5.71832L59.2712 11.7588L60.6836 26.121L51.5068 22.949ZM49.9536 20.7233L44.907 23.4172L46.0268 11.5406L50.2224 7.56022L49.9536 20.7233Z" fill="#151616"/>
<path d="M52.3539 20.9484L76.2004 32.0633L77.1506 42.9818H71.9939L75.0082 41.9026L74.2593 33.3993L51.487 22.7824L29.1502 33.197L28.2357 41.9026L31.1597 42.9818H26.0695L27.2339 31.8451L51.488 20.5487L52.3539 20.9484Z" fill="#151616"/>
<path d="M50.4575 22.1932C50.4575 21.9601 50.9197 21.7637 51.4861 21.7637C52.0535 21.7637 52.5127 21.9591 52.5127 22.1932V36.5277C52.5127 36.8143 52.0971 36.9333 51.6448 36.9413C51.0864 36.9562 50.4565 36.7905 50.4565 36.5277L50.4575 22.1932Z" fill="#151616"/>
<path d="M51.6824 35.4773L55.3285 37.7348L51.6824 36.9046V35.4773Z" fill="#151616"/>
<path d="M30.5081 34.9328L33.6493 34.6015V38.4827L30.5081 38.807V34.9328ZM44.658 33.4529L47.7983 33.1286V37.0018L44.658 37.3321V33.4529ZM39.9397 33.9439L43.081 33.6196V37.4928L39.9397 37.8241V33.9439ZM35.2214 34.4329L38.3706 34.1105V37.9838L35.2214 38.3151V34.4329Z" fill="#FCBD00"/>
<path d="M51.5971 35.4773L47.96 37.7348L51.5971 36.9046V35.4773Z" fill="#151616"/>
<path d="M44.5925 34.29L45.633 33.9647V29.2613L47.8161 28.4221V27.9619C46.7667 28.3854 45.7163 28.807 44.6659 29.2295L44.5925 34.29Z" fill="#313130"/>
<path d="M39.7969 35.8473L40.6568 35.5825L40.7719 31.2034L43.0819 30.3127L43.0889 29.8901C42.1069 30.274 40.9217 30.7421 39.9476 31.1339L39.7969 35.8473Z" fill="#313130"/>
<path d="M35.0012 37.3945L35.7878 37.1525L35.9762 33.0978L38.3706 32.1545L38.3755 31.7617C37.4799 32.1158 36.12 32.6742 35.2284 33.0303L35.0012 37.3945Z" fill="#313130"/>
<path d="M30.2065 38.9429L30.9921 38.7009L31.2559 34.9992L33.6503 34.049L33.6582 33.6642C32.7675 34.0203 31.3998 34.5787 30.5091 34.9328L30.2065 38.9429Z" fill="#313130"/>
<path d="M71.979 34.9328C70.9286 34.5113 69.8802 34.0887 68.8298 33.6642C68.8764 34.3734 68.9121 35.0846 68.9597 35.7878C68.9954 36.497 69.043 37.2071 69.0797 37.9163C70.145 38.2556 71.2182 38.6047 72.2825 38.9439C72.2289 38.2803 72.1773 37.6069 72.1297 36.9423C72.0772 36.2698 72.0325 35.5964 71.979 34.9328ZM57.8201 29.2306C56.7697 28.808 55.7203 28.3865 54.6709 27.963C54.6788 28.8467 54.6788 29.7305 54.6858 30.6142C54.6858 31.497 54.6947 32.3718 54.6947 33.2556C55.7669 33.6037 56.8292 33.9489 57.8955 34.2901C57.8806 33.4529 57.8726 32.6069 57.8588 31.7618C57.8439 30.9237 57.828 30.0786 57.8201 29.2306ZM62.5394 31.133C61.491 30.7124 60.4426 30.2889 59.3922 29.8654C59.414 30.6896 59.4289 31.5138 59.4448 32.3361C59.4616 33.1653 59.4755 33.9895 59.4963 34.8128C60.5616 35.152 61.6259 35.4982 62.6921 35.8463C62.6604 35.0617 62.6386 34.2742 62.6158 33.4896C62.5939 32.7061 62.5632 31.9205 62.5394 31.133Z" fill="#FCBD00"/>
<path d="M57.8956 34.29L56.8541 33.9647V29.2613L54.672 28.4221V27.9619C55.7214 28.3854 56.7708 28.807 57.8212 29.2295L57.8956 34.29Z" fill="#313130"/>
<path d="M62.6921 35.8472L61.8301 35.5824L61.7171 31.2033L59.3971 30.3126V29.8891C60.38 30.273 61.5594 30.7411 62.5383 31.1329L62.6921 35.8472Z" fill="#313130"/>
<path d="M67.4869 37.3945L66.7014 37.1525L66.5129 33.0978L64.1195 32.1545L64.1106 31.7617C65.0112 32.1158 66.3691 32.6742 67.2608 33.0303L67.4869 37.3945Z" fill="#313130"/>
<path d="M72.2815 38.9429L71.496 38.7009L71.2321 34.9992L68.8289 34.049V33.6642C69.7196 34.0203 71.0873 34.5787 71.978 34.9328L72.2815 38.9429Z" fill="#313130"/>
<path d="M43.6472 75.4366L50.9731 79.3337L58.3417 75.4138L51.0178 71.5187L43.6472 75.4366Z" fill="#151616"/>
<path d="M15.1946 44.8772V53.7732H12.9282V48.9845L10.7689 52.5572H10.5418L8.3914 48.9924V53.7732H6.11804V44.8772H8.39239L10.6568 48.676L12.9282 44.8772H15.1946ZM18.8814 51.6358H22.3242V53.7732H16.6001V44.8772H22.2567V46.9998H18.8814V48.2317H21.9393V50.3305H18.8814V51.6358ZM29.5053 44.8772V47.0742H27.3073V53.7732H25.028V47.0742H22.832V44.8772H29.5053ZM35.1232 53.7732L34.7384 52.4898H31.7756L31.3918 53.7732H28.932L31.8679 44.8772H34.6392L37.5711 53.7732H35.1232ZM32.3589 50.5318H34.1561L33.2496 47.5056L32.3589 50.5318ZM37.8042 53.7732V51.6496C38.2793 51.7101 38.6175 51.6417 38.8377 51.4384C39.048 51.242 39.1631 50.8264 39.1631 50.2005V44.8772H45.4892V53.7732H43.2158V47.0742H41.4354V50.3067C41.4354 51.0317 41.3293 51.6496 41.124 52.1565C40.9147 52.6544 40.634 53.0244 40.272 53.2664C39.908 53.4995 39.5311 53.6592 39.1234 53.7345C38.7167 53.8099 38.2793 53.8258 37.8042 53.7732ZM46.2539 53.7732V51.6496C46.729 51.7101 47.0682 51.6417 47.2875 51.4384C47.5057 51.242 47.6128 50.8264 47.6128 50.2005V44.8772H53.9399V53.7732H51.6656V47.0742H49.8861V50.3067C49.8861 51.0317 49.779 51.6496 49.5747 52.1565C49.3644 52.6544 49.0857 53.0244 48.7217 53.2664C48.3666 53.4995 47.9818 53.6592 47.5741 53.7345C47.1655 53.8099 46.729 53.8258 46.2539 53.7732ZM62.9709 52.6237C62.0633 53.5144 60.9623 53.9617 59.656 53.9617C58.3557 53.9617 57.2468 53.5173 56.3472 52.6237C55.4436 51.726 54.9972 50.63 54.9972 49.3257C54.9972 48.0194 55.4436 46.9234 56.3472 46.0248C57.2468 45.1351 58.3557 44.6877 59.656 44.6877C60.9613 44.6877 62.0643 45.1331 62.9709 46.0248C63.8695 46.9234 64.3218 48.0204 64.3218 49.3257C64.3208 50.632 63.8695 51.728 62.9709 52.6237ZM57.9411 51.0615C58.4023 51.5147 58.9766 51.7439 59.655 51.7439C60.3434 51.7439 60.9167 51.5167 61.3759 51.0615C61.8292 50.6082 62.0544 50.0269 62.0544 49.3257C62.0544 48.6244 61.8292 48.0432 61.3759 47.5899C60.9157 47.1366 60.3424 46.9095 59.655 46.9095C58.9766 46.9095 58.4023 47.1366 57.9411 47.5899C57.4878 48.0432 57.2537 48.6244 57.2537 49.3257C57.2547 50.0269 57.4888 50.6082 57.9411 51.0615ZM69.05 48.1533C69.9546 48.1533 70.6796 48.4112 71.2252 48.9171C71.7677 49.4318 72.0405 50.1023 72.0405 50.9474C72.0405 51.8014 71.7677 52.4828 71.2252 52.9936C70.6796 53.5144 69.9546 53.7712 69.05 53.7712H65.3791V44.8772H71.2767V47.0742H67.6525V48.1533H69.05ZM68.9597 51.6863C69.2087 51.6863 69.4051 51.6248 69.5549 51.5048C69.7007 51.3769 69.776 51.1944 69.776 50.9464C69.776 50.7054 69.7007 50.5159 69.5549 50.388C69.4051 50.267 69.2097 50.2015 68.9597 50.2015H67.6535V51.6893H68.9597V51.6863ZM78.1335 53.7732L77.7556 52.4898H74.7939L74.41 53.7732H71.9492L74.8861 44.8772H77.6495L80.5854 53.7732H78.1335ZM75.3771 50.5318H77.1754L76.2678 47.5056L75.3771 50.5318ZM86.243 49.1888C87.0434 49.6342 87.4362 50.3285 87.4362 51.2727C87.4362 52.0801 87.1357 52.7397 86.5247 53.2297C85.9117 53.7197 85.1113 53.9617 84.1075 53.9617C82.3856 53.9617 81.2351 53.2684 80.6618 51.8768L82.6118 50.7589C82.8607 51.4612 83.3666 51.8163 84.1075 51.8163C84.8167 51.8163 85.1639 51.5495 85.1639 51.0297C85.1639 50.5705 84.8832 50.3106 84.3089 50.266L82.9659 50.2501V48.2793H83.8407C84.5271 48.2793 84.8683 48.0383 84.8683 47.5483C84.8683 47.0583 84.5668 46.8083 83.9558 46.8083C83.3438 46.8083 82.9193 47.1109 82.6852 47.705L80.7748 46.605C81.0486 46.001 81.4632 45.5318 82.0226 45.1926C82.5731 44.8514 83.2297 44.6848 83.9915 44.6848C84.9288 44.6848 85.6826 44.9268 86.2728 45.4177C86.855 45.9008 87.1476 46.5495 87.1476 47.3499C87.1486 48.1394 86.8481 48.7445 86.243 49.1888ZM93.7792 53.7732L93.4003 52.4898H90.4416L90.0577 53.7732H87.5939L90.5249 44.8772H93.2972L96.2331 53.7732H93.7792ZM91.0238 50.5318H92.8141L91.9155 47.5056L91.0238 50.5318Z" fill="#151616"/>
<path d="M50.996 83.1236L19.1442 65.876L19.7185 57.8102H3.51339L1 40.7986H20.9266L21.6903 30.0022L29.5578 25.7431L30.3593 18.7276L37.3896 12.6425L40.8314 15.6102L41.6011 9.13231L51.4959 1L61.3878 9.13231L62.1962 15.8681L65.8433 12.7179L72.8796 18.805L73.7475 26.4543L80.3027 30.0032L81.0724 40.7996H101L98.4777 57.8121H82.2736L82.8459 65.877L50.996 83.1236Z" fill="white"/>
<path d="M50.996 83.1236L19.1442 65.876L19.7185 57.8102H3.51339L1 40.7986H20.9266L21.6903 30.0022L29.5578 25.7431L30.3593 18.7276L37.3896 12.6425L40.8314 15.6102L41.6011 9.13232L51.4959 1L61.3878 9.13232L62.1962 15.8681L65.8433 12.7179L72.8796 18.805L73.7475 26.4543L80.3027 30.0032L81.0724 40.7996H101L98.4777 57.8121H82.2736L82.8459 65.877L50.996 83.1236Z" stroke="#151616" stroke-width="1.5001"/>
<path d="M63.3586 66.9641H38.6879V68.5313H63.3586V66.9641Z" fill="#FBCF2D"/>
<path d="M38.067 28.4618L31.9502 31.7151L32.8954 21.1518L37.4551 17.5741L43.2089 21.8242L43.5878 25.7134L38.067 28.4618ZM36.6477 28.1375L33.0908 30.0319L33.8833 21.6735L36.8371 18.8645L36.6477 28.1375Z" fill="#151616"/>
<path d="M65.6131 29.0133L60.2134 26.854L60.7718 20.4654L65.3255 16.8857L71.0783 21.1379L72.0682 31.241L65.6131 29.0133ZM64.5191 27.4422L61.362 25.1629L61.7547 20.9792L64.7085 18.1762L64.5191 27.4422Z" fill="#151616"/>
<path d="M51.5068 22.949L43.2783 25.8175L44.6302 10.8076L51.1012 5.71832L59.2712 11.7588L60.6836 26.121L51.5068 22.949ZM49.9536 20.7233L44.907 23.4172L46.0268 11.5406L50.2224 7.56022L49.9536 20.7233Z" fill="#151616"/>
<path d="M52.3539 20.9484L76.2004 32.0633L77.1506 42.9818H71.9939L75.0082 41.9026L74.2593 33.3993L51.487 22.7824L29.1502 33.197L28.2357 41.9026L31.1597 42.9818H26.0695L27.2339 31.8451L51.488 20.5487L52.3539 20.9484Z" fill="#151616"/>
<path d="M50.4575 22.1932C50.4575 21.9601 50.9197 21.7637 51.4861 21.7637C52.0535 21.7637 52.5127 21.9591 52.5127 22.1932V36.5277C52.5127 36.8143 52.0971 36.9333 51.6448 36.9413C51.0864 36.9562 50.4565 36.7905 50.4565 36.5277L50.4575 22.1932Z" fill="#151616"/>
<path d="M51.6824 35.4773L55.3285 37.7348L51.6824 36.9046V35.4773Z" fill="#151616"/>
<path d="M30.5081 34.9328L33.6493 34.6015V38.4827L30.5081 38.807V34.9328ZM44.658 33.4529L47.7983 33.1286V37.0018L44.658 37.3321V33.4529ZM39.9397 33.9439L43.081 33.6196V37.4928L39.9397 37.8241V33.9439ZM35.2214 34.4329L38.3706 34.1105V37.9838L35.2214 38.3151V34.4329Z" fill="#FCBD00"/>
<path d="M51.5971 35.4773L47.96 37.7348L51.5971 36.9046V35.4773Z" fill="#151616"/>
<path d="M44.5925 34.29L45.633 33.9647V29.2613L47.8161 28.4221V27.9619C46.7667 28.3854 45.7163 28.807 44.6659 29.2295L44.5925 34.29Z" fill="#313130"/>
<path d="M39.7969 35.8473L40.6568 35.5825L40.7719 31.2034L43.0819 30.3127L43.0889 29.8901C42.1069 30.274 40.9217 30.7421 39.9476 31.1339L39.7969 35.8473Z" fill="#313130"/>
<path d="M35.0012 37.3945L35.7878 37.1525L35.9762 33.0978L38.3706 32.1545L38.3755 31.7617C37.4799 32.1158 36.12 32.6742 35.2284 33.0303L35.0012 37.3945Z" fill="#313130"/>
<path d="M30.2065 38.9429L30.9921 38.7009L31.2559 34.9992L33.6503 34.049L33.6582 33.6642C32.7675 34.0203 31.3998 34.5787 30.5091 34.9328L30.2065 38.9429Z" fill="#313130"/>
<path d="M71.979 34.9328C70.9286 34.5113 69.8802 34.0887 68.8298 33.6642C68.8764 34.3734 68.9121 35.0846 68.9597 35.7878C68.9954 36.497 69.043 37.2071 69.0797 37.9163C70.145 38.2556 71.2182 38.6047 72.2825 38.9439C72.2289 38.2803 72.1773 37.6069 72.1297 36.9423C72.0772 36.2698 72.0325 35.5964 71.979 34.9328ZM57.8201 29.2306C56.7697 28.808 55.7203 28.3865 54.6709 27.963C54.6788 28.8467 54.6788 29.7305 54.6858 30.6142C54.6858 31.497 54.6947 32.3718 54.6947 33.2556C55.7669 33.6037 56.8292 33.9489 57.8955 34.2901C57.8806 33.4529 57.8726 32.6069 57.8588 31.7618C57.8439 30.9237 57.828 30.0786 57.8201 29.2306ZM62.5394 31.133C61.491 30.7124 60.4426 30.2889 59.3922 29.8654C59.414 30.6896 59.4289 31.5138 59.4448 32.3361C59.4616 33.1653 59.4755 33.9895 59.4963 34.8128C60.5616 35.152 61.6259 35.4982 62.6921 35.8463C62.6604 35.0617 62.6386 34.2742 62.6158 33.4896C62.5939 32.7061 62.5632 31.9205 62.5394 31.133Z" fill="#FCBD00"/>
<path d="M57.8956 34.29L56.8541 33.9647V29.2613L54.672 28.4221V27.9619C55.7214 28.3854 56.7708 28.807 57.8212 29.2295L57.8956 34.29Z" fill="#313130"/>
<path d="M62.6921 35.8472L61.8301 35.5824L61.7171 31.2033L59.3971 30.3126V29.8891C60.38 30.273 61.5594 30.7411 62.5383 31.1329L62.6921 35.8472Z" fill="#313130"/>
<path d="M67.4869 37.3945L66.7014 37.1525L66.5129 33.0978L64.1195 32.1545L64.1106 31.7617C65.0112 32.1158 66.3691 32.6742 67.2608 33.0303L67.4869 37.3945Z" fill="#313130"/>
<path d="M72.2815 38.9429L71.496 38.7009L71.2321 34.9992L68.8289 34.049V33.6642C69.7196 34.0203 71.0873 34.5787 71.978 34.9328L72.2815 38.9429Z" fill="#313130"/>
<path d="M43.6472 75.4366L50.9731 79.3337L58.3417 75.4138L51.0178 71.5187L43.6472 75.4366Z" fill="#151616"/>
<path d="M15.1946 44.8772V53.7732H12.9282V48.9845L10.7689 52.5572H10.5418L8.3914 48.9924V53.7732H6.11804V44.8772H8.39239L10.6568 48.676L12.9282 44.8772H15.1946ZM18.8814 51.6358H22.3242V53.7732H16.6001V44.8772H22.2567V46.9998H18.8814V48.2317H21.9393V50.3305H18.8814V51.6358ZM29.5053 44.8772V47.0742H27.3073V53.7732H25.028V47.0742H22.832V44.8772H29.5053ZM35.1232 53.7732L34.7384 52.4898H31.7756L31.3918 53.7732H28.932L31.8679 44.8772H34.6392L37.5711 53.7732H35.1232ZM32.3589 50.5318H34.1561L33.2496 47.5056L32.3589 50.5318ZM37.8042 53.7732V51.6496C38.2793 51.7101 38.6175 51.6417 38.8377 51.4384C39.048 51.242 39.1631 50.8264 39.1631 50.2005V44.8772H45.4892V53.7732H43.2158V47.0742H41.4354V50.3067C41.4354 51.0317 41.3293 51.6496 41.124 52.1565C40.9147 52.6544 40.634 53.0244 40.272 53.2664C39.908 53.4995 39.5311 53.6592 39.1234 53.7345C38.7167 53.8099 38.2793 53.8258 37.8042 53.7732ZM46.2539 53.7732V51.6496C46.729 51.7101 47.0682 51.6417 47.2875 51.4384C47.5057 51.242 47.6128 50.8264 47.6128 50.2005V44.8772H53.9399V53.7732H51.6656V47.0742H49.8861V50.3067C49.8861 51.0317 49.779 51.6496 49.5747 52.1565C49.3644 52.6544 49.0857 53.0244 48.7217 53.2664C48.3666 53.4995 47.9818 53.6592 47.5741 53.7345C47.1655 53.8099 46.729 53.8258 46.2539 53.7732ZM62.9709 52.6237C62.0633 53.5144 60.9623 53.9617 59.656 53.9617C58.3557 53.9617 57.2468 53.5173 56.3472 52.6237C55.4436 51.726 54.9972 50.63 54.9972 49.3257C54.9972 48.0194 55.4436 46.9234 56.3472 46.0248C57.2468 45.1351 58.3557 44.6877 59.656 44.6877C60.9613 44.6877 62.0643 45.1331 62.9709 46.0248C63.8695 46.9234 64.3218 48.0204 64.3218 49.3257C64.3208 50.632 63.8695 51.728 62.9709 52.6237ZM57.9411 51.0615C58.4023 51.5147 58.9766 51.7439 59.655 51.7439C60.3434 51.7439 60.9167 51.5167 61.3759 51.0615C61.8292 50.6082 62.0544 50.0269 62.0544 49.3257C62.0544 48.6244 61.8292 48.0432 61.3759 47.5899C60.9157 47.1366 60.3424 46.9095 59.655 46.9095C58.9766 46.9095 58.4023 47.1366 57.9411 47.5899C57.4878 48.0432 57.2537 48.6244 57.2537 49.3257C57.2547 50.0269 57.4888 50.6082 57.9411 51.0615ZM69.05 48.1533C69.9546 48.1533 70.6796 48.4112 71.2252 48.9171C71.7677 49.4318 72.0405 50.1023 72.0405 50.9474C72.0405 51.8014 71.7677 52.4828 71.2252 52.9936C70.6796 53.5144 69.9546 53.7712 69.05 53.7712H65.3791V44.8772H71.2767V47.0742H67.6525V48.1533H69.05ZM68.9597 51.6863C69.2087 51.6863 69.4051 51.6248 69.5549 51.5048C69.7007 51.3769 69.776 51.1944 69.776 50.9464C69.776 50.7054 69.7007 50.5159 69.5549 50.388C69.4051 50.267 69.2097 50.2015 68.9597 50.2015H67.6535V51.6893H68.9597V51.6863ZM78.1335 53.7732L77.7556 52.4898H74.7939L74.41 53.7732H71.9492L74.8861 44.8772H77.6495L80.5854 53.7732H78.1335ZM75.3771 50.5318H77.1754L76.2678 47.5056L75.3771 50.5318ZM86.243 49.1888C87.0434 49.6342 87.4362 50.3285 87.4362 51.2727C87.4362 52.0801 87.1357 52.7397 86.5247 53.2297C85.9117 53.7197 85.1113 53.9617 84.1075 53.9617C82.3856 53.9617 81.2351 53.2684 80.6618 51.8768L82.6118 50.7589C82.8607 51.4612 83.3666 51.8163 84.1075 51.8163C84.8167 51.8163 85.1639 51.5495 85.1639 51.0297C85.1639 50.5705 84.8832 50.3106 84.3089 50.266L82.9659 50.2501V48.2793H83.8407C84.5271 48.2793 84.8683 48.0383 84.8683 47.5483C84.8683 47.0583 84.5668 46.8083 83.9558 46.8083C83.3438 46.8083 82.9193 47.1109 82.6852 47.705L80.7748 46.605C81.0486 46.001 81.4632 45.5318 82.0226 45.1926C82.5731 44.8514 83.2297 44.6848 83.9915 44.6848C84.9288 44.6848 85.6826 44.9268 86.2728 45.4177C86.855 45.9008 87.1476 46.5495 87.1476 47.3499C87.1486 48.1394 86.8481 48.7445 86.243 49.1888ZM93.7792 53.7732L93.4003 52.4898H90.4416L90.0577 53.7732H87.5939L90.5249 44.8772H93.2972L96.2331 53.7732H93.7792ZM91.0238 50.5318H92.8141L91.9155 47.5056L91.0238 50.5318Z" fill="#151616"/>
<path d="M30.7501 60.0171C31.2927 60.3335 31.5734 60.8245 31.5734 61.4821C31.5734 62.0574 31.3681 62.5275 30.9763 62.8717C30.5776 63.2198 30.041 63.3924 29.3754 63.3924H26.627V56.859H29.2018C29.8515 56.859 30.3742 57.0256 30.766 57.3579C31.1588 57.6912 31.3552 58.1445 31.3552 58.7168C31.3552 59.2623 31.1499 59.6997 30.7501 60.0171ZM29.1562 58.3557H28.2963V59.3813H29.1562C29.3 59.3813 29.43 59.3367 29.5341 59.2474C29.6333 59.1542 29.6839 59.0252 29.6839 58.8665C29.6839 58.7108 29.6323 58.5809 29.5341 58.4886C29.4359 58.4014 29.308 58.3557 29.1562 58.3557ZM29.3318 61.8977C29.4974 61.8977 29.6323 61.8421 29.7394 61.7459C29.8426 61.6428 29.8981 61.5118 29.8981 61.3472C29.8981 61.1806 29.8436 61.0437 29.7394 60.9475C29.6333 60.8483 29.4974 60.7977 29.3318 60.7977H28.2973V61.8987H29.3318V61.8977ZM37.8479 62.5474C37.1844 63.204 36.374 63.5293 35.4169 63.5293C34.4577 63.5293 33.6504 63.204 32.9838 62.5474C32.3213 61.8907 31.99 61.0824 31.99 60.1242C31.99 59.1671 32.3213 58.3666 32.9838 57.707C33.6494 57.0494 34.4577 56.7172 35.4169 56.7172C36.374 56.7172 37.1844 57.0484 37.8479 57.707C38.5125 58.3637 38.8378 59.1651 38.8378 60.1242C38.8378 61.0834 38.5135 61.8907 37.8479 62.5474ZM34.1552 61.3988C34.4885 61.7301 34.911 61.8967 35.4169 61.8967C35.9227 61.8967 36.3393 61.7301 36.6785 61.3988C37.0088 61.0675 37.1745 60.643 37.1745 60.1242C37.1745 59.6085 37.0088 59.1879 36.6785 58.8556C36.3393 58.5243 35.9217 58.3577 35.4169 58.3577C34.912 58.3577 34.4885 58.5243 34.1552 58.8556C33.816 59.1879 33.6494 59.6114 33.6494 60.1242C33.6504 60.645 33.816 61.0675 34.1552 61.3988ZM38.822 63.3924V61.8372C39.1701 61.8749 39.425 61.8292 39.5837 61.6785C39.7434 61.5347 39.8198 61.2321 39.8198 60.7729V56.863H44.4706V63.3954H42.7954V58.4797H41.4891V60.8513C41.4891 61.3809 41.4137 61.8322 41.2619 62.2032C41.1112 62.5731 40.8989 62.8439 40.6341 63.0254C40.3712 63.2 40.0906 63.3121 39.789 63.3656C39.4954 63.4232 39.1711 63.4281 38.822 63.3924ZM50.8206 63.3924H48.9559L47.9293 61.6557L46.9037 63.3924H45.03L46.9999 60.0627L45.1054 56.86H46.9791L47.9293 58.4787L48.8805 56.86H50.7611L48.8646 60.0697L50.8206 63.3924ZM56.5813 62.5474C55.9257 63.204 55.1104 63.5293 54.1513 63.5293C53.1981 63.5293 52.3847 63.204 51.7202 62.5474C51.0616 61.8907 50.7303 61.0824 50.7303 60.1242C50.7303 59.1671 51.0616 58.3666 51.7202 57.707C52.3837 57.0494 53.1991 56.7172 54.1513 56.7172C55.1104 56.7172 55.9257 57.0484 56.5813 57.707C57.2459 58.3637 57.5782 59.1651 57.5782 60.1242C57.5791 61.0824 57.2469 61.8907 56.5813 62.5474ZM52.8975 61.3988C53.2288 61.7301 53.6543 61.8967 54.1522 61.8967C54.6561 61.8967 55.0796 61.7301 55.4129 61.3988C55.7531 61.0675 55.9198 60.643 55.9198 60.1242C55.9198 59.6085 55.7541 59.1879 55.4129 58.8556C55.0806 58.5243 54.6561 58.3577 54.1522 58.3577C53.6543 58.3577 53.2298 58.5243 52.8975 58.8556C52.5573 59.1879 52.3907 59.6114 52.3907 60.1242C52.3907 60.645 52.5573 61.0675 52.8975 61.3988ZM61.861 56.859H63.5224V63.3924H61.861V60.878H60.0271V63.3924H58.3558V56.859H60.0271V59.2772H61.861V56.859ZM69.9695 63.3924H68.1038L66.2332 60.4694V63.3924H64.5549V56.859H66.2332V59.6025L68.0146 56.859H69.8783L67.8023 60.03L69.9695 63.3924ZM74.667 63.3924L74.3873 62.4492H72.2132L71.9354 63.3924H70.1203L72.2746 56.859H74.3119L76.4653 63.3924H74.667ZM72.6436 61.0139H73.9578L73.2933 58.7931L72.6436 61.0139Z" fill="#151616"/>
<path d="M50.996 83.1236L19.1442 65.876L19.7185 57.8102H3.51339L1 40.7986H20.9266L21.6903 30.0022L29.5578 25.7431L30.3593 18.7276L37.3896 12.6425L40.8314 15.6102L41.6011 9.13231L51.4959 1L61.3878 9.13231L62.1962 15.8681L65.8433 12.7179L72.8796 18.805L73.7475 26.4543L80.3027 30.0032L81.0724 40.7996H101L98.4777 57.8121H82.2736L82.8459 65.877L50.996 83.1236Z" fill="white"/>
<path d="M50.996 83.1236L19.1442 65.876L19.7185 57.8102H3.51339L1 40.7986H20.9266L21.6903 30.0022L29.5578 25.7431L30.3593 18.7276L37.3896 12.6425L40.8314 15.6102L41.6011 9.13232L51.4959 1L61.3878 9.13232L62.1962 15.8681L65.8433 12.7179L72.8796 18.805L73.7475 26.4543L80.3027 30.0032L81.0724 40.7996H101L98.4777 57.8121H82.2736L82.8459 65.877L50.996 83.1236Z" stroke="#151616" stroke-width="1.5001"/>
<path d="M63.3586 66.9641H38.6879V68.5313H63.3586V66.9641Z" fill="#FBCF2D"/>
<path d="M38.067 28.4618L31.9502 31.7151L32.8954 21.1518L37.4551 17.5741L43.2089 21.8242L43.5878 25.7134L38.067 28.4618ZM36.6477 28.1375L33.0908 30.0319L33.8833 21.6735L36.8371 18.8645L36.6477 28.1375Z" fill="#151616"/>
<path d="M65.6131 29.0133L60.2134 26.854L60.7718 20.4654L65.3255 16.8857L71.0783 21.1379L72.0682 31.241L65.6131 29.0133ZM64.5191 27.4422L61.362 25.1629L61.7547 20.9792L64.7085 18.1762L64.5191 27.4422Z" fill="#151616"/>
<path d="M51.5068 22.949L43.2783 25.8175L44.6302 10.8076L51.1012 5.71832L59.2712 11.7588L60.6836 26.121L51.5068 22.949ZM49.9536 20.7233L44.907 23.4172L46.0268 11.5406L50.2224 7.56022L49.9536 20.7233Z" fill="#151616"/>
<path d="M52.3539 20.9484L76.2004 32.0633L77.1506 42.9818H71.9939L75.0082 41.9026L74.2593 33.3993L51.487 22.7824L29.1502 33.197L28.2357 41.9026L31.1597 42.9818H26.0695L27.2339 31.8451L51.488 20.5487L52.3539 20.9484Z" fill="#151616"/>
<path d="M50.4575 22.1932C50.4575 21.9601 50.9197 21.7637 51.4861 21.7637C52.0535 21.7637 52.5127 21.9591 52.5127 22.1932V36.5277C52.5127 36.8143 52.0971 36.9333 51.6448 36.9413C51.0864 36.9562 50.4565 36.7905 50.4565 36.5277L50.4575 22.1932Z" fill="#151616"/>
<path d="M51.6824 35.4773L55.3285 37.7348L51.6824 36.9046V35.4773Z" fill="#151616"/>
<path d="M30.5081 34.9328L33.6493 34.6015V38.4827L30.5081 38.807V34.9328ZM44.658 33.4529L47.7983 33.1286V37.0018L44.658 37.3321V33.4529ZM39.9397 33.9439L43.081 33.6196V37.4928L39.9397 37.8241V33.9439ZM35.2214 34.4329L38.3706 34.1105V37.9838L35.2214 38.3151V34.4329Z" fill="#FCBD00"/>
<path d="M51.5971 35.4773L47.96 37.7348L51.5971 36.9046V35.4773Z" fill="#151616"/>
<path d="M44.5925 34.29L45.633 33.9647V29.2613L47.8161 28.4221V27.9619C46.7667 28.3854 45.7163 28.807 44.6659 29.2295L44.5925 34.29Z" fill="#313130"/>
<path d="M39.7969 35.8473L40.6568 35.5825L40.7719 31.2034L43.0819 30.3127L43.0889 29.8901C42.1069 30.274 40.9217 30.7421 39.9476 31.1339L39.7969 35.8473Z" fill="#313130"/>
<path d="M35.0012 37.3945L35.7878 37.1525L35.9762 33.0978L38.3706 32.1545L38.3755 31.7617C37.4799 32.1158 36.12 32.6742 35.2284 33.0303L35.0012 37.3945Z" fill="#313130"/>
<path d="M30.2065 38.9429L30.9921 38.7009L31.2559 34.9992L33.6503 34.049L33.6582 33.6642C32.7675 34.0203 31.3998 34.5787 30.5091 34.9328L30.2065 38.9429Z" fill="#313130"/>
<path d="M71.979 34.9328C70.9286 34.5113 69.8802 34.0887 68.8298 33.6642C68.8764 34.3734 68.9121 35.0846 68.9597 35.7878C68.9954 36.497 69.043 37.2071 69.0797 37.9163C70.145 38.2556 71.2182 38.6047 72.2825 38.9439C72.2289 38.2803 72.1773 37.6069 72.1297 36.9423C72.0772 36.2698 72.0325 35.5964 71.979 34.9328ZM57.8201 29.2306C56.7697 28.808 55.7203 28.3865 54.6709 27.963C54.6788 28.8467 54.6788 29.7305 54.6858 30.6142C54.6858 31.497 54.6947 32.3718 54.6947 33.2556C55.7669 33.6037 56.8292 33.9489 57.8955 34.2901C57.8806 33.4529 57.8726 32.6069 57.8588 31.7618C57.8439 30.9237 57.828 30.0786 57.8201 29.2306ZM62.5394 31.133C61.491 30.7124 60.4426 30.2889 59.3922 29.8654C59.414 30.6896 59.4289 31.5138 59.4448 32.3361C59.4616 33.1653 59.4755 33.9895 59.4963 34.8128C60.5616 35.152 61.6259 35.4982 62.6921 35.8463C62.6604 35.0617 62.6386 34.2742 62.6158 33.4896C62.5939 32.7061 62.5632 31.9205 62.5394 31.133Z" fill="#FCBD00"/>
<path d="M57.8956 34.29L56.8541 33.9647V29.2613L54.672 28.4221V27.9619C55.7214 28.3854 56.7708 28.807 57.8212 29.2295L57.8956 34.29Z" fill="#313130"/>
<path d="M62.6921 35.8472L61.8301 35.5824L61.7171 31.2033L59.3971 30.3126V29.8891C60.38 30.273 61.5594 30.7411 62.5383 31.1329L62.6921 35.8472Z" fill="#313130"/>
<path d="M67.4869 37.3945L66.7014 37.1525L66.5129 33.0978L64.1195 32.1545L64.1106 31.7617C65.0112 32.1158 66.3691 32.6742 67.2608 33.0303L67.4869 37.3945Z" fill="#313130"/>
<path d="M72.2815 38.9429L71.496 38.7009L71.2321 34.9992L68.8289 34.049V33.6642C69.7196 34.0203 71.0873 34.5787 71.978 34.9328L72.2815 38.9429Z" fill="#313130"/>
<path d="M43.6472 75.4366L50.9731 79.3337L58.3417 75.4138L51.0178 71.5187L43.6472 75.4366Z" fill="#151616"/>
<path d="M15.1946 44.8772V53.7732H12.9282V48.9845L10.7689 52.5572H10.5418L8.3914 48.9924V53.7732H6.11804V44.8772H8.39239L10.6568 48.676L12.9282 44.8772H15.1946ZM18.8814 51.6358H22.3242V53.7732H16.6001V44.8772H22.2567V46.9998H18.8814V48.2317H21.9393V50.3305H18.8814V51.6358ZM29.5053 44.8772V47.0742H27.3073V53.7732H25.028V47.0742H22.832V44.8772H29.5053ZM35.1232 53.7732L34.7384 52.4898H31.7756L31.3918 53.7732H28.932L31.8679 44.8772H34.6392L37.5711 53.7732H35.1232ZM32.3589 50.5318H34.1561L33.2496 47.5056L32.3589 50.5318ZM37.8042 53.7732V51.6496C38.2793 51.7101 38.6175 51.6417 38.8377 51.4384C39.048 51.242 39.1631 50.8264 39.1631 50.2005V44.8772H45.4892V53.7732H43.2158V47.0742H41.4354V50.3067C41.4354 51.0317 41.3293 51.6496 41.124 52.1565C40.9147 52.6544 40.634 53.0244 40.272 53.2664C39.908 53.4995 39.5311 53.6592 39.1234 53.7345C38.7167 53.8099 38.2793 53.8258 37.8042 53.7732ZM46.2539 53.7732V51.6496C46.729 51.7101 47.0682 51.6417 47.2875 51.4384C47.5057 51.242 47.6128 50.8264 47.6128 50.2005V44.8772H53.9399V53.7732H51.6656V47.0742H49.8861V50.3067C49.8861 51.0317 49.779 51.6496 49.5747 52.1565C49.3644 52.6544 49.0857 53.0244 48.7217 53.2664C48.3666 53.4995 47.9818 53.6592 47.5741 53.7345C47.1655 53.8099 46.729 53.8258 46.2539 53.7732ZM62.9709 52.6237C62.0633 53.5144 60.9623 53.9617 59.656 53.9617C58.3557 53.9617 57.2468 53.5173 56.3472 52.6237C55.4436 51.726 54.9972 50.63 54.9972 49.3257C54.9972 48.0194 55.4436 46.9234 56.3472 46.0248C57.2468 45.1351 58.3557 44.6877 59.656 44.6877C60.9613 44.6877 62.0643 45.1331 62.9709 46.0248C63.8695 46.9234 64.3218 48.0204 64.3218 49.3257C64.3208 50.632 63.8695 51.728 62.9709 52.6237ZM57.9411 51.0615C58.4023 51.5147 58.9766 51.7439 59.655 51.7439C60.3434 51.7439 60.9167 51.5167 61.3759 51.0615C61.8292 50.6082 62.0544 50.0269 62.0544 49.3257C62.0544 48.6244 61.8292 48.0432 61.3759 47.5899C60.9157 47.1366 60.3424 46.9095 59.655 46.9095C58.9766 46.9095 58.4023 47.1366 57.9411 47.5899C57.4878 48.0432 57.2537 48.6244 57.2537 49.3257C57.2547 50.0269 57.4888 50.6082 57.9411 51.0615ZM69.05 48.1533C69.9546 48.1533 70.6796 48.4112 71.2252 48.9171C71.7677 49.4318 72.0405 50.1023 72.0405 50.9474C72.0405 51.8014 71.7677 52.4828 71.2252 52.9936C70.6796 53.5144 69.9546 53.7712 69.05 53.7712H65.3791V44.8772H71.2767V47.0742H67.6525V48.1533H69.05ZM68.9597 51.6863C69.2087 51.6863 69.4051 51.6248 69.5549 51.5048C69.7007 51.3769 69.776 51.1944 69.776 50.9464C69.776 50.7054 69.7007 50.5159 69.5549 50.388C69.4051 50.267 69.2097 50.2015 68.9597 50.2015H67.6535V51.6893H68.9597V51.6863ZM78.1335 53.7732L77.7556 52.4898H74.7939L74.41 53.7732H71.9492L74.8861 44.8772H77.6495L80.5854 53.7732H78.1335ZM75.3771 50.5318H77.1754L76.2678 47.5056L75.3771 50.5318ZM86.243 49.1888C87.0434 49.6342 87.4362 50.3285 87.4362 51.2727C87.4362 52.0801 87.1357 52.7397 86.5247 53.2297C85.9117 53.7197 85.1113 53.9617 84.1075 53.9617C82.3856 53.9617 81.2351 53.2684 80.6618 51.8768L82.6118 50.7589C82.8607 51.4612 83.3666 51.8163 84.1075 51.8163C84.8167 51.8163 85.1639 51.5495 85.1639 51.0297C85.1639 50.5705 84.8832 50.3106 84.3089 50.266L82.9659 50.2501V48.2793H83.8407C84.5271 48.2793 84.8683 48.0383 84.8683 47.5483C84.8683 47.0583 84.5668 46.8083 83.9558 46.8083C83.3438 46.8083 82.9193 47.1109 82.6852 47.705L80.7748 46.605C81.0486 46.001 81.4632 45.5318 82.0226 45.1926C82.5731 44.8514 83.2297 44.6848 83.9915 44.6848C84.9288 44.6848 85.6826 44.9268 86.2728 45.4177C86.855 45.9008 87.1476 46.5495 87.1476 47.3499C87.1486 48.1394 86.8481 48.7445 86.243 49.1888ZM93.7792 53.7732L93.4003 52.4898H90.4416L90.0577 53.7732H87.5939L90.5249 44.8772H93.2972L96.2331 53.7732H93.7792ZM91.0238 50.5318H92.8141L91.9155 47.5056L91.0238 50.5318Z" fill="#151616"/>
<path d="M30.7501 60.0171C31.2927 60.3335 31.5734 60.8245 31.5734 61.4821C31.5734 62.0574 31.3681 62.5275 30.9763 62.8717C30.5776 63.2198 30.041 63.3924 29.3754 63.3924H26.627V56.859H29.2018C29.8515 56.859 30.3742 57.0256 30.766 57.3579C31.1588 57.6912 31.3552 58.1445 31.3552 58.7168C31.3552 59.2623 31.1499 59.6997 30.7501 60.0171ZM29.1562 58.3557H28.2963V59.3813H29.1562C29.3 59.3813 29.43 59.3367 29.5341 59.2474C29.6333 59.1542 29.6839 59.0252 29.6839 58.8665C29.6839 58.7108 29.6323 58.5809 29.5341 58.4886C29.4359 58.4014 29.308 58.3557 29.1562 58.3557ZM29.3318 61.8977C29.4974 61.8977 29.6323 61.8421 29.7394 61.7459C29.8426 61.6428 29.8981 61.5118 29.8981 61.3472C29.8981 61.1806 29.8436 61.0437 29.7394 60.9475C29.6333 60.8483 29.4974 60.7977 29.3318 60.7977H28.2973V61.8987H29.3318V61.8977ZM37.8479 62.5474C37.1844 63.204 36.374 63.5293 35.4169 63.5293C34.4577 63.5293 33.6504 63.204 32.9838 62.5474C32.3213 61.8907 31.99 61.0824 31.99 60.1242C31.99 59.1671 32.3213 58.3666 32.9838 57.707C33.6494 57.0494 34.4577 56.7172 35.4169 56.7172C36.374 56.7172 37.1844 57.0484 37.8479 57.707C38.5125 58.3637 38.8378 59.1651 38.8378 60.1242C38.8378 61.0834 38.5135 61.8907 37.8479 62.5474ZM34.1552 61.3988C34.4885 61.7301 34.911 61.8967 35.4169 61.8967C35.9227 61.8967 36.3393 61.7301 36.6785 61.3988C37.0088 61.0675 37.1745 60.643 37.1745 60.1242C37.1745 59.6085 37.0088 59.1879 36.6785 58.8556C36.3393 58.5243 35.9217 58.3577 35.4169 58.3577C34.912 58.3577 34.4885 58.5243 34.1552 58.8556C33.816 59.1879 33.6494 59.6114 33.6494 60.1242C33.6504 60.645 33.816 61.0675 34.1552 61.3988ZM38.822 63.3924V61.8372C39.1701 61.8749 39.425 61.8292 39.5837 61.6785C39.7434 61.5347 39.8198 61.2321 39.8198 60.7729V56.863H44.4706V63.3954H42.7954V58.4797H41.4891V60.8513C41.4891 61.3809 41.4137 61.8322 41.2619 62.2032C41.1112 62.5731 40.8989 62.8439 40.6341 63.0254C40.3712 63.2 40.0906 63.3121 39.789 63.3656C39.4954 63.4232 39.1711 63.4281 38.822 63.3924ZM50.8206 63.3924H48.9559L47.9293 61.6557L46.9037 63.3924H45.03L46.9999 60.0627L45.1054 56.86H46.9791L47.9293 58.4787L48.8805 56.86H50.7611L48.8646 60.0697L50.8206 63.3924ZM56.5813 62.5474C55.9257 63.204 55.1104 63.5293 54.1513 63.5293C53.1981 63.5293 52.3847 63.204 51.7202 62.5474C51.0616 61.8907 50.7303 61.0824 50.7303 60.1242C50.7303 59.1671 51.0616 58.3666 51.7202 57.707C52.3837 57.0494 53.1991 56.7172 54.1513 56.7172C55.1104 56.7172 55.9257 57.0484 56.5813 57.707C57.2459 58.3637 57.5782 59.1651 57.5782 60.1242C57.5791 61.0824 57.2469 61.8907 56.5813 62.5474ZM52.8975 61.3988C53.2288 61.7301 53.6543 61.8967 54.1522 61.8967C54.6561 61.8967 55.0796 61.7301 55.4129 61.3988C55.7531 61.0675 55.9198 60.643 55.9198 60.1242C55.9198 59.6085 55.7541 59.1879 55.4129 58.8556C55.0806 58.5243 54.6561 58.3577 54.1522 58.3577C53.6543 58.3577 53.2298 58.5243 52.8975 58.8556C52.5573 59.1879 52.3907 59.6114 52.3907 60.1242C52.3907 60.645 52.5573 61.0675 52.8975 61.3988ZM61.861 56.859H63.5224V63.3924H61.861V60.878H60.0271V63.3924H58.3558V56.859H60.0271V59.2772H61.861V56.859ZM69.9695 63.3924H68.1038L66.2332 60.4694V63.3924H64.5549V56.859H66.2332V59.6025L68.0146 56.859H69.8783L67.8023 60.03L69.9695 63.3924ZM74.667 63.3924L74.3873 62.4492H72.2132L71.9354 63.3924H70.1203L72.2746 56.859H74.3119L76.4653 63.3924H74.667ZM72.6436 61.0139H73.9578L73.2933 58.7931L72.6436 61.0139Z" fill="#151616"/>
<path d="M47.4372 69.6163C46.856 69.6163 46.365 69.419 45.9802 69.0321C45.5963 68.6483 45.4059 68.1642 45.4059 67.5979C45.4059 67.0246 45.5963 66.5485 45.9802 66.1567C46.365 65.7709 46.855 65.5814 47.4372 65.5814C47.7933 65.5814 48.1186 65.6677 48.4112 65.8324C48.7128 65.999 48.9478 66.2251 49.1135 66.5058L48.5551 66.8302C48.4479 66.6437 48.2982 66.4801 48.1028 66.369C47.9054 66.2559 47.6872 66.2023 47.4372 66.2023C47.0226 66.2023 46.6904 66.3313 46.4315 66.5951C46.1766 66.8609 46.0476 67.1922 46.0476 67.6009C46.0476 67.9986 46.1766 68.3319 46.4315 68.5987C46.6894 68.8625 47.0226 68.9915 47.4372 68.9915C47.6862 68.9915 47.9054 68.9379 48.1107 68.8248C48.3061 68.7118 48.4579 68.561 48.5561 68.3636L49.1155 68.68C48.9488 68.9667 48.7217 69.1938 48.4212 69.3604C48.1246 69.531 47.7943 69.6163 47.4372 69.6163ZM52.5037 65.6509V69.539H51.8629V66.2618H50.2779V69.539H49.6431V65.6509H52.5037ZM54.7552 67.1525C55.1103 67.1525 55.4128 67.2636 55.6459 67.4927C55.8879 67.7199 56.001 67.9986 56.001 68.3448C56.001 68.6929 55.8869 68.9726 55.6459 69.1968C55.4128 69.4239 55.1103 69.538 54.7552 69.538H53.2823V65.6499H55.6697V66.2589H53.9191V67.1486L54.7552 67.1525ZM54.7552 68.9438C54.9288 68.9438 55.0716 68.8893 55.1936 68.7762C55.3067 68.6711 55.3672 68.5283 55.3672 68.3448C55.3672 68.1623 55.3057 68.0214 55.1936 67.9133C55.0726 67.8101 54.9288 67.7477 54.7552 67.7477H53.9181V68.9409L54.7552 68.9438Z" fill="#151616"/>
</svg>
