<svg width="37" height="37" viewBox="0 0 37 37" fill="none" xmlns="http://www.w3.org/2000/svg">
<path d="M27.708 24.0116C27.365 23.6747 26.9575 23.4073 26.5087 23.2249C26.06 23.0425 25.5789 22.9486 25.093 22.9486C24.6071 22.9486 24.1259 23.0425 23.6772 23.2249C23.2284 23.4073 22.8209 23.6747 22.4779 24.0116L20.6935 25.7586C18.6844 24.5103 16.823 23.0475 15.1434 21.3972C13.4614 19.7498 11.9676 17.9278 10.6886 15.9636L12.473 14.2166C12.8172 13.8809 13.0903 13.4819 13.2766 13.0425C13.4629 12.6032 13.5589 12.1322 13.5589 11.6565C13.5589 11.1807 13.4629 10.7097 13.2766 10.2704C13.0903 9.83105 12.8172 9.43205 12.473 9.09626L8.99037 5.69873C8.65223 5.36065 8.24811 5.09258 7.80205 4.91045C7.35598 4.72832 6.87707 4.63584 6.39377 4.63851C5.90704 4.63734 5.42488 4.73041 4.97503 4.91236C4.52518 5.09432 4.11652 5.36157 3.77256 5.69873L2.09893 7.3252C1.30121 8.16491 0.705836 9.16896 0.356579 10.2636C0.00732304 11.3581 -0.0869402 12.5154 0.0807186 13.6504C0.474515 18.1684 3.50183 23.602 8.16586 28.1802C12.8299 32.7585 18.4415 35.7102 23.0563 36.144C23.4006 36.162 23.7457 36.162 24.09 36.144C25.0834 36.1848 26.0751 36.0311 27.007 35.6918C27.9389 35.3525 28.7923 34.8345 29.517 34.1681L31.1783 32.5296C31.5227 32.1928 31.7957 31.7927 31.9816 31.3523C32.1674 30.9119 32.2625 30.4399 32.2613 29.9633C32.264 29.4902 32.1696 29.0213 31.9835 28.5846C31.7975 28.1479 31.5237 27.7523 31.1783 27.4212L27.708 24.0116ZM29.4432 30.8308L27.7695 32.4573C27.1507 32.9622 26.4283 33.3311 25.6513 33.5389C24.8742 33.7468 24.0606 33.7888 23.2655 33.6621C19.266 33.3247 14.1713 30.5537 9.96255 26.4333C5.75385 22.3129 2.92344 17.3612 2.54195 13.4456C2.40924 12.6672 2.45053 11.8699 2.66299 11.1086C2.87544 10.3473 3.254 9.64021 3.77256 9.03602L5.50773 7.39749C5.62272 7.28583 5.75909 7.19749 5.90902 7.13753C6.05896 7.07758 6.21951 7.04718 6.38146 7.0481C6.54342 7.04718 6.70397 7.07758 6.85391 7.13753C7.00384 7.19749 7.14021 7.28583 7.2552 7.39749L10.7378 10.8432C10.967 11.0689 11.0957 11.3743 11.0957 11.6926C11.0957 12.0109 10.967 12.3162 10.7378 12.542L8.27661 14.9516C8.08402 15.1392 7.96026 15.3839 7.92464 15.6477C7.88903 15.9114 7.94355 16.1792 8.07971 16.4094C9.55324 18.8653 11.3442 21.1249 13.4083 23.1321C15.4586 25.1529 17.7666 26.9063 20.2751 28.3489C20.5102 28.4822 20.7838 28.5356 21.0531 28.5007C21.3225 28.4659 21.5725 28.3447 21.7641 28.1562L24.2254 25.7466C24.4559 25.5222 24.7678 25.3962 25.093 25.3962C25.4181 25.3962 25.73 25.5222 25.9605 25.7466L29.4432 29.1561C29.5572 29.2687 29.6475 29.4022 29.7087 29.549C29.77 29.6958 29.801 29.853 29.8001 30.0115C29.7924 30.3192 29.6647 30.6124 29.4432 30.8308ZM31.5844 5.2891C29.8742 3.60837 27.8411 2.2757 25.6022 1.36794C23.3634 0.460179 20.9632 -0.00472478 18.5399 3.61999e-05C18.2136 3.61999e-05 17.9005 0.12697 17.6698 0.352913C17.439 0.578856 17.3093 0.885301 17.3093 1.20483C17.3093 1.52437 17.439 1.83081 17.6698 2.05675C17.9005 2.2827 18.2136 2.40963 18.5399 2.40963C20.6523 2.40956 22.7437 2.81903 24.6935 3.61441C26.6434 4.40979 28.413 5.57534 29.9004 7.04379C31.3877 8.51224 32.5633 10.2545 33.3592 12.1701C34.1552 14.0857 34.5558 16.1366 34.5379 18.2045C34.5379 18.5241 34.6676 18.8305 34.8984 19.0564C35.1291 19.2824 35.4422 19.4093 35.7685 19.4093C36.0949 19.4093 36.4079 19.2824 36.6387 19.0564C36.8695 18.8305 36.9991 18.5241 36.9991 18.2045C37.0227 15.8069 36.5558 13.4289 35.6258 11.2108C34.6959 8.99259 33.3217 6.97914 31.5844 5.2891Z" fill="white"/>
<path d="M24.5826 12.1806C25.281 12.8602 25.8335 13.6697 26.2076 14.5615C26.5816 15.4533 26.7697 16.4093 26.7608 17.3733C26.7608 17.6928 26.8904 17.9992 27.1212 18.2252C27.352 18.4511 27.665 18.5781 27.9914 18.5781C28.3178 18.5781 28.6308 18.4511 28.8616 18.2252C29.0924 17.9992 29.222 17.6928 29.222 17.3733C29.2383 16.0974 28.9957 14.8311 28.5082 13.6478C28.0208 12.4645 27.2982 11.3877 26.3824 10.4799C25.4666 9.57208 24.3758 8.85133 23.1732 8.35944C21.9707 7.86755 20.6804 7.61431 19.3771 7.61441C19.0507 7.61441 18.7377 7.74134 18.5069 7.96729C18.2761 8.19323 18.1465 8.49968 18.1465 8.81921C18.1465 9.13874 18.2761 9.44519 18.5069 9.67113C18.7377 9.89707 19.0507 10.024 19.3771 10.024C20.3469 10.0312 21.3058 10.2253 22.199 10.5953C23.0922 10.9654 23.9021 11.504 24.5826 12.1806Z" fill="white"/>
</svg>
