<svg width="50" height="41" viewBox="0 0 50 41" fill="none" xmlns="http://www.w3.org/2000/svg">
<rect width="50" height="40.9091" rx="8" fill="url(#paint0_linear_123_68)"/>
<g clip-path="url(#clip0_123_68)">
<path fill-rule="evenodd" clip-rule="evenodd" d="M16.767 19.1147C21.8917 16.9462 25.3089 15.5167 27.0187 14.826C31.9006 12.8539 32.9151 12.5114 33.5762 12.5001C33.7217 12.4976 34.0468 12.5326 34.2574 12.6986C34.4353 12.8387 34.4842 13.028 34.5076 13.1609C34.531 13.2938 34.5602 13.5965 34.537 13.833C34.2725 16.5326 33.1277 23.0838 32.5454 26.1074C32.299 27.3868 31.8137 27.8158 31.344 27.8578C30.3232 27.949 29.548 27.2026 28.5592 26.5731C27.012 25.5881 26.138 24.9749 24.6362 24.0138C22.9006 22.903 24.0257 22.2925 25.0148 21.2947C25.2736 21.0336 29.7715 17.0603 29.8586 16.6998C29.8695 16.6548 29.8796 16.4867 29.7768 16.398C29.674 16.3093 29.5223 16.3396 29.4128 16.3637C29.2577 16.3979 26.786 17.9846 21.9979 21.1236C21.2963 21.5915 20.6608 21.8194 20.0915 21.8075C19.4638 21.7943 18.2564 21.4628 17.3589 21.1794C16.258 20.8319 15.383 20.6481 15.4592 20.0579C15.4989 19.7505 15.9348 19.4361 16.767 19.1147Z" fill="white"/>
</g>
<defs>
<linearGradient id="paint0_linear_123_68" x1="0" y1="0" x2="35.5451" y2="50.9863" gradientUnits="userSpaceOnUse">
<stop stop-color="#28A9EA" stop-opacity="0.3"/>
<stop offset="1" stop-color="#28A9EA"/>
</linearGradient>
<clipPath id="clip0_123_68">
<rect width="19.0909" height="19.0909" fill="white" transform="translate(15.4546 10.9091)"/>
</clipPath>
</defs>
</svg>
