<svg width="49" height="49" viewBox="0 0 49 49" fill="none" xmlns="http://www.w3.org/2000/svg">
<path fill-rule="evenodd" clip-rule="evenodd" d="M14.9261 23.2868C20.513 20.868 24.2384 19.2733 26.1024 18.5029C31.4246 16.3031 32.5305 15.921 33.2513 15.9083C33.4099 15.9056 33.7643 15.9446 33.994 16.1298C34.1878 16.2861 34.2412 16.4973 34.2667 16.6455C34.2922 16.7937 34.324 17.1314 34.2988 17.3952C34.0103 20.4065 32.7624 27.7143 32.1275 31.087C31.8589 32.5142 31.3299 32.9927 30.8178 33.0395C29.7049 33.1413 28.8598 32.3086 27.7819 31.6065C26.0951 30.5078 25.1422 29.8238 23.505 28.7516C21.6128 27.5126 22.8394 26.8316 23.9178 25.7186C24.2 25.4273 29.1035 20.9952 29.1984 20.5931C29.2103 20.5428 29.2213 20.3554 29.1092 20.2564C28.9972 20.1574 28.8318 20.1913 28.7125 20.2182C28.5433 20.2563 25.8487 22.0262 20.6288 25.5277C19.8639 26.0496 19.1711 26.3039 18.5504 26.2905C17.8662 26.2759 16.5499 25.9061 15.5714 25.59C14.3712 25.2023 13.4173 24.9973 13.5004 24.3389C13.5437 23.996 14.0189 23.6453 14.9261 23.2868Z" fill="url(#paint0_radial_120_1255)"/>
<circle cx="24.5145" cy="24.4854" r="23.9854" stroke="url(#paint1_radial_120_1255)"/>
<defs>
<radialGradient id="paint0_radial_120_1255" cx="0" cy="0" r="1" gradientUnits="userSpaceOnUse" gradientTransform="translate(23.9017 15.9082) rotate(90) scale(23.4244 22.0686)">
<stop stop-color="#FFC400"/>
<stop offset="1" stop-color="#FF9900"/>
</radialGradient>
<radialGradient id="paint1_radial_120_1255" cx="0" cy="0" r="1" gradientUnits="userSpaceOnUse" gradientTransform="translate(24.5145 4.12235e-06) rotate(90) scale(66.9268 51.926)">
<stop stop-color="#FFC400"/>
<stop offset="1" stop-color="#FF9900"/>
</radialGradient>
</defs>
</svg>
