<svg width="37" height="33" viewBox="0 0 37 33" fill="none" xmlns="http://www.w3.org/2000/svg">
<path d="M4.63887 23.6239H5.13887V23.1239V20.7975C5.13887 19.7971 5.95101 18.985 6.95137 18.985C7.95173 18.985 8.76387 19.7971 8.76387 20.7975V23.1239V23.6239H9.26387H11.5903C12.5906 23.6239 13.4028 24.436 13.4028 25.4364C13.4028 26.4367 12.5906 27.2489 11.5903 27.2489H9.26387H8.76387V27.7489V30.0752C8.76387 31.0756 7.95172 31.8877 6.95137 31.8877C5.95101 31.8877 5.13887 31.0756 5.13887 30.0752V27.7489V27.2489H4.63887H2.3125C1.31214 27.2489 0.5 26.4367 0.5 25.4364C0.5 24.436 1.31214 23.6239 2.3125 23.6239H4.63887ZM29.6951 4.0339L30.0486 4.38745L30.4022 4.0339L33.4061 1.02996C34.1127 0.323347 35.2623 0.323347 35.9689 1.02996C36.6755 1.73657 36.6755 2.88612 35.9689 3.59273L32.9649 6.59667L32.6114 6.95022L32.9649 7.30378L35.9689 10.3077C36.6755 11.0143 36.6755 12.1639 35.9689 12.8705C35.2623 13.5771 34.1127 13.5771 33.4061 12.8705L30.4022 9.86655L30.0486 9.51299L29.6951 9.86655L26.6911 12.8705C25.9845 13.5771 24.835 13.5771 24.1284 12.8705C23.4217 12.1639 23.4217 11.0143 24.1284 10.3077L27.1323 7.30378L27.4859 6.95022L27.1323 6.59667L24.1284 3.59273C23.4217 2.88612 23.4217 1.73657 24.1284 1.02996C24.835 0.323347 25.9845 0.323347 26.6911 1.02996L29.6951 4.0339ZM34.6875 31.86H25.4097C24.4094 31.86 23.5972 31.0478 23.5972 30.0475C23.5972 29.0471 24.4094 28.235 25.4097 28.235H34.6875C35.6879 28.235 36.5 29.0471 36.5 30.0475C36.5 31.0478 35.6879 31.86 34.6875 31.86ZM34.6875 22.61H25.4097C24.4094 22.61 23.5972 21.7978 23.5972 20.7975C23.5972 19.7971 24.4094 18.985 25.4097 18.985H34.6875C35.6879 18.985 36.5 19.7971 36.5 20.7975C36.5 21.7978 35.6879 22.61 34.6875 22.61ZM11.5903 8.74885H2.3125C1.31214 8.74885 0.5 7.9367 0.5 6.93635C0.5 5.93599 1.31214 5.12385 2.3125 5.12385H11.5903C12.5906 5.12385 13.4028 5.93599 13.4028 6.93635C13.4028 7.9367 12.5906 8.74885 11.5903 8.74885Z" fill="white" stroke="#FFB000"/>
</svg>
