<svg width="50" height="41" viewBox="0 0 50 41" fill="none" xmlns="http://www.w3.org/2000/svg">
<g clip-path="url(#clip0_123_73)">
<path d="M42.7273 0H7.27273C3.25611 0 0 3.25611 0 7.27273V33.6364C0 37.653 3.25611 40.9091 7.27273 40.9091H42.7273C46.7439 40.9091 50 37.653 50 33.6364V7.27273C50 3.25611 46.7439 0 42.7273 0Z" fill="#0077FF"/>
<g clip-path="url(#clip1_123_73)">
<path d="M25.8526 26.529C19.3299 26.529 15.6096 21.9686 15.4546 14.3802H18.7219C18.8292 19.9499 21.2378 22.3092 23.1458 22.7956V14.3802H26.2223V19.1837C28.1064 18.977 30.0856 16.7881 30.7534 14.3802H33.83C33.3172 17.3475 31.1708 19.5364 29.6445 20.4363C31.1708 21.166 33.6154 23.0753 34.5455 26.529H31.1589C30.4315 24.2184 28.6192 22.4307 26.2223 22.1875V26.529H25.8526Z" fill="white"/>
</g>
</g>
<defs>
<clipPath id="clip0_123_73">
<rect width="50" height="40.9091" fill="white"/>
</clipPath>
<clipPath id="clip1_123_73">
<rect width="19.0909" height="19.0909" fill="white" transform="translate(15.4546 10.9091)"/>
</clipPath>
</defs>
</svg>
