<svg width="49" height="49" viewBox="0 0 49 49" fill="none" xmlns="http://www.w3.org/2000/svg">
<path d="M13.8428 35.1413L15.3367 29.8477C14.0318 27.6283 13.5782 25.0112 14.0602 22.4828C14.5421 19.9544 15.9269 17.6869 17.957 16.102C19.9871 14.517 22.5243 13.7225 25.0968 13.8662C27.6693 14.0098 30.1021 15.0819 31.9427 16.8829C33.7833 18.684 34.9065 21.0915 35.1033 23.6578C35.3002 26.2241 34.5574 28.7745 33.0131 30.8347C31.4687 32.8949 29.2279 34.3247 26.7073 34.8583C24.1867 35.3919 21.5579 34.9928 19.3098 33.7354L13.8428 35.1413ZM19.5859 31.8051L19.9107 32.0051C21.7628 33.1315 23.965 33.5376 26.0977 33.146C28.2303 32.7544 30.144 31.5925 31.4741 29.8818C32.8041 28.1712 33.4575 26.0313 33.3095 23.8703C33.1615 21.7094 32.2225 19.6783 30.6717 18.1645C29.1208 16.6507 27.0665 15.76 24.9003 15.6621C22.7342 15.5643 20.6078 16.2662 18.9265 17.6341C17.2452 19.0019 16.1266 20.94 15.784 23.0788C15.4414 25.2177 15.8988 27.4076 17.0689 29.2312L17.2908 29.5719L16.4302 32.6215L19.5859 31.8051Z" fill="url(#paint0_radial_120_1249)"/>
<path d="M21.5229 19.5189L20.8354 19.4811C20.6184 19.4677 20.4048 19.5395 20.24 19.6812C19.7407 20.0906 19.3797 20.6438 19.2062 21.2655C18.9626 22.3469 19.3415 23.6933 20.3212 25.0505C21.772 27.1585 23.9021 28.7063 26.3566 29.4357C26.7687 29.5711 27.2057 29.6136 27.6362 29.5603C28.0667 29.507 28.48 29.3592 28.8466 29.1275C29.0932 28.9677 29.3058 28.7607 29.4721 28.5185C29.6384 28.2763 29.7551 28.0036 29.8155 27.7162L29.9237 27.1755C29.941 27.096 29.9306 27.013 29.8941 26.9402C29.8577 26.8674 29.7975 26.8093 29.7235 26.7754L27.3905 25.6939C27.3167 25.6602 27.2337 25.6525 27.155 25.6721C27.0763 25.6918 27.0066 25.7376 26.9575 25.8021L26.0427 26.9863C26.0093 27.0296 25.9631 27.0613 25.9106 27.0768C25.8581 27.0924 25.802 27.0909 25.7504 27.0728C24.0935 26.4809 22.7121 25.3012 21.8693 23.7582C21.8441 23.7111 21.8337 23.6575 21.8395 23.6045C21.8453 23.5514 21.867 23.5013 21.9018 23.4608L22.7787 22.4496C22.8226 22.3992 22.8514 22.3376 22.8619 22.2716C22.8725 22.2056 22.8643 22.1381 22.8382 22.0765L21.8314 19.7623C21.8053 19.7011 21.7626 19.6484 21.708 19.6102C21.6535 19.5719 21.5894 19.5497 21.5229 19.546V19.5189Z" fill="url(#paint1_radial_120_1249)"/>
<circle cx="24.4854" cy="24.4854" r="23.9854" stroke="url(#paint2_radial_120_1249)"/>
<defs>
<radialGradient id="paint0_radial_120_1249" cx="0" cy="0" r="1" gradientUnits="userSpaceOnUse" gradientTransform="translate(24.4886 13.8496) rotate(90) scale(29.0986 22.5765)">
<stop stop-color="#FFC400"/>
<stop offset="1" stop-color="#FF9900"/>
</radialGradient>
<radialGradient id="paint1_radial_120_1249" cx="0" cy="0" r="1" gradientUnits="userSpaceOnUse" gradientTransform="translate(24.5332 19.4795) rotate(90) scale(13.8076 11.4489)">
<stop stop-color="#FFC400"/>
<stop offset="1" stop-color="#FF9900"/>
</radialGradient>
<radialGradient id="paint2_radial_120_1249" cx="0" cy="0" r="1" gradientUnits="userSpaceOnUse" gradientTransform="translate(24.4854 4.12235e-06) rotate(90) scale(66.9268 51.926)">
<stop stop-color="#FFC400"/>
<stop offset="1" stop-color="#FF9900"/>
</radialGradient>
</defs>
</svg>
