<svg width="50" height="41" viewBox="0 0 50 41" fill="none" xmlns="http://www.w3.org/2000/svg">
<rect width="50" height="40.9091" rx="8" fill="url(#paint0_linear_123_61)"/>
<g clip-path="url(#clip0_123_61)">
<path d="M15.4546 30L16.7941 25.2535C15.6241 23.2636 15.2174 20.9169 15.6495 18.6499C16.0817 16.3828 17.3233 14.3497 19.1436 12.9286C20.9638 11.5075 23.2388 10.7951 25.5454 10.9239C27.852 11.0527 30.0333 12.0139 31.6836 13.6289C33.334 15.2438 34.3411 17.4024 34.5176 19.7035C34.6941 22.0045 34.0281 24.2913 32.6434 26.1385C31.2586 27.9858 29.2494 29.2678 26.9894 29.7462C24.7294 30.2246 22.3723 29.8669 20.3565 28.7394L15.4546 30ZM20.6041 27.0086L20.8953 27.188C22.5559 28.1979 24.5306 28.562 26.4428 28.2109C28.3549 27.8598 30.0709 26.818 31.2635 25.2842C32.4561 23.7503 33.0418 21.8316 32.9091 19.894C32.7765 17.9564 31.9346 16.1353 30.544 14.778C29.1534 13.4206 27.3115 12.622 25.3692 12.5342C23.427 12.4465 21.5204 13.0759 20.0129 14.3023C18.5053 15.5288 17.5024 17.2666 17.1952 19.1843C16.888 21.1021 17.2981 23.0657 18.3472 24.7008L18.5462 25.0062L17.7745 27.7407L20.6041 27.0086Z" fill="white"/>
<path d="M22.3375 15.9945L21.7212 15.9605C21.5266 15.9485 21.335 16.0129 21.1873 16.1399C20.7396 16.5071 20.4159 17.0031 20.2603 17.5605C20.0419 18.5301 20.3816 19.7373 21.2601 20.9543C22.5609 22.8444 24.4708 24.2322 26.6716 24.8862C27.0411 25.0076 27.4329 25.0457 27.8189 24.998C28.2049 24.9502 28.5756 24.8176 28.9042 24.6099C29.1254 24.4666 29.316 24.281 29.4651 24.0638C29.6142 23.8466 29.7188 23.6022 29.773 23.3445L29.87 22.8596C29.8855 22.7883 29.8762 22.7139 29.8435 22.6487C29.8109 22.5834 29.7569 22.5313 29.6905 22.5009L27.5986 21.5312C27.5325 21.5009 27.458 21.494 27.3875 21.5117C27.3169 21.5293 27.2544 21.5704 27.2104 21.6282L26.3902 22.6899C26.3602 22.7288 26.3188 22.7572 26.2717 22.7712C26.2246 22.7851 26.1744 22.7838 26.1281 22.7675C24.6424 22.2368 23.4039 21.1791 22.6482 19.7955C22.6256 19.7533 22.6162 19.7053 22.6214 19.6577C22.6266 19.6101 22.6461 19.5652 22.6773 19.5289L23.4635 18.6222C23.5029 18.5771 23.5287 18.5217 23.5382 18.4626C23.5476 18.4035 23.5403 18.3429 23.5169 18.2877L22.6142 16.2126C22.5907 16.1578 22.5524 16.1105 22.5036 16.0763C22.4547 16.042 22.3972 16.0221 22.3375 16.0187V15.9945Z" fill="white"/>
</g>
<defs>
<linearGradient id="paint0_linear_123_61" x1="0" y1="0" x2="35.5451" y2="50.9863" gradientUnits="userSpaceOnUse">
<stop stop-color="#00D729" stop-opacity="0.3"/>
<stop offset="1" stop-color="#00D729"/>
</linearGradient>
<clipPath id="clip0_123_61">
<rect width="19.0909" height="19.0909" fill="white" transform="translate(15.4546 10.9091)"/>
</clipPath>
</defs>
</svg>
