<svg width="64" height="65" viewBox="0 0 64 65" fill="none" xmlns="http://www.w3.org/2000/svg">
<g filter="url(#filter0_d_34_74)">
<path d="M32 52.7771C45.2548 52.7771 56 42.0233 56 28.7578C56 15.4923 45.2548 4.73853 32 4.73853C18.7452 4.73853 8 15.4923 8 28.7578C8 42.0233 18.7452 52.7771 32 52.7771Z" fill="white"/>
</g>
<g opacity="0.85">
<g filter="url(#filter1_d_34_74)">
<path d="M28.625 23.1533C28.625 21.3159 30.0875 19.9107 32 19.9107C33.9125 19.9107 35.375 21.3159 35.375 23.1533V25.315H37.625V23.1533C37.625 20.1269 35.15 17.749 32 17.749C28.85 17.749 26.375 20.1269 26.375 23.1533V25.315H28.625V23.1533ZM33.6875 31.2597C33.6875 30.3951 32.9 29.6385 32 29.6385C31.1 29.6385 30.3125 30.3951 30.3125 31.2597C30.3125 31.6921 30.5375 32.1244 30.875 32.4487V33.9619C30.875 34.6104 31.325 35.0427 32 35.0427C32.675 35.0427 33.125 34.6104 33.125 33.9619V32.4487C33.4625 32.1244 33.6875 31.6921 33.6875 31.2597Z" fill="#44444E"/>
<path d="M28.625 23.1533C28.625 21.3159 30.0875 19.9107 32 19.9107C33.9125 19.9107 35.375 21.3159 35.375 23.1533V25.315H37.625V23.1533C37.625 20.1269 35.15 17.749 32 17.749C28.85 17.749 26.375 20.1269 26.375 23.1533V25.315H28.625V23.1533ZM33.6875 31.2597C33.6875 30.3951 32.9 29.6385 32 29.6385C31.1 29.6385 30.3125 30.3951 30.3125 31.2597C30.3125 31.6921 30.5375 32.1244 30.875 32.4487V33.9619C30.875 34.6104 31.325 35.0427 32 35.0427C32.675 35.0427 33.125 34.6104 33.125 33.9619V32.4487C33.4625 32.1244 33.6875 31.6921 33.6875 31.2597Z" fill="url(#paint0_linear_34_74)" fill-opacity="0.25"/>
</g>
<g filter="url(#filter2_d_34_74)">
<path d="M33.6875 31.2595C33.6875 30.3948 32.9 29.6382 32 29.6382C31.1 29.6382 30.3125 30.3948 30.3125 31.2595C30.3125 31.6918 30.5375 32.1242 30.875 32.4484V33.9616C30.875 34.6101 31.325 35.0425 32 35.0425C32.675 35.0425 33.125 34.6101 33.125 33.9616V32.4484C33.4625 32.1242 33.6875 31.6918 33.6875 31.2595Z" fill="white"/>
<path d="M33.6875 31.2595C33.6875 30.3948 32.9 29.6382 32 29.6382C31.1 29.6382 30.3125 30.3948 30.3125 31.2595C30.3125 31.6918 30.5375 32.1242 30.875 32.4484V33.9616C30.875 34.6101 31.325 35.0425 32 35.0425C32.675 35.0425 33.125 34.6101 33.125 33.9616V32.4484C33.4625 32.1242 33.6875 31.6918 33.6875 31.2595Z" fill="url(#paint1_linear_34_74)" fill-opacity="0.25"/>
</g>
<path d="M37.625 25.3154H26.375C24.4625 25.3154 23 26.7205 23 28.558V36.124C23 37.9614 24.4625 39.3665 26.375 39.3665H37.625C39.5375 39.3665 41 37.9614 41 36.124V28.558C41 26.7205 39.5375 25.3154 37.625 25.3154ZM33.125 32.4491V33.9623C33.125 34.6108 32.675 35.0431 32 35.0431C31.325 35.0431 30.875 34.6108 30.875 33.9623V32.4491C30.5375 32.1248 30.3125 31.6925 30.3125 31.2601C30.3125 30.3954 31.1 29.6388 32 29.6388C32.9 29.6388 33.6875 30.3954 33.6875 31.2601C33.6875 31.6925 33.4625 32.1248 33.125 32.4491Z" fill="url(#paint2_linear_34_74)"/>
</g>
<defs>
<filter id="filter0_d_34_74" x="0" y="0.738525" width="64" height="64.0386" filterUnits="userSpaceOnUse" color-interpolation-filters="sRGB">
<feFlood flood-opacity="0" result="BackgroundImageFix"/>
<feColorMatrix in="SourceAlpha" type="matrix" values="0 0 0 0 0 0 0 0 0 0 0 0 0 0 0 0 0 0 127 0" result="hardAlpha"/>
<feOffset dy="4"/>
<feGaussianBlur stdDeviation="4"/>
<feComposite in2="hardAlpha" operator="out"/>
<feColorMatrix type="matrix" values="0 0 0 0 0.142188 0 0 0 0 0.26325 0 0 0 0 0.375 0 0 0 0.2 0"/>
<feBlend mode="normal" in2="BackgroundImageFix" result="effect1_dropShadow_34_74"/>
<feBlend mode="normal" in="SourceGraphic" in2="effect1_dropShadow_34_74" result="shape"/>
</filter>
<filter id="filter1_d_34_74" x="17.375" y="8.74902" width="29.25" height="35.2937" filterUnits="userSpaceOnUse" color-interpolation-filters="sRGB">
<feFlood flood-opacity="0" result="BackgroundImageFix"/>
<feColorMatrix in="SourceAlpha" type="matrix" values="0 0 0 0 0 0 0 0 0 0 0 0 0 0 0 0 0 0 127 0" result="hardAlpha"/>
<feOffset/>
<feGaussianBlur stdDeviation="4.5"/>
<feComposite in2="hardAlpha" operator="out"/>
<feColorMatrix type="matrix" values="0 0 0 0 1 0 0 0 0 1 0 0 0 0 1 0 0 0 0.55 0"/>
<feBlend mode="normal" in2="BackgroundImageFix" result="effect1_dropShadow_34_74"/>
<feBlend mode="normal" in="SourceGraphic" in2="effect1_dropShadow_34_74" result="shape"/>
</filter>
<filter id="filter2_d_34_74" x="21.3125" y="20.6382" width="21.375" height="23.4043" filterUnits="userSpaceOnUse" color-interpolation-filters="sRGB">
<feFlood flood-opacity="0" result="BackgroundImageFix"/>
<feColorMatrix in="SourceAlpha" type="matrix" values="0 0 0 0 0 0 0 0 0 0 0 0 0 0 0 0 0 0 127 0" result="hardAlpha"/>
<feOffset/>
<feGaussianBlur stdDeviation="4.5"/>
<feComposite in2="hardAlpha" operator="out"/>
<feColorMatrix type="matrix" values="0 0 0 0 1 0 0 0 0 1 0 0 0 0 1 0 0 0 0.55 0"/>
<feBlend mode="normal" in2="BackgroundImageFix" result="effect1_dropShadow_34_74"/>
<feBlend mode="normal" in="SourceGraphic" in2="effect1_dropShadow_34_74" result="shape"/>
</filter>
<linearGradient id="paint0_linear_34_74" x1="28.6325" y1="8.41042" x2="41.4196" y2="10.2636" gradientUnits="userSpaceOnUse">
<stop stop-color="white" stop-opacity="0"/>
<stop offset="0.473213" stop-color="white"/>
<stop offset="1" stop-color="white" stop-opacity="0"/>
</linearGradient>
<linearGradient id="paint1_linear_34_74" x1="30.9898" y1="26.7199" x2="34.8321" y2="27.2544" gradientUnits="userSpaceOnUse">
<stop stop-color="white" stop-opacity="0"/>
<stop offset="0.473213" stop-color="white"/>
<stop offset="1" stop-color="white" stop-opacity="0"/>
</linearGradient>
<linearGradient id="paint2_linear_34_74" x1="39.3313" y1="25.3154" x2="22.9378" y2="25.4131" gradientUnits="userSpaceOnUse">
<stop stop-color="#4B4A53"/>
<stop offset="0.494792" stop-color="#808086"/>
<stop offset="1" stop-color="#4B4A53"/>
</linearGradient>
</defs>
</svg>
